{"glyphs":{"0":{"ha":974,"x_min":77,"x_max":897,"o":"m 487 -19 q 706 46 614 -19 q 847 227 797 111 q 897 494 897 342 q 845 755 897 643 q 702 929 794 867 q 487 992 610 992 q 273 930 365 992 q 129 755 181 867 q 77 494 77 643 q 127 227 77 342 q 269 46 177 111 q 487 -19 361 -19 m 487 117 q 353 159 410 117 q 265 285 296 201 q 233 494 233 369 q 306 767 233 678 q 487 856 378 856 q 670 767 600 856 q 740 494 740 677 q 709 284 740 368 q 622 159 678 201 q 487 117 565 117 "},"1":{"ha":478,"x_min":53,"x_max":357,"o":"m 208 0 l 357 0 l 357 972 l 247 972 q 197 909 230 940 q 126 854 165 878 q 53 821 88 831 l 73 686 q 136 710 104 694 q 208 756 168 726 l 208 0 "},"2":{"ha":731,"x_min":72,"x_max":658,"o":"m 72 1 l 658 1 l 658 140 l 331 140 l 465 342 q 554 489 519 425 q 606 610 589 553 q 622 728 622 667 q 592 861 622 801 q 502 957 562 921 q 354 992 442 992 q 199 965 268 992 q 76 893 131 937 l 95 738 q 201 818 143 785 q 331 851 260 851 q 434 812 397 851 q 472 706 472 773 q 457 622 472 665 q 410 524 442 578 q 333 399 379 470 l 72 1 "},"3":{"ha":750,"x_min":52,"x_max":667,"o":"m 328 -19 q 503 15 426 -19 q 624 114 580 49 q 667 271 667 179 q 605 442 667 378 q 435 524 542 505 l 436 492 q 582 579 529 514 q 635 738 635 644 q 602 869 635 813 q 505 959 569 926 q 349 992 441 992 q 208 974 272 992 q 94 929 144 957 l 117 785 q 220 838 168 817 q 331 858 272 858 q 441 823 403 858 q 480 719 480 787 q 433 612 480 651 q 303 573 386 573 l 226 573 l 226 433 l 303 433 q 460 390 409 433 q 511 268 511 346 q 463 155 511 197 q 329 114 414 114 q 201 134 260 114 q 89 183 142 154 l 52 49 q 175 1 105 22 q 328 -19 245 -19 "},"4":{"ha":828,"x_min":20,"x_max":776,"o":"m 501 0 l 651 0 l 651 239 l 776 239 l 776 365 l 651 365 l 651 972 l 544 972 l 20 239 l 501 239 l 501 0 m 231 319 l 535 747 l 501 791 l 501 365 l 203 365 l 231 319 "},"5":{"ha":749,"x_min":69,"x_max":683,"o":"m 339 -19 q 515 20 438 -19 q 638 131 593 59 q 683 302 683 203 q 644 465 683 395 q 533 574 605 535 q 361 613 460 613 q 288 608 323 613 q 219 597 252 604 l 265 538 l 300 827 l 631 827 l 639 972 l 181 972 l 120 464 q 214 482 167 475 q 310 488 260 488 q 468 440 410 488 q 526 302 526 392 q 474 173 526 221 q 333 126 421 126 q 211 146 266 126 q 106 195 157 166 l 69 56 q 191 2 122 22 q 339 -19 260 -19 "},"6":{"ha":785,"x_min":78,"x_max":726,"o":"m 407 -19 q 575 20 503 -19 q 686 129 647 60 q 726 290 726 199 q 689 441 726 375 q 587 546 652 508 q 439 584 522 584 q 279 546 344 584 q 178 444 213 508 l 225 375 q 249 517 225 449 q 314 643 273 584 q 407 751 356 702 q 513 838 458 800 q 619 901 567 876 l 515 992 q 362 890 439 953 q 221 744 285 828 q 117 559 156 660 q 78 342 78 458 q 117 153 78 234 q 231 26 157 72 q 407 -19 305 -19 m 408 108 q 283 159 331 108 q 235 284 235 209 q 283 407 235 358 q 408 456 331 456 q 532 407 484 456 q 579 285 579 358 q 532 160 579 211 q 408 108 484 108 "},"7":{"ha":703,"x_min":58,"x_max":690,"o":"m 117 0 l 276 0 l 690 972 l 58 972 l 58 830 l 539 830 l 497 893 l 117 0 "},"8":{"ha":840,"x_min":81,"x_max":760,"o":"m 420 -19 q 600 18 524 -19 q 718 124 676 56 q 760 278 760 191 q 717 434 760 367 q 598 539 674 501 q 420 576 522 576 q 242 539 319 576 q 124 434 166 501 q 81 278 81 367 q 122 124 81 191 q 239 18 163 56 q 420 -19 315 -19 m 420 114 q 279 160 329 114 q 229 283 229 207 q 279 409 229 359 q 420 459 329 459 q 561 409 511 459 q 612 283 612 359 q 561 160 612 207 q 420 114 511 114 m 420 474 q 573 507 508 474 q 674 597 638 540 q 710 729 710 654 q 681 853 710 793 q 589 953 652 914 q 420 992 525 992 q 250 953 315 992 q 156 853 185 914 q 126 729 126 793 q 165 597 126 654 q 272 507 205 540 q 420 474 338 474 m 420 592 q 307 632 347 592 q 267 728 267 673 q 307 826 267 789 q 420 864 347 864 q 531 826 494 864 q 567 728 567 789 q 531 632 567 673 q 420 592 494 592 "},"9":{"ha":785,"x_min":63,"x_max":711,"o":"m 288 0 q 436 99 362 38 q 573 241 510 160 q 673 420 635 322 q 711 630 711 518 q 672 819 711 738 q 558 946 632 901 q 382 992 484 992 q 214 952 286 992 q 102 843 142 913 q 63 682 63 774 q 100 531 63 597 q 202 426 137 465 q 350 388 267 388 q 511 426 445 388 q 610 528 576 465 l 564 597 q 540 460 564 526 q 477 339 517 395 q 387 235 437 282 q 285 151 338 188 q 184 90 233 115 l 288 0 m 381 519 q 258 567 306 519 q 210 688 210 616 q 258 811 210 761 q 381 861 306 861 q 505 812 457 861 q 552 688 552 763 q 505 567 552 616 q 381 519 457 519 "},"A":{"ha":861,"x_min":8,"x_max":853,"o":"m 637 249 l 637 384 l 224 384 l 224 249 l 637 249 m 410 824 l 701 0 l 853 0 l 506 972 l 355 972 l 8 0 l 160 0 l 451 824 l 410 824 "},"Á":{"ha":861,"x_min":8,"x_max":853,"o":"m 637 249 l 637 384 l 224 384 l 224 249 l 637 249 m 410 824 l 701 0 l 853 0 l 506 972 l 355 972 l 8 0 l 160 0 l 451 824 l 410 824 m 299 1058 l 564 1139 l 564 1277 l 299 1145 l 299 1058 "},"Ă":{"ha":861,"x_min":8,"x_max":853,"o":"m 637 249 l 637 384 l 224 384 l 224 249 l 637 249 m 410 824 l 701 0 l 853 0 l 506 972 l 355 972 l 8 0 l 160 0 l 451 824 l 410 824 m 431 1062 q 545 1086 499 1062 q 615 1150 591 1110 q 638 1236 638 1190 l 524 1236 q 498 1173 524 1194 q 431 1151 471 1151 q 364 1173 390 1151 q 337 1236 337 1194 l 223 1236 q 247 1150 223 1190 q 316 1086 270 1110 q 431 1062 363 1062 "},"Ắ":{"ha":861,"x_min":8,"x_max":853,"o":"m 637 249 l 637 384 l 224 384 l 224 249 l 637 249 m 410 824 l 701 0 l 853 0 l 506 972 l 355 972 l 8 0 l 160 0 l 451 824 l 410 824 m 431 1062 q 545 1086 499 1062 q 615 1150 591 1110 q 638 1236 638 1190 l 524 1236 q 498 1173 524 1194 q 431 1151 471 1151 q 364 1173 390 1151 q 337 1236 337 1194 l 223 1236 q 247 1150 223 1190 q 316 1086 270 1110 q 431 1062 363 1062 m 299 1298 l 564 1378 l 564 1517 l 299 1385 l 299 1298 "},"Ặ":{"ha":861,"x_min":8,"x_max":853,"o":"m 637 249 l 637 384 l 224 384 l 224 249 l 637 249 m 410 824 l 701 0 l 853 0 l 506 972 l 355 972 l 8 0 l 160 0 l 451 824 l 410 824 m 431 1092 q 545 1118 499 1092 q 615 1185 591 1144 q 638 1276 638 1227 l 524 1276 q 498 1212 524 1234 q 431 1190 471 1190 q 364 1212 390 1190 q 337 1276 337 1234 l 223 1276 q 247 1185 223 1227 q 316 1118 270 1144 q 431 1092 363 1092 "},"Ằ":{"ha":861,"x_min":8,"x_max":853,"o":"m 637 249 l 637 384 l 224 384 l 224 249 l 637 249 m 410 824 l 701 0 l 853 0 l 506 972 l 355 972 l 8 0 l 160 0 l 451 824 l 410 824 m 431 1060 q 545 1085 499 1060 q 615 1149 591 1109 q 638 1235 638 1188 l 524 1235 q 498 1172 524 1193 q 431 1150 471 1150 q 364 1172 390 1150 q 337 1235 337 1193 l 223 1235 q 247 1149 223 1188 q 316 1085 270 1109 q 431 1060 363 1060 m 563 1297 l 563 1384 l 297 1516 l 297 1377 l 563 1297 "},"Ẳ":{"ha":861,"x_min":8,"x_max":853,"o":"m 637 249 l 637 384 l 224 384 l 224 249 l 637 249 m 410 824 l 701 0 l 853 0 l 506 972 l 355 972 l 8 0 l 160 0 l 451 824 l 410 824 m 431 1062 q 545 1086 499 1062 q 615 1150 591 1110 q 638 1236 638 1190 l 524 1236 q 498 1173 524 1194 q 431 1151 471 1151 q 364 1173 390 1151 q 337 1236 337 1194 l 223 1236 q 247 1150 223 1190 q 316 1086 270 1110 q 431 1062 363 1062 m 441 1258 q 532 1300 503 1271 q 561 1375 561 1328 q 521 1457 561 1428 q 424 1485 481 1485 q 364 1478 392 1485 q 313 1459 336 1472 l 336 1382 q 379 1401 358 1394 q 422 1408 401 1408 q 463 1398 448 1408 q 477 1367 477 1388 q 464 1335 477 1347 q 427 1315 451 1323 l 441 1258 "},"Ẵ":{"ha":861,"x_min":8,"x_max":853,"o":"m 637 249 l 637 384 l 224 384 l 224 249 l 637 249 m 410 824 l 701 0 l 853 0 l 506 972 l 355 972 l 8 0 l 160 0 l 451 824 l 410 824 m 431 1062 q 545 1086 499 1062 q 615 1150 591 1110 q 638 1236 638 1190 l 524 1236 q 498 1173 524 1194 q 431 1151 471 1151 q 364 1173 390 1151 q 337 1236 337 1194 l 223 1236 q 247 1150 223 1190 q 316 1086 270 1110 q 431 1062 363 1062 m 548 1302 q 625 1339 599 1302 q 651 1444 651 1376 l 554 1444 q 508 1394 554 1394 q 448 1409 481 1394 q 380 1438 415 1424 q 313 1452 345 1452 q 237 1416 263 1452 q 210 1310 210 1380 l 307 1310 q 353 1360 307 1360 q 413 1345 380 1360 q 481 1317 446 1331 q 548 1302 516 1302 "},"Â":{"ha":861,"x_min":8,"x_max":853,"o":"m 637 249 l 637 384 l 224 384 l 224 249 l 637 249 m 410 824 l 701 0 l 853 0 l 506 972 l 355 972 l 8 0 l 160 0 l 451 824 l 410 824 m 251 1042 l 431 1137 l 610 1042 l 610 1134 l 431 1260 l 251 1134 l 251 1042 "},"Ấ":{"ha":861,"x_min":8,"x_max":853,"o":"m 637 249 l 637 384 l 224 384 l 224 249 l 637 249 m 410 824 l 701 0 l 853 0 l 506 972 l 355 972 l 8 0 l 160 0 l 451 824 l 410 824 m 251 1042 l 431 1137 l 610 1042 l 610 1134 l 431 1260 l 251 1134 l 251 1042 m 535 1247 l 635 1247 l 773 1415 l 627 1415 l 535 1247 "},"Ậ":{"ha":861,"x_min":8,"x_max":853,"o":"m 637 249 l 637 384 l 224 384 l 224 249 l 637 249 m 410 824 l 701 0 l 853 0 l 506 972 l 355 972 l 8 0 l 160 0 l 451 824 l 410 824 m 251 1064 l 431 1176 l 610 1064 l 610 1159 l 431 1313 l 251 1159 l 251 1064 "},"Ầ":{"ha":861,"x_min":8,"x_max":853,"o":"m 637 249 l 637 384 l 224 384 l 224 249 l 637 249 m 410 824 l 701 0 l 853 0 l 506 972 l 355 972 l 8 0 l 160 0 l 451 824 l 410 824 m 251 1042 l 431 1137 l 610 1042 l 610 1134 l 431 1260 l 251 1134 l 251 1042 m 560 1247 l 656 1247 l 581 1415 l 442 1415 l 560 1247 "},"Ẩ":{"ha":861,"x_min":8,"x_max":853,"o":"m 637 249 l 637 384 l 224 384 l 224 249 l 637 249 m 410 824 l 701 0 l 853 0 l 506 972 l 355 972 l 8 0 l 160 0 l 451 824 l 410 824 m 251 1042 l 431 1137 l 610 1042 l 610 1134 l 431 1260 l 251 1134 l 251 1042 m 564 1211 q 656 1253 627 1225 q 684 1329 684 1282 q 644 1411 684 1383 q 547 1440 604 1440 q 487 1433 515 1440 q 435 1413 459 1426 l 459 1336 q 502 1355 481 1348 q 545 1363 524 1363 q 585 1352 571 1363 q 600 1321 600 1342 q 588 1289 600 1301 q 550 1269 575 1277 l 564 1211 "},"Ẫ":{"ha":861,"x_min":8,"x_max":853,"o":"m 637 249 l 637 384 l 224 384 l 224 249 l 637 249 m 410 824 l 701 0 l 853 0 l 506 972 l 355 972 l 8 0 l 160 0 l 451 824 l 410 824 m 251 1042 l 431 1137 l 610 1042 l 610 1134 l 431 1260 l 251 1134 l 251 1042 m 548 1314 q 625 1351 599 1314 q 651 1456 651 1388 l 554 1456 q 508 1406 554 1406 q 448 1421 481 1406 q 380 1450 415 1435 q 313 1464 345 1464 q 237 1428 263 1464 q 210 1322 210 1392 l 307 1322 q 353 1372 307 1372 q 413 1357 380 1372 q 481 1328 446 1343 q 548 1314 516 1314 "},"Ȁ":{"ha":861,"x_min":8,"x_max":853,"o":"m 637 249 l 637 384 l 224 384 l 224 249 l 637 249 m 410 824 l 701 0 l 853 0 l 506 972 l 355 972 l 8 0 l 160 0 l 451 824 l 410 824 m 579 1094 l 499 1305 l 353 1305 l 480 1094 l 579 1094 m 381 1094 l 292 1305 l 147 1305 l 281 1094 l 381 1094 "},"Ä":{"ha":861,"x_min":8,"x_max":853,"o":"m 637 249 l 637 384 l 224 384 l 224 249 l 637 249 m 410 824 l 701 0 l 853 0 l 506 972 l 355 972 l 8 0 l 160 0 l 451 824 l 410 824 m 232 1097 l 357 1097 l 357 1207 l 232 1207 l 232 1097 m 504 1097 l 629 1097 l 629 1207 l 504 1207 l 504 1097 "},"Ạ":{"ha":861,"x_min":8,"x_max":853,"o":"m 637 249 l 637 384 l 224 384 l 224 249 l 637 249 m 410 824 l 701 0 l 853 0 l 506 972 l 355 972 l 8 0 l 160 0 l 451 824 l 410 824 "},"À":{"ha":861,"x_min":8,"x_max":853,"o":"m 637 249 l 637 384 l 224 384 l 224 249 l 637 249 m 410 824 l 701 0 l 853 0 l 506 972 l 355 972 l 8 0 l 160 0 l 451 824 l 410 824 m 563 1058 l 563 1145 l 297 1277 l 297 1139 l 563 1058 "},"Ả":{"ha":861,"x_min":8,"x_max":853,"o":"m 637 249 l 637 384 l 224 384 l 224 249 l 637 249 m 410 824 l 701 0 l 853 0 l 506 972 l 355 972 l 8 0 l 160 0 l 451 824 l 410 824 m 427 1056 q 518 1098 490 1069 q 547 1174 547 1126 q 507 1256 547 1227 q 410 1284 467 1284 q 350 1277 378 1284 q 299 1258 322 1270 l 322 1181 q 365 1200 344 1192 q 408 1207 387 1207 q 449 1197 434 1207 q 463 1165 463 1187 q 450 1134 463 1146 q 413 1114 438 1122 l 427 1056 "},"Ȃ":{"ha":861,"x_min":8,"x_max":853,"o":"m 637 249 l 637 384 l 224 384 l 224 249 l 637 249 m 410 824 l 701 0 l 853 0 l 506 972 l 355 972 l 8 0 l 160 0 l 451 824 l 410 824 m 431 1257 q 316 1233 363 1257 q 247 1169 270 1208 q 223 1083 223 1129 l 337 1083 q 364 1146 337 1125 q 431 1167 390 1167 q 498 1146 471 1167 q 524 1083 524 1125 l 638 1083 q 615 1169 638 1129 q 545 1233 591 1208 q 431 1257 499 1257 "},"Ā":{"ha":861,"x_min":8,"x_max":853,"o":"m 637 249 l 637 384 l 224 384 l 224 249 l 637 249 m 410 824 l 701 0 l 853 0 l 506 972 l 355 972 l 8 0 l 160 0 l 451 824 l 410 824 m 206 1101 l 655 1101 l 655 1201 l 206 1201 l 206 1101 "},"Ą":{"ha":861,"x_min":8,"x_max":885,"o":"m 637 249 l 637 384 l 224 384 l 224 249 l 637 249 m 410 824 l 701 0 l 853 0 l 506 972 l 355 972 l 8 0 l 160 0 l 451 824 l 410 824 m 740 0 q 664 -70 700 -25 q 627 -170 627 -115 q 668 -260 627 -228 q 768 -291 709 -291 q 836 -283 806 -291 q 885 -264 865 -274 l 864 -192 q 823 -208 844 -202 q 778 -214 802 -214 q 730 -197 748 -214 q 711 -146 711 -180 q 741 -72 711 -108 q 819 0 771 -37 l 740 0 "},"Å":{"ha":861,"x_min":8,"x_max":853,"o":"m 637 249 l 637 384 l 224 384 l 224 249 l 637 249 m 410 824 l 701 0 l 853 0 l 506 972 l 355 972 l 8 0 l 160 0 l 451 824 l 410 824 m 431 1049 q 539 1090 501 1049 q 576 1185 576 1131 q 539 1280 576 1238 q 431 1321 501 1321 q 323 1280 361 1321 q 285 1185 285 1238 q 323 1090 285 1131 q 431 1049 361 1049 m 431 1115 q 381 1134 402 1115 q 360 1185 360 1153 q 381 1235 360 1215 q 431 1254 402 1254 q 480 1235 460 1254 q 501 1185 501 1215 q 480 1134 501 1153 q 431 1115 459 1115 "},"Ǻ":{"ha":861,"x_min":8,"x_max":853,"o":"m 637 249 l 637 384 l 224 384 l 224 249 l 637 249 m 410 824 l 701 0 l 853 0 l 506 972 l 355 972 l 8 0 l 160 0 l 451 824 l 410 824 m 431 1049 q 539 1090 501 1049 q 576 1185 576 1131 q 539 1280 576 1238 q 431 1321 501 1321 q 323 1280 361 1321 q 285 1185 285 1238 q 323 1090 285 1131 q 431 1049 361 1049 m 431 1115 q 381 1134 402 1115 q 360 1185 360 1153 q 381 1235 360 1215 q 431 1254 402 1254 q 480 1235 460 1254 q 501 1185 501 1215 q 480 1134 501 1153 q 431 1115 459 1115 m 299 1363 l 564 1443 l 564 1581 l 299 1449 l 299 1363 "},"Ã":{"ha":861,"x_min":8,"x_max":853,"o":"m 637 249 l 637 384 l 224 384 l 224 249 l 637 249 m 410 824 l 701 0 l 853 0 l 506 972 l 355 972 l 8 0 l 160 0 l 451 824 l 410 824 m 548 1088 q 625 1125 599 1088 q 651 1230 651 1162 l 554 1230 q 508 1181 554 1181 q 448 1195 481 1181 q 380 1224 415 1210 q 313 1238 345 1238 q 237 1202 263 1238 q 210 1097 210 1166 l 307 1097 q 353 1146 307 1146 q 413 1132 380 1146 q 481 1103 446 1117 q 548 1088 516 1088 "},"Æ":{"ha":1203,"x_min":-12,"x_max":1153,"o":"m -12 0 l 141 0 l 547 826 l 547 0 l 1153 0 l 1153 142 l 716 142 l 716 437 l 1043 437 l 1043 578 l 716 578 l 716 830 l 1140 830 l 1140 972 l 463 972 l -12 0 m 228 244 l 569 244 l 569 390 l 228 390 l 228 244 "},"Ǽ":{"ha":1203,"x_min":-12,"x_max":1153,"o":"m -12 0 l 141 0 l 547 826 l 547 0 l 1153 0 l 1153 142 l 716 142 l 716 437 l 1043 437 l 1043 578 l 716 578 l 716 830 l 1140 830 l 1140 972 l 463 972 l -12 0 m 228 244 l 569 244 l 569 390 l 228 390 l 228 244 m 669 1058 l 935 1139 l 935 1277 l 669 1145 l 669 1058 "},"B":{"ha":847,"x_min":109,"x_max":805,"o":"m 109 0 l 492 0 q 722 74 638 0 q 805 277 805 148 q 749 453 805 388 q 585 538 692 518 l 573 511 q 683 593 647 533 q 720 736 720 653 q 648 913 720 853 q 442 972 576 972 l 109 972 l 109 0 m 260 136 l 260 442 l 475 442 q 597 408 549 442 q 644 288 644 374 q 598 172 644 208 q 475 136 552 136 l 260 136 m 260 578 l 260 837 l 421 837 q 528 809 489 837 q 567 707 567 782 q 528 605 567 633 q 421 578 489 578 l 260 578 "},"C":{"ha":851,"x_min":52,"x_max":808,"o":"m 546 -19 q 689 -3 623 -19 q 808 37 754 13 l 791 179 q 677 137 735 153 q 547 122 618 122 q 365 170 438 122 q 255 300 292 218 q 217 486 217 383 q 255 672 217 590 q 367 802 293 754 q 550 851 440 851 q 679 834 619 851 q 791 792 739 817 l 808 935 q 692 976 758 960 q 551 992 626 992 q 294 929 407 992 q 116 753 181 867 q 52 486 52 640 q 115 219 52 333 q 290 43 178 106 q 546 -19 401 -19 "},"Ć":{"ha":851,"x_min":52,"x_max":808,"o":"m 546 -19 q 689 -3 623 -19 q 808 37 754 13 l 791 179 q 677 137 735 153 q 547 122 618 122 q 365 170 438 122 q 255 300 292 218 q 217 486 217 383 q 255 672 217 590 q 367 802 293 754 q 550 851 440 851 q 679 834 619 851 q 791 792 739 817 l 808 935 q 692 976 758 960 q 551 992 626 992 q 294 929 407 992 q 116 753 181 867 q 52 486 52 640 q 115 219 52 333 q 290 43 178 106 q 546 -19 401 -19 m 388 1058 l 653 1139 l 653 1277 l 388 1145 l 388 1058 "},"Č":{"ha":851,"x_min":52,"x_max":808,"o":"m 546 -19 q 689 -3 623 -19 q 808 37 754 13 l 791 179 q 677 137 735 153 q 547 122 618 122 q 365 170 438 122 q 255 300 292 218 q 217 486 217 383 q 255 672 217 590 q 367 802 293 754 q 550 851 440 851 q 679 834 619 851 q 791 792 739 817 l 808 935 q 692 976 758 960 q 551 992 626 992 q 294 929 407 992 q 116 753 181 867 q 52 486 52 640 q 115 219 52 333 q 290 43 178 106 q 546 -19 401 -19 "},"Ç":{"ha":851,"x_min":52,"x_max":808,"o":"m 546 -19 q 689 -3 623 -19 q 808 37 754 13 l 791 179 q 677 137 735 153 q 547 122 618 122 q 365 170 438 122 q 255 300 292 218 q 217 486 217 383 q 255 672 217 590 q 367 802 293 754 q 550 851 440 851 q 679 834 619 851 q 791 792 739 817 l 808 935 q 692 976 758 960 q 551 992 626 992 q 294 929 407 992 q 116 753 181 867 q 52 486 52 640 q 115 219 52 333 q 290 43 178 106 q 546 -19 401 -19 m 533 -110 l 567 0 l 494 0 l 457 -153 q 491 -145 475 -147 q 522 -142 506 -142 q 574 -156 557 -142 q 592 -195 592 -170 q 574 -232 592 -219 q 526 -245 556 -245 q 480 -239 501 -245 q 437 -222 458 -232 l 414 -295 q 461 -314 433 -306 q 524 -322 488 -322 q 632 -288 588 -322 q 676 -191 676 -255 q 642 -106 676 -137 q 551 -75 609 -75 q 516 -79 532 -75 q 483 -89 499 -83 l 533 -110 "},"Ḉ":{"ha":851,"x_min":52,"x_max":808,"o":"m 546 -19 q 689 -3 623 -19 q 808 37 754 13 l 791 179 q 677 137 735 153 q 547 122 618 122 q 365 170 438 122 q 255 300 292 218 q 217 486 217 383 q 255 672 217 590 q 367 802 293 754 q 550 851 440 851 q 679 834 619 851 q 791 792 739 817 l 808 935 q 692 976 758 960 q 551 992 626 992 q 294 929 407 992 q 116 753 181 867 q 52 486 52 640 q 115 219 52 333 q 290 43 178 106 q 546 -19 401 -19 m 533 -110 l 567 0 l 494 0 l 457 -153 q 491 -145 475 -147 q 522 -142 506 -142 q 574 -156 557 -142 q 592 -195 592 -170 q 574 -232 592 -219 q 526 -245 556 -245 q 480 -239 501 -245 q 437 -222 458 -232 l 414 -295 q 461 -314 433 -306 q 524 -322 488 -322 q 632 -288 588 -322 q 676 -191 676 -255 q 642 -106 676 -137 q 551 -75 609 -75 q 516 -79 532 -75 q 483 -89 499 -83 l 533 -110 m 388 1058 l 653 1139 l 653 1277 l 388 1145 l 388 1058 "},"Ĉ":{"ha":851,"x_min":52,"x_max":808,"o":"m 546 -19 q 689 -3 623 -19 q 808 37 754 13 l 791 179 q 677 137 735 153 q 547 122 618 122 q 365 170 438 122 q 255 300 292 218 q 217 486 217 383 q 255 672 217 590 q 367 802 293 754 q 550 851 440 851 q 679 834 619 851 q 791 792 739 817 l 808 935 q 692 976 758 960 q 551 992 626 992 q 294 929 407 992 q 116 753 181 867 q 52 486 52 640 q 115 219 52 333 q 290 43 178 106 q 546 -19 401 -19 m 341 1042 l 520 1137 l 699 1042 l 699 1134 l 520 1260 l 341 1134 l 341 1042 "},"Ċ":{"ha":851,"x_min":52,"x_max":808,"o":"m 546 -19 q 689 -3 623 -19 q 808 37 754 13 l 791 179 q 677 137 735 153 q 547 122 618 122 q 365 170 438 122 q 255 300 292 218 q 217 486 217 383 q 255 672 217 590 q 367 802 293 754 q 550 851 440 851 q 679 834 619 851 q 791 792 739 817 l 808 935 q 692 976 758 960 q 551 992 626 992 q 294 929 407 992 q 116 753 181 867 q 52 486 52 640 q 115 219 52 333 q 290 43 178 106 q 546 -19 401 -19 m 451 1099 l 589 1099 l 589 1228 l 451 1228 l 451 1099 "},"D":{"ha":1006,"x_min":109,"x_max":952,"o":"m 109 0 l 471 0 q 720 58 611 0 q 890 224 828 115 q 952 486 952 333 q 890 748 952 640 q 720 915 828 857 q 471 972 611 972 l 109 972 l 109 0 m 260 136 l 260 836 l 471 836 q 645 793 575 836 q 751 670 715 749 q 787 486 787 592 q 751 302 787 381 q 645 180 715 223 q 471 136 575 136 l 260 136 "},"Ǆ":{"ha":1741,"x_min":109,"x_max":1731,"o":"m 109 0 l 471 0 q 720 58 611 0 q 890 224 828 115 q 952 486 952 333 q 890 748 952 640 q 720 915 828 857 q 471 972 611 972 l 109 972 l 109 0 m 260 136 l 260 836 l 471 836 q 645 793 575 836 q 751 670 715 749 q 787 486 787 592 q 751 302 787 381 q 645 180 715 223 q 471 136 575 136 l 260 136 "},"Ð":{"ha":1014,"x_min":28,"x_max":960,"o":"m 122 0 l 481 0 q 729 58 621 0 q 899 224 837 115 q 960 486 960 333 q 899 748 960 640 q 729 915 837 857 q 481 972 621 972 l 122 972 l 122 555 l 28 555 l 28 433 l 122 433 l 122 0 m 269 142 l 269 433 l 448 433 l 448 555 l 269 555 l 269 831 l 481 831 q 717 738 638 831 q 797 486 797 644 q 717 236 797 329 q 481 142 638 142 l 269 142 "},"Ď":{"ha":1006,"x_min":109,"x_max":952,"o":"m 109 0 l 471 0 q 720 58 611 0 q 890 224 828 115 q 952 486 952 333 q 890 748 952 640 q 720 915 828 857 q 471 972 611 972 l 109 972 l 109 0 m 260 136 l 260 836 l 471 836 q 645 793 575 836 q 751 670 715 749 q 787 486 787 592 q 751 302 787 381 q 645 180 715 223 q 471 136 575 136 l 260 136 "},"Đ":{"ha":1014,"x_min":28,"x_max":960,"o":"m 122 0 l 481 0 q 729 58 621 0 q 899 224 837 115 q 960 486 960 333 q 899 748 960 640 q 729 915 837 857 q 481 972 621 972 l 122 972 l 122 555 l 28 555 l 28 433 l 122 433 l 122 0 m 269 142 l 269 433 l 448 433 l 448 555 l 269 555 l 269 831 l 481 831 q 717 738 638 831 q 797 486 797 644 q 717 236 797 329 q 481 142 638 142 l 269 142 "},"Ḍ":{"ha":1006,"x_min":109,"x_max":952,"o":"m 109 0 l 471 0 q 720 58 611 0 q 890 224 828 115 q 952 486 952 333 q 890 748 952 640 q 720 915 828 857 q 471 972 611 972 l 109 972 l 109 0 m 260 136 l 260 836 l 471 836 q 645 793 575 836 q 751 670 715 749 q 787 486 787 592 q 751 302 787 381 q 645 180 715 223 q 471 136 575 136 l 260 136 "},"Ḏ":{"ha":1006,"x_min":109,"x_max":952,"o":"m 109 0 l 471 0 q 720 58 611 0 q 890 224 828 115 q 952 486 952 333 q 890 748 952 640 q 720 915 828 857 q 471 972 611 972 l 109 972 l 109 0 m 260 136 l 260 836 l 471 836 q 645 793 575 836 q 751 670 715 749 q 787 486 787 592 q 751 302 787 381 q 645 180 715 223 q 471 136 575 136 l 260 136 "},"ǅ":{"ha":1652,"x_min":109,"x_max":1622,"o":"m 109 0 l 471 0 q 720 58 611 0 q 890 224 828 115 q 952 486 952 333 q 890 748 952 640 q 720 915 828 857 q 471 972 611 972 l 109 972 l 109 0 m 260 136 l 260 836 l 471 836 q 645 793 575 836 q 751 670 715 749 q 787 486 787 592 q 751 302 787 381 q 645 180 715 223 q 471 136 575 136 l 260 136 "},"E":{"ha":778,"x_min":109,"x_max":728,"o":"m 109 0 l 728 0 l 728 142 l 263 142 l 263 437 l 619 437 l 619 578 l 263 578 l 263 831 l 715 831 l 715 972 l 109 972 l 109 0 "},"É":{"ha":778,"x_min":109,"x_max":728,"o":"m 109 0 l 728 0 l 728 142 l 263 142 l 263 437 l 619 437 l 619 578 l 263 578 l 263 831 l 715 831 l 715 972 l 109 972 l 109 0 m 294 1058 l 560 1139 l 560 1277 l 294 1145 l 294 1058 "},"Ĕ":{"ha":778,"x_min":109,"x_max":728,"o":"m 109 0 l 728 0 l 728 142 l 263 142 l 263 437 l 619 437 l 619 578 l 263 578 l 263 831 l 715 831 l 715 972 l 109 972 l 109 0 m 426 1062 q 541 1086 494 1062 q 610 1150 587 1110 q 634 1236 634 1190 l 520 1236 q 493 1173 520 1194 q 426 1151 467 1151 q 359 1173 386 1151 q 333 1236 333 1194 l 219 1236 q 242 1150 219 1190 q 312 1086 266 1110 q 426 1062 358 1062 "},"Ě":{"ha":778,"x_min":109,"x_max":728,"o":"m 109 0 l 728 0 l 728 142 l 263 142 l 263 437 l 619 437 l 619 578 l 263 578 l 263 831 l 715 831 l 715 972 l 109 972 l 109 0 "},"Ḝ":{"ha":778,"x_min":109,"x_max":728,"o":"m 109 0 l 728 0 l 728 142 l 263 142 l 263 437 l 619 437 l 619 578 l 263 578 l 263 831 l 715 831 l 715 972 l 109 972 l 109 0 m 435 -110 l 469 0 l 397 0 l 360 -153 q 393 -145 378 -147 q 424 -142 409 -142 q 477 -156 460 -142 q 494 -195 494 -170 q 476 -232 494 -219 q 428 -245 458 -245 q 383 -239 404 -245 q 340 -222 361 -232 l 317 -295 q 364 -314 336 -306 q 427 -322 391 -322 q 535 -288 491 -322 q 578 -191 578 -255 q 545 -106 578 -137 q 453 -75 512 -75 q 418 -79 435 -75 q 385 -89 402 -83 l 435 -110 m 426 1062 q 541 1086 494 1062 q 610 1150 587 1110 q 634 1236 634 1190 l 520 1236 q 493 1173 520 1194 q 426 1151 467 1151 q 359 1173 386 1151 q 333 1236 333 1194 l 219 1236 q 242 1150 219 1190 q 312 1086 266 1110 q 426 1062 358 1062 "},"Ê":{"ha":778,"x_min":109,"x_max":728,"o":"m 109 0 l 728 0 l 728 142 l 263 142 l 263 437 l 619 437 l 619 578 l 263 578 l 263 831 l 715 831 l 715 972 l 109 972 l 109 0 m 247 1042 l 426 1137 l 606 1042 l 606 1134 l 426 1260 l 247 1134 l 247 1042 "},"Ế":{"ha":778,"x_min":109,"x_max":769,"o":"m 109 0 l 728 0 l 728 142 l 263 142 l 263 437 l 619 437 l 619 578 l 263 578 l 263 831 l 715 831 l 715 972 l 109 972 l 109 0 m 247 1042 l 426 1137 l 606 1042 l 606 1134 l 426 1260 l 247 1134 l 247 1042 m 531 1247 l 631 1247 l 769 1415 l 623 1415 l 531 1247 "},"Ệ":{"ha":778,"x_min":109,"x_max":728,"o":"m 109 0 l 728 0 l 728 142 l 263 142 l 263 437 l 619 437 l 619 578 l 263 578 l 263 831 l 715 831 l 715 972 l 109 972 l 109 0 m 247 1042 l 426 1137 l 606 1042 l 606 1134 l 426 1260 l 247 1134 l 247 1042 "},"Ề":{"ha":778,"x_min":109,"x_max":728,"o":"m 109 0 l 728 0 l 728 142 l 263 142 l 263 437 l 619 437 l 619 578 l 263 578 l 263 831 l 715 831 l 715 972 l 109 972 l 109 0 m 247 1042 l 426 1137 l 606 1042 l 606 1134 l 426 1260 l 247 1134 l 247 1042 m 556 1247 l 651 1247 l 576 1415 l 438 1415 l 556 1247 "},"Ể":{"ha":778,"x_min":109,"x_max":728,"o":"m 109 0 l 728 0 l 728 142 l 263 142 l 263 437 l 619 437 l 619 578 l 263 578 l 263 831 l 715 831 l 715 972 l 109 972 l 109 0 m 247 1042 l 426 1137 l 606 1042 l 606 1134 l 426 1260 l 247 1134 l 247 1042 m 560 1211 q 651 1253 623 1225 q 680 1329 680 1282 q 640 1411 680 1383 q 542 1440 600 1440 q 483 1433 511 1440 q 431 1413 455 1426 l 455 1336 q 498 1355 476 1348 q 541 1363 520 1363 q 581 1352 567 1363 q 596 1321 596 1342 q 583 1289 596 1301 q 546 1269 571 1277 l 560 1211 "},"Ễ":{"ha":778,"x_min":109,"x_max":728,"o":"m 109 0 l 728 0 l 728 142 l 263 142 l 263 437 l 619 437 l 619 578 l 263 578 l 263 831 l 715 831 l 715 972 l 109 972 l 109 0 m 247 1042 l 426 1137 l 606 1042 l 606 1134 l 426 1260 l 247 1134 l 247 1042 m 544 1314 q 620 1351 594 1314 q 647 1456 647 1388 l 550 1456 q 503 1406 550 1406 q 444 1421 477 1406 q 376 1450 411 1435 q 309 1464 341 1464 q 233 1428 259 1464 q 206 1322 206 1392 l 303 1322 q 349 1372 303 1372 q 409 1357 376 1372 q 477 1328 442 1343 q 544 1314 512 1314 "},"Ȅ":{"ha":778,"x_min":109,"x_max":728,"o":"m 109 0 l 728 0 l 728 142 l 263 142 l 263 437 l 619 437 l 619 578 l 263 578 l 263 831 l 715 831 l 715 972 l 109 972 l 109 0 m 575 1094 l 495 1305 l 349 1305 l 476 1094 l 575 1094 m 376 1094 l 288 1305 l 142 1305 l 277 1094 l 376 1094 "},"Ë":{"ha":778,"x_min":109,"x_max":728,"o":"m 109 0 l 728 0 l 728 142 l 263 142 l 263 437 l 619 437 l 619 578 l 263 578 l 263 831 l 715 831 l 715 972 l 109 972 l 109 0 m 228 1097 l 353 1097 l 353 1207 l 228 1207 l 228 1097 m 500 1097 l 625 1097 l 625 1207 l 500 1207 l 500 1097 "},"Ė":{"ha":778,"x_min":109,"x_max":728,"o":"m 109 0 l 728 0 l 728 142 l 263 142 l 263 437 l 619 437 l 619 578 l 263 578 l 263 831 l 715 831 l 715 972 l 109 972 l 109 0 m 358 1099 l 495 1099 l 495 1228 l 358 1228 l 358 1099 "},"Ẹ":{"ha":778,"x_min":109,"x_max":728,"o":"m 109 0 l 728 0 l 728 142 l 263 142 l 263 437 l 619 437 l 619 578 l 263 578 l 263 831 l 715 831 l 715 972 l 109 972 l 109 0 "},"È":{"ha":778,"x_min":109,"x_max":728,"o":"m 109 0 l 728 0 l 728 142 l 263 142 l 263 437 l 619 437 l 619 578 l 263 578 l 263 831 l 715 831 l 715 972 l 109 972 l 109 0 m 558 1058 l 558 1145 l 293 1277 l 293 1139 l 558 1058 "},"Ẻ":{"ha":778,"x_min":109,"x_max":728,"o":"m 109 0 l 728 0 l 728 142 l 263 142 l 263 437 l 619 437 l 619 578 l 263 578 l 263 831 l 715 831 l 715 972 l 109 972 l 109 0 m 423 1056 q 514 1098 485 1069 q 543 1174 543 1126 q 503 1256 543 1227 q 406 1284 463 1284 q 346 1277 374 1284 q 294 1258 318 1270 l 318 1181 q 361 1200 340 1192 q 404 1207 383 1207 q 444 1197 430 1207 q 459 1165 459 1187 q 446 1134 459 1146 q 409 1114 433 1122 l 423 1056 "},"Ȇ":{"ha":778,"x_min":109,"x_max":728,"o":"m 109 0 l 728 0 l 728 142 l 263 142 l 263 437 l 619 437 l 619 578 l 263 578 l 263 831 l 715 831 l 715 972 l 109 972 l 109 0 m 426 1257 q 312 1233 358 1257 q 242 1169 266 1208 q 219 1083 219 1129 l 333 1083 q 359 1146 333 1125 q 426 1167 386 1167 q 493 1146 467 1167 q 520 1083 520 1125 l 634 1083 q 610 1169 634 1129 q 541 1233 587 1208 q 426 1257 494 1257 "},"Ē":{"ha":778,"x_min":109,"x_max":728,"o":"m 109 0 l 728 0 l 728 142 l 263 142 l 263 437 l 619 437 l 619 578 l 263 578 l 263 831 l 715 831 l 715 972 l 109 972 l 109 0 m 202 1101 l 651 1101 l 651 1201 l 202 1201 l 202 1101 "},"Ḗ":{"ha":778,"x_min":109,"x_max":728,"o":"m 109 0 l 728 0 l 728 142 l 263 142 l 263 437 l 619 437 l 619 578 l 263 578 l 263 831 l 715 831 l 715 972 l 109 972 l 109 0 m 202 1101 l 651 1101 l 651 1201 l 202 1201 l 202 1101 m 294 1297 l 560 1378 l 560 1516 l 294 1384 l 294 1297 "},"Ḕ":{"ha":778,"x_min":109,"x_max":728,"o":"m 109 0 l 728 0 l 728 142 l 263 142 l 263 437 l 619 437 l 619 578 l 263 578 l 263 831 l 715 831 l 715 972 l 109 972 l 109 0 m 202 1101 l 651 1101 l 651 1201 l 202 1201 l 202 1101 m 558 1297 l 558 1384 l 293 1516 l 293 1378 l 558 1297 "},"Ę":{"ha":778,"x_min":109,"x_max":794,"o":"m 109 0 l 728 0 l 728 142 l 263 142 l 263 437 l 619 437 l 619 578 l 263 578 l 263 831 l 715 831 l 715 972 l 109 972 l 109 0 m 649 0 q 573 -70 609 -25 q 536 -170 536 -115 q 577 -260 536 -228 q 677 -291 618 -291 q 745 -283 715 -291 q 794 -264 774 -274 l 773 -192 q 732 -208 753 -202 q 687 -214 711 -214 q 639 -197 657 -214 q 620 -146 620 -180 q 650 -72 620 -108 q 728 0 680 -37 l 649 0 "},"Ẽ":{"ha":778,"x_min":109,"x_max":728,"o":"m 109 0 l 728 0 l 728 142 l 263 142 l 263 437 l 619 437 l 619 578 l 263 578 l 263 831 l 715 831 l 715 972 l 109 972 l 109 0 m 544 1088 q 620 1125 594 1088 q 647 1230 647 1162 l 550 1230 q 503 1181 550 1181 q 444 1195 477 1181 q 376 1224 411 1210 q 309 1238 341 1238 q 233 1202 259 1238 q 206 1097 206 1166 l 303 1097 q 349 1146 303 1146 q 409 1132 376 1146 q 477 1103 442 1117 q 544 1088 512 1088 "},"F":{"ha":728,"x_min":109,"x_max":705,"o":"m 109 0 l 260 0 l 260 437 l 603 437 l 603 578 l 260 578 l 260 831 l 705 831 l 705 972 l 109 972 l 109 0 "},"G":{"ha":928,"x_min":52,"x_max":860,"o":"m 534 -19 q 722 2 638 -19 q 860 54 806 24 l 860 488 l 564 488 l 564 356 l 709 356 l 709 144 q 631 127 672 132 q 558 122 590 122 q 367 169 443 122 q 255 299 292 217 q 217 488 217 382 q 254 672 217 590 q 366 802 290 754 q 559 851 442 851 q 694 835 631 851 q 813 797 758 820 l 828 935 q 706 975 776 959 q 557 992 635 992 q 296 930 410 992 q 117 754 182 867 q 52 488 52 640 q 113 219 52 333 q 282 43 174 106 q 534 -19 391 -19 "},"Ğ":{"ha":928,"x_min":52,"x_max":860,"o":"m 534 -19 q 722 2 638 -19 q 860 54 806 24 l 860 488 l 564 488 l 564 356 l 709 356 l 709 144 q 631 127 672 132 q 558 122 590 122 q 367 169 443 122 q 255 299 292 217 q 217 488 217 382 q 254 672 217 590 q 366 802 290 754 q 559 851 442 851 q 694 835 631 851 q 813 797 758 820 l 828 935 q 706 975 776 959 q 557 992 635 992 q 296 930 410 992 q 117 754 182 867 q 52 488 52 640 q 113 219 52 333 q 282 43 174 106 q 534 -19 391 -19 m 558 1062 q 673 1086 626 1062 q 742 1150 719 1110 q 766 1236 766 1190 l 652 1236 q 625 1173 652 1194 q 558 1151 599 1151 q 491 1173 518 1151 q 465 1236 465 1194 l 351 1236 q 374 1150 351 1190 q 444 1086 398 1110 q 558 1062 490 1062 "},"Ǧ":{"ha":928,"x_min":52,"x_max":860,"o":"m 534 -19 q 722 2 638 -19 q 860 54 806 24 l 860 488 l 564 488 l 564 356 l 709 356 l 709 144 q 631 127 672 132 q 558 122 590 122 q 367 169 443 122 q 255 299 292 217 q 217 488 217 382 q 254 672 217 590 q 366 802 290 754 q 559 851 442 851 q 694 835 631 851 q 813 797 758 820 l 828 935 q 706 975 776 959 q 557 992 635 992 q 296 930 410 992 q 117 754 182 867 q 52 488 52 640 q 113 219 52 333 q 282 43 174 106 q 534 -19 391 -19 "},"Ĝ":{"ha":928,"x_min":52,"x_max":860,"o":"m 534 -19 q 722 2 638 -19 q 860 54 806 24 l 860 488 l 564 488 l 564 356 l 709 356 l 709 144 q 631 127 672 132 q 558 122 590 122 q 367 169 443 122 q 255 299 292 217 q 217 488 217 382 q 254 672 217 590 q 366 802 290 754 q 559 851 442 851 q 694 835 631 851 q 813 797 758 820 l 828 935 q 706 975 776 959 q 557 992 635 992 q 296 930 410 992 q 117 754 182 867 q 52 488 52 640 q 113 219 52 333 q 282 43 174 106 q 534 -19 391 -19 m 379 1042 l 558 1137 l 738 1042 l 738 1134 l 558 1260 l 379 1134 l 379 1042 "},"Ģ":{"ha":928,"x_min":52,"x_max":860,"o":"m 534 -19 q 722 2 638 -19 q 860 54 806 24 l 860 488 l 564 488 l 564 356 l 709 356 l 709 144 q 631 127 672 132 q 558 122 590 122 q 367 169 443 122 q 255 299 292 217 q 217 488 217 382 q 254 672 217 590 q 366 802 290 754 q 559 851 442 851 q 694 835 631 851 q 813 797 758 820 l 828 935 q 706 975 776 959 q 557 992 635 992 q 296 930 410 992 q 117 754 182 867 q 52 488 52 640 q 113 219 52 333 q 282 43 174 106 q 534 -19 391 -19 m 550 -428 l 628 -262 l 628 -126 l 469 -126 l 469 -278 l 524 -278 l 474 -428 l 550 -428 "},"Ġ":{"ha":928,"x_min":52,"x_max":860,"o":"m 534 -19 q 722 2 638 -19 q 860 54 806 24 l 860 488 l 564 488 l 564 356 l 709 356 l 709 144 q 631 127 672 132 q 558 122 590 122 q 367 169 443 122 q 255 299 292 217 q 217 488 217 382 q 254 672 217 590 q 366 802 290 754 q 559 851 442 851 q 694 835 631 851 q 813 797 758 820 l 828 935 q 706 975 776 959 q 557 992 635 992 q 296 930 410 992 q 117 754 182 867 q 52 488 52 640 q 113 219 52 333 q 282 43 174 106 q 534 -19 391 -19 m 490 1099 l 627 1099 l 627 1228 l 490 1228 l 490 1099 "},"Ḡ":{"ha":928,"x_min":52,"x_max":860,"o":"m 534 -19 q 722 2 638 -19 q 860 54 806 24 l 860 488 l 564 488 l 564 356 l 709 356 l 709 144 q 631 127 672 132 q 558 122 590 122 q 367 169 443 122 q 255 299 292 217 q 217 488 217 382 q 254 672 217 590 q 366 802 290 754 q 559 851 442 851 q 694 835 631 851 q 813 797 758 820 l 828 935 q 706 975 776 959 q 557 992 635 992 q 296 930 410 992 q 117 754 182 867 q 52 488 52 640 q 113 219 52 333 q 282 43 174 106 q 534 -19 391 -19 m 334 1101 l 783 1101 l 783 1201 l 334 1201 l 334 1101 "},"H":{"ha":994,"x_min":109,"x_max":885,"o":"m 109 0 l 260 0 l 260 435 l 734 435 l 734 0 l 885 0 l 885 972 l 734 972 l 734 578 l 260 578 l 260 972 l 109 972 l 109 0 "},"Ħ":{"ha":1033,"x_min":15,"x_max":1017,"o":"m 109 0 l 260 0 l 260 435 l 772 435 l 772 0 l 923 0 l 923 972 l 772 972 l 772 581 l 260 581 l 260 972 l 109 972 l 109 0 m 15 686 l 1017 686 l 1017 793 l 15 793 l 15 686 "},"Ḫ":{"ha":994,"x_min":109,"x_max":885,"o":"m 109 0 l 260 0 l 260 435 l 734 435 l 734 0 l 885 0 l 885 972 l 734 972 l 734 578 l 260 578 l 260 972 l 109 972 l 109 0 "},"Ĥ":{"ha":994,"x_min":109,"x_max":885,"o":"m 109 0 l 260 0 l 260 435 l 734 435 l 734 0 l 885 0 l 885 972 l 734 972 l 734 578 l 260 578 l 260 972 l 109 972 l 109 0 m 318 1042 l 497 1137 l 676 1042 l 676 1134 l 497 1260 l 318 1134 l 318 1042 "},"Ḥ":{"ha":994,"x_min":109,"x_max":885,"o":"m 109 0 l 260 0 l 260 435 l 734 435 l 734 0 l 885 0 l 885 972 l 734 972 l 734 578 l 260 578 l 260 972 l 109 972 l 109 0 "},"I":{"ha":370,"x_min":109,"x_max":260,"o":"m 109 0 l 260 0 l 260 972 l 109 972 l 109 0 "},"Ĳ":{"ha":958,"x_min":98,"x_max":860,"o":"m 256 337 l 105 315 q 219 70 126 159 q 479 -19 311 -19 q 693 34 608 -19 q 818 184 777 87 q 860 415 860 281 l 860 972 l 708 972 l 708 454 q 700 327 708 387 q 667 220 691 267 q 597 148 642 174 q 479 122 552 122 q 358 150 403 122 q 288 226 312 178 q 256 337 265 275 m 98 454 l 249 454 l 249 972 l 98 972 l 98 454 "},"Í":{"ha":370,"x_min":53,"x_max":319,"o":"m 109 0 l 260 0 l 260 972 l 109 972 l 109 0 m 53 1058 l 319 1139 l 319 1277 l 53 1145 l 53 1058 "},"Ĭ":{"ha":370,"x_min":-22,"x_max":393,"o":"m 109 0 l 260 0 l 260 972 l 109 972 l 109 0 m 185 1062 q 300 1086 253 1062 q 369 1150 346 1110 q 393 1236 393 1190 l 279 1236 q 252 1173 279 1194 q 185 1151 226 1151 q 118 1173 145 1151 q 92 1236 92 1194 l -22 1236 q 1 1150 -22 1190 q 71 1086 25 1110 q 185 1062 117 1062 "},"Î":{"ha":370,"x_min":6,"x_max":365,"o":"m 109 0 l 260 0 l 260 972 l 109 972 l 109 0 m 6 1042 l 185 1137 l 365 1042 l 365 1134 l 185 1260 l 6 1134 l 6 1042 "},"Ȉ":{"ha":370,"x_min":-99,"x_max":334,"o":"m 109 0 l 260 0 l 260 972 l 109 972 l 109 0 m 334 1094 l 254 1305 l 108 1305 l 235 1094 l 334 1094 m 135 1094 l 47 1305 l -99 1305 l 36 1094 l 135 1094 "},"Ï":{"ha":370,"x_min":-13,"x_max":385,"o":"m 109 0 l 260 0 l 260 972 l 109 972 l 109 0 m -13 1097 l 112 1097 l 112 1207 l -13 1207 l -13 1097 m 259 1097 l 384 1097 l 384 1207 l 259 1207 l 259 1097 "},"Ḯ":{"ha":370,"x_min":-13,"x_max":385,"o":"m 109 0 l 260 0 l 260 972 l 109 972 l 109 0 m -13 1097 l 112 1097 l 112 1207 l -13 1207 l -13 1097 m 259 1097 l 384 1097 l 384 1207 l 259 1207 l 259 1097 m 53 1275 l 319 1356 l 319 1494 l 53 1362 l 53 1275 "},"İ":{"ha":370,"x_min":109,"x_max":260,"o":"m 109 0 l 260 0 l 260 972 l 109 972 l 109 0 m 117 1099 l 254 1099 l 254 1228 l 117 1228 l 117 1099 "},"Ị":{"ha":370,"x_min":109,"x_max":260,"o":"m 109 0 l 260 0 l 260 972 l 109 972 l 109 0 "},"Ì":{"ha":370,"x_min":52,"x_max":317,"o":"m 109 0 l 260 0 l 260 972 l 109 972 l 109 0 m 317 1058 l 317 1145 l 52 1277 l 52 1139 l 317 1058 "},"Ỉ":{"ha":370,"x_min":53,"x_max":302,"o":"m 109 0 l 260 0 l 260 972 l 109 972 l 109 0 m 182 1056 q 273 1098 244 1069 q 302 1174 302 1126 q 262 1256 302 1227 q 165 1284 222 1284 q 105 1277 133 1284 q 53 1258 77 1270 l 77 1181 q 120 1200 99 1192 q 163 1207 142 1207 q 203 1197 189 1207 q 218 1165 218 1187 q 205 1134 218 1146 q 168 1114 192 1122 l 182 1056 "},"Ȋ":{"ha":370,"x_min":-22,"x_max":393,"o":"m 109 0 l 260 0 l 260 972 l 109 972 l 109 0 m 185 1257 q 71 1233 117 1257 q 1 1169 25 1208 q -22 1083 -22 1129 l 92 1083 q 118 1146 92 1125 q 185 1167 145 1167 q 252 1146 226 1167 q 279 1083 279 1125 l 393 1083 q 369 1169 393 1129 q 300 1233 346 1208 q 185 1257 253 1257 "},"Ī":{"ha":370,"x_min":-39,"x_max":410,"o":"m 109 0 l 260 0 l 260 972 l 109 972 l 109 0 m -39 1101 l 410 1101 l 410 1201 l -39 1201 l -39 1101 "},"Į":{"ha":370,"x_min":69,"x_max":327,"o":"m 109 0 l 260 0 l 260 972 l 109 972 l 109 0 m 182 0 q 105 -70 142 -25 q 69 -170 69 -115 q 110 -260 69 -228 q 210 -291 151 -291 q 277 -283 248 -291 q 327 -264 307 -274 l 306 -192 q 265 -208 285 -202 q 219 -214 244 -214 q 171 -197 190 -214 q 153 -146 153 -180 q 183 -72 153 -108 q 260 0 213 -37 l 182 0 "},"Ĩ":{"ha":370,"x_min":-35,"x_max":406,"o":"m 109 0 l 260 0 l 260 972 l 109 972 l 109 0 m 303 1088 q 380 1125 353 1088 q 406 1230 406 1162 l 309 1230 q 263 1181 309 1181 q 203 1195 236 1181 q 135 1224 170 1210 q 68 1238 100 1238 q -8 1202 18 1238 q -35 1097 -35 1166 l 62 1097 q 108 1146 62 1146 q 168 1132 135 1146 q 236 1103 201 1117 q 303 1088 271 1088 "},"J":{"ha":370,"x_min":-18,"x_max":260,"o":"m -1 -239 l 40 -239 q 204 -186 148 -239 q 260 -14 260 -133 l 260 972 l 109 972 l 109 21 q 80 -79 109 -49 q -18 -108 50 -108 l -1 -239 "},"Ĵ":{"ha":370,"x_min":-18,"x_max":365,"o":"m -1 -239 l 40 -239 q 204 -186 148 -239 q 260 -14 260 -133 l 260 972 l 109 972 l 109 21 q 80 -79 109 -49 q -18 -108 50 -108 l -1 -239 m 6 1042 l 185 1137 l 365 1042 l 365 1134 l 185 1260 l 6 1134 l 6 1042 "},"K":{"ha":822,"x_min":109,"x_max":817,"o":"m 634 0 l 817 0 l 448 516 l 815 972 l 634 972 l 274 515 l 634 0 m 109 0 l 260 0 l 260 972 l 109 972 l 109 0 "},"Ķ":{"ha":822,"x_min":109,"x_max":817,"o":"m 634 0 l 817 0 l 448 516 l 815 972 l 634 972 l 274 515 l 634 0 m 109 0 l 260 0 l 260 972 l 109 972 l 109 0 m 463 -428 l 541 -262 l 541 -126 l 382 -126 l 382 -278 l 437 -278 l 386 -428 l 463 -428 "},"L":{"ha":695,"x_min":109,"x_max":687,"o":"m 109 0 l 687 0 l 687 136 l 260 136 l 260 972 l 109 972 l 109 0 "},"Ǉ":{"ha":1065,"x_min":109,"x_max":956,"o":"m 109 0 l 687 0 l 687 136 l 260 136 l 260 972 l 109 972 l 109 0 m 694 -239 l 735 -239 q 899 -186 843 -239 q 956 -14 956 -133 l 956 972 l 804 972 l 804 21 q 775 -79 804 -49 q 677 -108 745 -108 l 694 -239 "},"Ĺ":{"ha":695,"x_min":53,"x_max":687,"o":"m 109 0 l 687 0 l 687 136 l 260 136 l 260 972 l 109 972 l 109 0 m 53 1058 l 319 1139 l 319 1277 l 53 1145 l 53 1058 "},"Ľ":{"ha":695,"x_min":109,"x_max":687,"o":"m 109 0 l 687 0 l 687 136 l 260 136 l 260 972 l 109 972 l 109 0 m 553 735 l 647 735 l 687 972 l 553 972 l 553 735 "},"Ļ":{"ha":695,"x_min":109,"x_max":687,"o":"m 109 0 l 687 0 l 687 136 l 260 136 l 260 972 l 109 972 l 109 0 m 401 -428 l 479 -262 l 479 -126 l 320 -126 l 320 -278 l 375 -278 l 324 -428 l 401 -428 "},"Ŀ":{"ha":695,"x_min":109,"x_max":687,"o":"m 109 0 l 687 0 l 687 136 l 260 136 l 260 972 l 109 972 l 109 0 m 456 459 l 610 459 l 610 617 l 456 617 l 456 459 "},"Ḷ":{"ha":695,"x_min":109,"x_max":687,"o":"m 109 0 l 687 0 l 687 136 l 260 136 l 260 972 l 109 972 l 109 0 "},"ǈ":{"ha":1006,"x_min":109,"x_max":923,"o":"m 109 0 l 687 0 l 687 136 l 260 136 l 260 972 l 109 972 l 109 0 m 699 -336 l 746 -332 q 832 -312 792 -329 q 898 -258 872 -296 q 923 -151 923 -219 l 923 686 l 778 686 l 778 -94 q 770 -170 778 -143 q 742 -208 763 -197 q 684 -221 722 -219 l 699 -336 m 778 819 l 923 819 l 923 972 l 778 972 l 778 819 "},"Ḻ":{"ha":695,"x_min":109,"x_max":687,"o":"m 109 0 l 687 0 l 687 136 l 260 136 l 260 972 l 109 972 l 109 0 "},"Ł":{"ha":695,"x_min":15,"x_max":687,"o":"m 109 0 l 687 0 l 687 142 l 260 142 l 260 972 l 109 972 l 109 0 m 15 497 l 550 639 l 550 751 l 15 610 l 15 497 "},"M":{"ha":1140,"x_min":65,"x_max":1076,"o":"m 65 0 l 223 0 l 319 766 l 278 758 l 572 219 l 862 759 l 822 767 l 917 0 l 1076 0 l 944 972 l 817 972 l 571 507 l 324 972 l 197 972 l 65 0 "},"Ṃ":{"ha":1140,"x_min":65,"x_max":1076,"o":"m 65 0 l 223 0 l 319 766 l 278 758 l 572 219 l 862 759 l 822 767 l 917 0 l 1076 0 l 944 972 l 817 972 l 571 507 l 324 972 l 197 972 l 65 0 "},"N":{"ha":980,"x_min":109,"x_max":870,"o":"m 109 0 l 260 0 l 260 725 l 744 0 l 870 0 l 870 972 l 718 972 l 718 287 l 266 972 l 109 972 l 109 0 "},"Ǌ":{"ha":1349,"x_min":109,"x_max":1240,"o":"m 109 0 l 260 0 l 260 725 l 744 0 l 870 0 l 870 972 l 718 972 l 718 287 l 266 972 l 109 972 l 109 0 m 978 -239 l 1020 -239 q 1184 -186 1128 -239 q 1240 -14 1240 -133 l 1240 972 l 1089 972 l 1089 21 q 1059 -79 1089 -49 q 962 -108 1030 -108 l 978 -239 "},"Ń":{"ha":980,"x_min":109,"x_max":870,"o":"m 109 0 l 260 0 l 260 725 l 744 0 l 870 0 l 870 972 l 718 972 l 718 287 l 266 972 l 109 972 l 109 0 m 360 1058 l 626 1139 l 626 1277 l 360 1145 l 360 1058 "},"Ň":{"ha":980,"x_min":109,"x_max":870,"o":"m 109 0 l 260 0 l 260 725 l 744 0 l 870 0 l 870 972 l 718 972 l 718 287 l 266 972 l 109 972 l 109 0 "},"Ņ":{"ha":980,"x_min":109,"x_max":870,"o":"m 109 0 l 260 0 l 260 725 l 744 0 l 870 0 l 870 972 l 718 972 l 718 287 l 266 972 l 109 972 l 109 0 m 505 -428 l 583 -262 l 583 -126 l 424 -126 l 424 -278 l 479 -278 l 428 -428 l 505 -428 "},"Ṅ":{"ha":980,"x_min":109,"x_max":870,"o":"m 109 0 l 260 0 l 260 725 l 744 0 l 870 0 l 870 972 l 718 972 l 718 287 l 266 972 l 109 972 l 109 0 m 424 1099 l 561 1099 l 561 1228 l 424 1228 l 424 1099 "},"Ṇ":{"ha":980,"x_min":109,"x_max":870,"o":"m 109 0 l 260 0 l 260 725 l 744 0 l 870 0 l 870 972 l 718 972 l 718 287 l 266 972 l 109 972 l 109 0 "},"Ŋ":{"ha":991,"x_min":109,"x_max":899,"o":"m 899 69 l 899 614 q 859 812 899 727 q 740 944 819 897 q 542 992 661 992 q 380 963 456 992 q 247 879 304 935 l 238 972 l 109 972 l 109 0 l 262 0 l 262 751 q 360 823 299 796 q 506 851 422 851 q 686 784 626 851 q 747 594 747 717 l 747 57 q 698 -82 747 -35 q 568 -128 649 -128 q 516 -125 542 -128 q 465 -116 490 -122 l 447 -253 q 563 -269 503 -269 q 737 -232 661 -269 q 856 -120 813 -195 q 899 69 899 -45 "},"ǋ":{"ha":1278,"x_min":109,"x_max":1195,"o":"m 109 0 l 260 0 l 260 725 l 744 0 l 870 0 l 870 972 l 718 972 l 718 287 l 266 972 l 109 972 l 109 0 m 971 -336 l 1018 -332 q 1104 -312 1064 -329 q 1170 -258 1144 -296 q 1195 -151 1195 -219 l 1195 686 l 1050 686 l 1050 -94 q 1042 -170 1050 -143 q 1014 -208 1035 -197 q 956 -221 994 -219 l 971 -336 m 1050 819 l 1195 819 l 1195 972 l 1050 972 l 1050 819 "},"Ṉ":{"ha":980,"x_min":109,"x_max":870,"o":"m 109 0 l 260 0 l 260 725 l 744 0 l 870 0 l 870 972 l 718 972 l 718 287 l 266 972 l 109 972 l 109 0 "},"Ñ":{"ha":980,"x_min":109,"x_max":870,"o":"m 109 0 l 260 0 l 260 725 l 744 0 l 870 0 l 870 972 l 718 972 l 718 287 l 266 972 l 109 972 l 109 0 m 610 1088 q 686 1125 660 1088 q 713 1230 713 1162 l 616 1230 q 569 1181 616 1181 q 510 1195 543 1181 q 442 1224 477 1210 q 375 1238 407 1238 q 299 1202 325 1238 q 272 1097 272 1166 l 369 1097 q 415 1146 369 1146 q 475 1132 442 1146 q 543 1103 508 1117 q 610 1088 578 1088 "},"O":{"ha":1064,"x_min":53,"x_max":1011,"o":"m 532 -19 q 779 43 671 -19 q 949 219 888 106 q 1011 486 1011 333 q 949 753 1011 640 q 779 929 888 867 q 532 992 671 992 q 285 929 393 992 q 115 753 176 867 q 53 486 53 640 q 115 219 53 333 q 285 43 176 106 q 532 -19 393 -19 m 532 127 q 356 174 426 127 q 249 303 285 222 q 213 486 213 385 q 249 669 213 588 q 356 798 285 751 q 532 845 426 845 q 708 798 638 845 q 815 669 779 751 q 851 486 851 588 q 815 303 851 385 q 708 174 779 222 q 532 127 638 127 "},"Ó":{"ha":1064,"x_min":53,"x_max":1011,"o":"m 532 -19 q 779 43 671 -19 q 949 219 888 106 q 1011 486 1011 333 q 949 753 1011 640 q 779 929 888 867 q 532 992 671 992 q 285 929 393 992 q 115 753 176 867 q 53 486 53 640 q 115 219 53 333 q 285 43 176 106 q 532 -19 393 -19 m 532 127 q 356 174 426 127 q 249 303 285 222 q 213 486 213 385 q 249 669 213 588 q 356 798 285 751 q 532 845 426 845 q 708 798 638 845 q 815 669 779 751 q 851 486 851 588 q 815 303 851 385 q 708 174 779 222 q 532 127 638 127 m 400 1058 l 665 1139 l 665 1277 l 400 1145 l 400 1058 "},"Ŏ":{"ha":1064,"x_min":53,"x_max":1011,"o":"m 532 -19 q 779 43 671 -19 q 949 219 888 106 q 1011 486 1011 333 q 949 753 1011 640 q 779 929 888 867 q 532 992 671 992 q 285 929 393 992 q 115 753 176 867 q 53 486 53 640 q 115 219 53 333 q 285 43 176 106 q 532 -19 393 -19 m 532 127 q 356 174 426 127 q 249 303 285 222 q 213 486 213 385 q 249 669 213 588 q 356 798 285 751 q 532 845 426 845 q 708 798 638 845 q 815 669 779 751 q 851 486 851 588 q 815 303 851 385 q 708 174 779 222 q 532 127 638 127 m 532 1062 q 646 1086 600 1062 q 716 1150 692 1110 q 740 1236 740 1190 l 626 1236 q 599 1173 626 1194 q 532 1151 572 1151 q 465 1173 492 1151 q 438 1236 438 1194 l 324 1236 q 348 1150 324 1190 q 418 1086 372 1110 q 532 1062 464 1062 "},"Ô":{"ha":1064,"x_min":53,"x_max":1011,"o":"m 532 -19 q 779 43 671 -19 q 949 219 888 106 q 1011 486 1011 333 q 949 753 1011 640 q 779 929 888 867 q 532 992 671 992 q 285 929 393 992 q 115 753 176 867 q 53 486 53 640 q 115 219 53 333 q 285 43 176 106 q 532 -19 393 -19 m 532 127 q 356 174 426 127 q 249 303 285 222 q 213 486 213 385 q 249 669 213 588 q 356 798 285 751 q 532 845 426 845 q 708 798 638 845 q 815 669 779 751 q 851 486 851 588 q 815 303 851 385 q 708 174 779 222 q 532 127 638 127 m 353 1042 l 532 1137 l 711 1042 l 711 1134 l 532 1260 l 353 1134 l 353 1042 "},"Ố":{"ha":1064,"x_min":53,"x_max":1011,"o":"m 532 -19 q 779 43 671 -19 q 949 219 888 106 q 1011 486 1011 333 q 949 753 1011 640 q 779 929 888 867 q 532 992 671 992 q 285 929 393 992 q 115 753 176 867 q 53 486 53 640 q 115 219 53 333 q 285 43 176 106 q 532 -19 393 -19 m 532 127 q 356 174 426 127 q 249 303 285 222 q 213 486 213 385 q 249 669 213 588 q 356 798 285 751 q 532 845 426 845 q 708 798 638 845 q 815 669 779 751 q 851 486 851 588 q 815 303 851 385 q 708 174 779 222 q 532 127 638 127 m 353 1042 l 532 1137 l 711 1042 l 711 1134 l 532 1260 l 353 1134 l 353 1042 m 637 1247 l 736 1247 l 874 1415 l 728 1415 l 637 1247 "},"Ộ":{"ha":1064,"x_min":53,"x_max":1011,"o":"m 532 -19 q 779 43 671 -19 q 949 219 888 106 q 1011 486 1011 333 q 949 753 1011 640 q 779 929 888 867 q 532 992 671 992 q 285 929 393 992 q 115 753 176 867 q 53 486 53 640 q 115 219 53 333 q 285 43 176 106 q 532 -19 393 -19 m 532 127 q 356 174 426 127 q 249 303 285 222 q 213 486 213 385 q 249 669 213 588 q 356 798 285 751 q 532 845 426 845 q 708 798 638 845 q 815 669 779 751 q 851 486 851 588 q 815 303 851 385 q 708 174 779 222 q 532 127 638 127 m 353 1064 l 532 1176 l 711 1064 l 711 1159 l 532 1313 l 353 1159 l 353 1064 "},"Ồ":{"ha":1064,"x_min":53,"x_max":1011,"o":"m 532 -19 q 779 43 671 -19 q 949 219 888 106 q 1011 486 1011 333 q 949 753 1011 640 q 779 929 888 867 q 532 992 671 992 q 285 929 393 992 q 115 753 176 867 q 53 486 53 640 q 115 219 53 333 q 285 43 176 106 q 532 -19 393 -19 m 532 127 q 356 174 426 127 q 249 303 285 222 q 213 486 213 385 q 249 669 213 588 q 356 798 285 751 q 532 845 426 845 q 708 798 638 845 q 815 669 779 751 q 851 486 851 588 q 815 303 851 385 q 708 174 779 222 q 532 127 638 127 m 353 1042 l 532 1137 l 711 1042 l 711 1134 l 532 1260 l 353 1134 l 353 1042 m 661 1247 l 757 1247 l 682 1415 l 543 1415 l 661 1247 "},"Ổ":{"ha":1064,"x_min":53,"x_max":1011,"o":"m 532 -19 q 779 43 671 -19 q 949 219 888 106 q 1011 486 1011 333 q 949 753 1011 640 q 779 929 888 867 q 532 992 671 992 q 285 929 393 992 q 115 753 176 867 q 53 486 53 640 q 115 219 53 333 q 285 43 176 106 q 532 -19 393 -19 m 532 127 q 356 174 426 127 q 249 303 285 222 q 213 486 213 385 q 249 669 213 588 q 356 798 285 751 q 532 845 426 845 q 708 798 638 845 q 815 669 779 751 q 851 486 851 588 q 815 303 851 385 q 708 174 779 222 q 532 127 638 127 m 353 1042 l 532 1137 l 711 1042 l 711 1134 l 532 1260 l 353 1134 l 353 1042 m 665 1211 q 757 1253 728 1225 q 785 1329 785 1282 q 745 1411 785 1383 q 648 1440 706 1440 q 589 1433 617 1440 q 537 1413 560 1426 l 560 1336 q 604 1355 582 1348 q 647 1363 626 1363 q 687 1352 672 1363 q 701 1321 701 1342 q 689 1289 701 1301 q 651 1269 676 1277 l 665 1211 "},"Ỗ":{"ha":1064,"x_min":53,"x_max":1011,"o":"m 532 -19 q 779 43 671 -19 q 949 219 888 106 q 1011 486 1011 333 q 949 753 1011 640 q 779 929 888 867 q 532 992 671 992 q 285 929 393 992 q 115 753 176 867 q 53 486 53 640 q 115 219 53 333 q 285 43 176 106 q 532 -19 393 -19 m 532 127 q 356 174 426 127 q 249 303 285 222 q 213 486 213 385 q 249 669 213 588 q 356 798 285 751 q 532 845 426 845 q 708 798 638 845 q 815 669 779 751 q 851 486 851 588 q 815 303 851 385 q 708 174 779 222 q 532 127 638 127 m 353 1042 l 532 1137 l 711 1042 l 711 1134 l 532 1260 l 353 1134 l 353 1042 m 649 1314 q 726 1351 700 1314 q 752 1456 752 1388 l 656 1456 q 609 1406 656 1406 q 550 1421 583 1406 q 482 1450 517 1435 q 415 1464 447 1464 q 338 1428 365 1464 q 312 1322 312 1392 l 408 1322 q 455 1372 408 1372 q 514 1357 481 1372 q 582 1328 547 1343 q 649 1314 617 1314 "},"Ȍ":{"ha":1064,"x_min":53,"x_max":1011,"o":"m 532 -19 q 779 43 671 -19 q 949 219 888 106 q 1011 486 1011 333 q 949 753 1011 640 q 779 929 888 867 q 532 992 671 992 q 285 929 393 992 q 115 753 176 867 q 53 486 53 640 q 115 219 53 333 q 285 43 176 106 q 532 -19 393 -19 m 532 127 q 356 174 426 127 q 249 303 285 222 q 213 486 213 385 q 249 669 213 588 q 356 798 285 751 q 532 845 426 845 q 708 798 638 845 q 815 669 779 751 q 851 486 851 588 q 815 303 851 385 q 708 174 779 222 q 532 127 638 127 m 681 1094 l 601 1305 l 455 1305 l 581 1094 l 681 1094 m 482 1094 l 394 1305 l 248 1305 l 383 1094 l 482 1094 "},"Ö":{"ha":1064,"x_min":53,"x_max":1011,"o":"m 532 -19 q 779 43 671 -19 q 949 219 888 106 q 1011 486 1011 333 q 949 753 1011 640 q 779 929 888 867 q 532 992 671 992 q 285 929 393 992 q 115 753 176 867 q 53 486 53 640 q 115 219 53 333 q 285 43 176 106 q 532 -19 393 -19 m 532 127 q 356 174 426 127 q 249 303 285 222 q 213 486 213 385 q 249 669 213 588 q 356 798 285 751 q 532 845 426 845 q 708 798 638 845 q 815 669 779 751 q 851 486 851 588 q 815 303 851 385 q 708 174 779 222 q 532 127 638 127 m 333 1097 l 458 1097 l 458 1207 l 333 1207 l 333 1097 m 606 1097 l 731 1097 l 731 1207 l 606 1207 l 606 1097 "},"Ȫ":{"ha":1064,"x_min":53,"x_max":1011,"o":"m 532 -19 q 779 43 671 -19 q 949 219 888 106 q 1011 486 1011 333 q 949 753 1011 640 q 779 929 888 867 q 532 992 671 992 q 285 929 393 992 q 115 753 176 867 q 53 486 53 640 q 115 219 53 333 q 285 43 176 106 q 532 -19 393 -19 m 532 127 q 356 174 426 127 q 249 303 285 222 q 213 486 213 385 q 249 669 213 588 q 356 798 285 751 q 532 845 426 845 q 708 798 638 845 q 815 669 779 751 q 851 486 851 588 q 815 303 851 385 q 708 174 779 222 q 532 127 638 127 m 333 1097 l 458 1097 l 458 1207 l 333 1207 l 333 1097 m 606 1097 l 731 1097 l 731 1207 l 606 1207 l 606 1097 m 308 1317 l 756 1317 l 756 1417 l 308 1417 l 308 1317 "},"Ȱ":{"ha":1064,"x_min":53,"x_max":1011,"o":"m 532 -19 q 779 43 671 -19 q 949 219 888 106 q 1011 486 1011 333 q 949 753 1011 640 q 779 929 888 867 q 532 992 671 992 q 285 929 393 992 q 115 753 176 867 q 53 486 53 640 q 115 219 53 333 q 285 43 176 106 q 532 -19 393 -19 m 532 127 q 356 174 426 127 q 249 303 285 222 q 213 486 213 385 q 249 669 213 588 q 356 798 285 751 q 532 845 426 845 q 708 798 638 845 q 815 669 779 751 q 851 486 851 588 q 815 303 851 385 q 708 174 779 222 q 532 127 638 127 m 463 1099 l 601 1099 l 601 1228 l 463 1228 l 463 1099 m 308 1340 l 756 1340 l 756 1439 l 308 1439 l 308 1340 "},"Ọ":{"ha":1064,"x_min":53,"x_max":1011,"o":"m 532 -19 q 779 43 671 -19 q 949 219 888 106 q 1011 486 1011 333 q 949 753 1011 640 q 779 929 888 867 q 532 992 671 992 q 285 929 393 992 q 115 753 176 867 q 53 486 53 640 q 115 219 53 333 q 285 43 176 106 q 532 -19 393 -19 m 532 127 q 356 174 426 127 q 249 303 285 222 q 213 486 213 385 q 249 669 213 588 q 356 798 285 751 q 532 845 426 845 q 708 798 638 845 q 815 669 779 751 q 851 486 851 588 q 815 303 851 385 q 708 174 779 222 q 532 127 638 127 "},"Ò":{"ha":1064,"x_min":53,"x_max":1011,"o":"m 532 -19 q 779 43 671 -19 q 949 219 888 106 q 1011 486 1011 333 q 949 753 1011 640 q 779 929 888 867 q 532 992 671 992 q 285 929 393 992 q 115 753 176 867 q 53 486 53 640 q 115 219 53 333 q 285 43 176 106 q 532 -19 393 -19 m 532 127 q 356 174 426 127 q 249 303 285 222 q 213 486 213 385 q 249 669 213 588 q 356 798 285 751 q 532 845 426 845 q 708 798 638 845 q 815 669 779 751 q 851 486 851 588 q 815 303 851 385 q 708 174 779 222 q 532 127 638 127 m 664 1058 l 664 1145 l 399 1277 l 399 1139 l 664 1058 "},"Ỏ":{"ha":1064,"x_min":53,"x_max":1011,"o":"m 532 -19 q 779 43 671 -19 q 949 219 888 106 q 1011 486 1011 333 q 949 753 1011 640 q 779 929 888 867 q 532 992 671 992 q 285 929 393 992 q 115 753 176 867 q 53 486 53 640 q 115 219 53 333 q 285 43 176 106 q 532 -19 393 -19 m 532 127 q 356 174 426 127 q 249 303 285 222 q 213 486 213 385 q 249 669 213 588 q 356 798 285 751 q 532 845 426 845 q 708 798 638 845 q 815 669 779 751 q 851 486 851 588 q 815 303 851 385 q 708 174 779 222 q 532 127 638 127 m 528 1056 q 620 1098 591 1069 q 649 1174 649 1126 q 609 1256 649 1227 q 511 1284 569 1284 q 452 1277 480 1284 q 400 1258 424 1270 l 424 1181 q 467 1200 445 1192 q 510 1207 488 1207 q 550 1197 535 1207 q 565 1165 565 1187 q 552 1134 565 1146 q 515 1114 539 1122 l 528 1056 "},"Ơ":{"ha":1064,"x_min":53,"x_max":1011,"o":"m 532 -19 q 779 43 671 -19 q 949 219 888 106 q 1011 486 1011 333 q 949 753 1011 640 q 779 929 888 867 q 532 992 671 992 q 285 929 393 992 q 115 753 176 867 q 53 486 53 640 q 115 219 53 333 q 285 43 176 106 q 532 -19 393 -19 m 532 127 q 356 174 426 127 q 249 303 285 222 q 213 486 213 385 q 249 669 213 588 q 356 798 285 751 q 532 845 426 845 q 708 798 638 845 q 815 669 779 751 q 851 486 851 588 q 815 303 851 385 q 708 174 779 222 q 532 127 638 127 m 667 869 q 788 896 733 869 q 876 970 842 923 q 910 1075 910 1017 l 778 1075 q 749 996 778 1020 q 667 972 719 972 l 667 869 "},"Ớ":{"ha":1064,"x_min":53,"x_max":1011,"o":"m 532 -19 q 779 43 671 -19 q 949 219 888 106 q 1011 486 1011 333 q 949 753 1011 640 q 779 929 888 867 q 532 992 671 992 q 285 929 393 992 q 115 753 176 867 q 53 486 53 640 q 115 219 53 333 q 285 43 176 106 q 532 -19 393 -19 m 532 127 q 356 174 426 127 q 249 303 285 222 q 213 486 213 385 q 249 669 213 588 q 356 798 285 751 q 532 845 426 845 q 708 798 638 845 q 815 669 779 751 q 851 486 851 588 q 815 303 851 385 q 708 174 779 222 q 532 127 638 127 m 667 869 q 788 896 733 869 q 876 970 842 923 q 910 1075 910 1017 l 778 1075 q 749 996 778 1020 q 667 972 719 972 l 667 869 m 400 1058 l 665 1139 l 665 1277 l 400 1145 l 400 1058 "},"Ợ":{"ha":1064,"x_min":53,"x_max":1011,"o":"m 532 -19 q 779 43 671 -19 q 949 219 888 106 q 1011 486 1011 333 q 949 753 1011 640 q 779 929 888 867 q 532 992 671 992 q 285 929 393 992 q 115 753 176 867 q 53 486 53 640 q 115 219 53 333 q 285 43 176 106 q 532 -19 393 -19 m 532 127 q 356 174 426 127 q 249 303 285 222 q 213 486 213 385 q 249 669 213 588 q 356 798 285 751 q 532 845 426 845 q 708 798 638 845 q 815 669 779 751 q 851 486 851 588 q 815 303 851 385 q 708 174 779 222 q 532 127 638 127 m 667 869 q 788 896 733 869 q 876 970 842 923 q 910 1075 910 1017 l 778 1075 q 749 996 778 1020 q 667 972 719 972 l 667 869 "},"Ờ":{"ha":1064,"x_min":53,"x_max":1011,"o":"m 532 -19 q 779 43 671 -19 q 949 219 888 106 q 1011 486 1011 333 q 949 753 1011 640 q 779 929 888 867 q 532 992 671 992 q 285 929 393 992 q 115 753 176 867 q 53 486 53 640 q 115 219 53 333 q 285 43 176 106 q 532 -19 393 -19 m 532 127 q 356 174 426 127 q 249 303 285 222 q 213 486 213 385 q 249 669 213 588 q 356 798 285 751 q 532 845 426 845 q 708 798 638 845 q 815 669 779 751 q 851 486 851 588 q 815 303 851 385 q 708 174 779 222 q 532 127 638 127 m 667 869 q 788 896 733 869 q 876 970 842 923 q 910 1075 910 1017 l 778 1075 q 749 996 778 1020 q 667 972 719 972 l 667 869 m 664 1058 l 664 1145 l 399 1277 l 399 1139 l 664 1058 "},"Ở":{"ha":1064,"x_min":53,"x_max":1011,"o":"m 532 -19 q 779 43 671 -19 q 949 219 888 106 q 1011 486 1011 333 q 949 753 1011 640 q 779 929 888 867 q 532 992 671 992 q 285 929 393 992 q 115 753 176 867 q 53 486 53 640 q 115 219 53 333 q 285 43 176 106 q 532 -19 393 -19 m 532 127 q 356 174 426 127 q 249 303 285 222 q 213 486 213 385 q 249 669 213 588 q 356 798 285 751 q 532 845 426 845 q 708 798 638 845 q 815 669 779 751 q 851 486 851 588 q 815 303 851 385 q 708 174 779 222 q 532 127 638 127 m 667 869 q 788 896 733 869 q 876 970 842 923 q 910 1075 910 1017 l 778 1075 q 749 996 778 1020 q 667 972 719 972 l 667 869 m 528 1056 q 620 1098 591 1069 q 649 1174 649 1126 q 609 1256 649 1227 q 511 1284 569 1284 q 452 1277 480 1284 q 400 1258 424 1270 l 424 1181 q 467 1200 445 1192 q 510 1207 488 1207 q 550 1197 535 1207 q 565 1165 565 1187 q 552 1134 565 1146 q 515 1114 539 1122 l 528 1056 "},"Ỡ":{"ha":1064,"x_min":53,"x_max":1011,"o":"m 532 -19 q 779 43 671 -19 q 949 219 888 106 q 1011 486 1011 333 q 949 753 1011 640 q 779 929 888 867 q 532 992 671 992 q 285 929 393 992 q 115 753 176 867 q 53 486 53 640 q 115 219 53 333 q 285 43 176 106 q 532 -19 393 -19 m 532 127 q 356 174 426 127 q 249 303 285 222 q 213 486 213 385 q 249 669 213 588 q 356 798 285 751 q 532 845 426 845 q 708 798 638 845 q 815 669 779 751 q 851 486 851 588 q 815 303 851 385 q 708 174 779 222 q 532 127 638 127 m 667 869 q 788 896 733 869 q 876 970 842 923 q 910 1075 910 1017 l 778 1075 q 749 996 778 1020 q 667 972 719 972 l 667 869 m 649 1088 q 726 1125 700 1088 q 752 1230 752 1162 l 656 1230 q 609 1181 656 1181 q 550 1195 583 1181 q 482 1224 517 1210 q 415 1238 447 1238 q 338 1202 365 1238 q 312 1097 312 1166 l 408 1097 q 455 1146 408 1146 q 514 1132 481 1146 q 582 1103 547 1117 q 649 1088 617 1088 "},"Ő":{"ha":1064,"x_min":53,"x_max":1011,"o":"m 532 -19 q 779 43 671 -19 q 949 219 888 106 q 1011 486 1011 333 q 949 753 1011 640 q 779 929 888 867 q 532 992 671 992 q 285 929 393 992 q 115 753 176 867 q 53 486 53 640 q 115 219 53 333 q 285 43 176 106 q 532 -19 393 -19 m 532 127 q 356 174 426 127 q 249 303 285 222 q 213 486 213 385 q 249 669 213 588 q 356 798 285 751 q 532 845 426 845 q 708 798 638 845 q 815 669 779 751 q 851 486 851 588 q 815 303 851 385 q 708 174 779 222 q 532 127 638 127 m 380 1094 l 479 1094 l 617 1305 l 472 1305 l 380 1094 m 578 1094 l 678 1094 l 825 1305 l 678 1305 l 578 1094 "},"Ȏ":{"ha":1064,"x_min":53,"x_max":1011,"o":"m 532 -19 q 779 43 671 -19 q 949 219 888 106 q 1011 486 1011 333 q 949 753 1011 640 q 779 929 888 867 q 532 992 671 992 q 285 929 393 992 q 115 753 176 867 q 53 486 53 640 q 115 219 53 333 q 285 43 176 106 q 532 -19 393 -19 m 532 127 q 356 174 426 127 q 249 303 285 222 q 213 486 213 385 q 249 669 213 588 q 356 798 285 751 q 532 845 426 845 q 708 798 638 845 q 815 669 779 751 q 851 486 851 588 q 815 303 851 385 q 708 174 779 222 q 532 127 638 127 m 532 1257 q 418 1233 464 1257 q 348 1169 372 1208 q 324 1083 324 1129 l 438 1083 q 465 1146 438 1125 q 532 1167 492 1167 q 599 1146 572 1167 q 626 1083 626 1125 l 740 1083 q 716 1169 740 1129 q 646 1233 692 1208 q 532 1257 600 1257 "},"Ō":{"ha":1064,"x_min":53,"x_max":1011,"o":"m 532 -19 q 779 43 671 -19 q 949 219 888 106 q 1011 486 1011 333 q 949 753 1011 640 q 779 929 888 867 q 532 992 671 992 q 285 929 393 992 q 115 753 176 867 q 53 486 53 640 q 115 219 53 333 q 285 43 176 106 q 532 -19 393 -19 m 532 127 q 356 174 426 127 q 249 303 285 222 q 213 486 213 385 q 249 669 213 588 q 356 798 285 751 q 532 845 426 845 q 708 798 638 845 q 815 669 779 751 q 851 486 851 588 q 815 303 851 385 q 708 174 779 222 q 532 127 638 127 m 308 1101 l 756 1101 l 756 1201 l 308 1201 l 308 1101 "},"Ṓ":{"ha":1064,"x_min":53,"x_max":1011,"o":"m 532 -19 q 779 43 671 -19 q 949 219 888 106 q 1011 486 1011 333 q 949 753 1011 640 q 779 929 888 867 q 532 992 671 992 q 285 929 393 992 q 115 753 176 867 q 53 486 53 640 q 115 219 53 333 q 285 43 176 106 q 532 -19 393 -19 m 532 127 q 356 174 426 127 q 249 303 285 222 q 213 486 213 385 q 249 669 213 588 q 356 798 285 751 q 532 845 426 845 q 708 798 638 845 q 815 669 779 751 q 851 486 851 588 q 815 303 851 385 q 708 174 779 222 q 532 127 638 127 m 308 1101 l 756 1101 l 756 1201 l 308 1201 l 308 1101 m 400 1297 l 665 1378 l 665 1516 l 400 1384 l 400 1297 "},"Ṑ":{"ha":1064,"x_min":53,"x_max":1011,"o":"m 532 -19 q 779 43 671 -19 q 949 219 888 106 q 1011 486 1011 333 q 949 753 1011 640 q 779 929 888 867 q 532 992 671 992 q 285 929 393 992 q 115 753 176 867 q 53 486 53 640 q 115 219 53 333 q 285 43 176 106 q 532 -19 393 -19 m 532 127 q 356 174 426 127 q 249 303 285 222 q 213 486 213 385 q 249 669 213 588 q 356 798 285 751 q 532 845 426 845 q 708 798 638 845 q 815 669 779 751 q 851 486 851 588 q 815 303 851 385 q 708 174 779 222 q 532 127 638 127 m 308 1101 l 756 1101 l 756 1201 l 308 1201 l 308 1101 m 664 1297 l 664 1384 l 399 1516 l 399 1378 l 664 1297 "},"Ǫ":{"ha":1064,"x_min":53,"x_max":1011,"o":"m 532 -19 q 779 43 671 -19 q 949 219 888 106 q 1011 486 1011 333 q 949 753 1011 640 q 779 929 888 867 q 532 992 671 992 q 285 929 393 992 q 115 753 176 867 q 53 486 53 640 q 115 219 53 333 q 285 43 176 106 q 532 -19 393 -19 m 532 127 q 356 174 426 127 q 249 303 285 222 q 213 486 213 385 q 249 669 213 588 q 356 798 285 751 q 532 845 426 845 q 708 798 638 845 q 815 669 779 751 q 851 486 851 588 q 815 303 851 385 q 708 174 779 222 q 532 127 638 127 m 574 0 q 497 -70 533 -25 q 460 -170 460 -115 q 501 -260 460 -228 q 601 -291 542 -291 q 669 -283 640 -291 q 719 -264 699 -274 l 697 -192 q 656 -208 677 -202 q 611 -214 635 -214 q 563 -197 581 -214 q 544 -146 544 -180 q 574 -72 544 -108 q 652 0 604 -37 l 574 0 "},"Ø":{"ha":1064,"x_min":53,"x_max":1011,"o":"m 92 -61 l 224 -61 l 972 1033 l 840 1033 l 92 -61 m 532 -19 q 779 43 671 -19 q 949 219 888 106 q 1011 486 1011 333 q 949 753 1011 640 q 779 929 888 867 q 532 992 671 992 q 285 929 393 992 q 115 753 176 867 q 53 486 53 640 q 115 219 53 333 q 285 43 176 106 q 532 -19 393 -19 m 532 127 q 356 174 426 127 q 249 303 285 222 q 213 486 213 385 q 249 669 213 588 q 356 798 285 751 q 532 845 426 845 q 708 798 638 845 q 815 669 779 751 q 851 486 851 588 q 815 303 851 385 q 708 174 779 222 q 532 127 638 127 "},"Ǿ":{"ha":1064,"x_min":53,"x_max":1011,"o":"m 92 -61 l 224 -61 l 972 1033 l 840 1033 l 92 -61 m 532 -19 q 779 43 671 -19 q 949 219 888 106 q 1011 486 1011 333 q 949 753 1011 640 q 779 929 888 867 q 532 992 671 992 q 285 929 393 992 q 115 753 176 867 q 53 486 53 640 q 115 219 53 333 q 285 43 176 106 q 532 -19 393 -19 m 532 127 q 356 174 426 127 q 249 303 285 222 q 213 486 213 385 q 249 669 213 588 q 356 798 285 751 q 532 845 426 845 q 708 798 638 845 q 815 669 779 751 q 851 486 851 588 q 815 303 851 385 q 708 174 779 222 q 532 127 638 127 m 399 1058 l 665 1139 l 665 1277 l 399 1145 l 399 1058 "},"Õ":{"ha":1064,"x_min":53,"x_max":1011,"o":"m 532 -19 q 779 43 671 -19 q 949 219 888 106 q 1011 486 1011 333 q 949 753 1011 640 q 779 929 888 867 q 532 992 671 992 q 285 929 393 992 q 115 753 176 867 q 53 486 53 640 q 115 219 53 333 q 285 43 176 106 q 532 -19 393 -19 m 532 127 q 356 174 426 127 q 249 303 285 222 q 213 486 213 385 q 249 669 213 588 q 356 798 285 751 q 532 845 426 845 q 708 798 638 845 q 815 669 779 751 q 851 486 851 588 q 815 303 851 385 q 708 174 779 222 q 532 127 638 127 m 649 1088 q 726 1125 700 1088 q 752 1230 752 1162 l 656 1230 q 609 1181 656 1181 q 550 1195 583 1181 q 482 1224 517 1210 q 415 1238 447 1238 q 338 1202 365 1238 q 312 1097 312 1166 l 408 1097 q 455 1146 408 1146 q 514 1132 481 1146 q 582 1103 547 1117 q 649 1088 617 1088 "},"Ṍ":{"ha":1064,"x_min":53,"x_max":1011,"o":"m 532 -19 q 779 43 671 -19 q 949 219 888 106 q 1011 486 1011 333 q 949 753 1011 640 q 779 929 888 867 q 532 992 671 992 q 285 929 393 992 q 115 753 176 867 q 53 486 53 640 q 115 219 53 333 q 285 43 176 106 q 532 -19 393 -19 m 532 127 q 356 174 426 127 q 249 303 285 222 q 213 486 213 385 q 249 669 213 588 q 356 798 285 751 q 532 845 426 845 q 708 798 638 845 q 815 669 779 751 q 851 486 851 588 q 815 303 851 385 q 708 174 779 222 q 532 127 638 127 m 649 1088 q 726 1125 700 1088 q 752 1230 752 1162 l 656 1230 q 609 1181 656 1181 q 550 1195 583 1181 q 482 1224 517 1210 q 415 1238 447 1238 q 338 1202 365 1238 q 312 1097 312 1166 l 408 1097 q 455 1146 408 1146 q 514 1132 481 1146 q 582 1103 547 1117 q 649 1088 617 1088 m 400 1296 l 665 1376 l 665 1515 l 400 1383 l 400 1296 "},"Ṏ":{"ha":1064,"x_min":53,"x_max":1011,"o":"m 532 -19 q 779 43 671 -19 q 949 219 888 106 q 1011 486 1011 333 q 949 753 1011 640 q 779 929 888 867 q 532 992 671 992 q 285 929 393 992 q 115 753 176 867 q 53 486 53 640 q 115 219 53 333 q 285 43 176 106 q 532 -19 393 -19 m 532 127 q 356 174 426 127 q 249 303 285 222 q 213 486 213 385 q 249 669 213 588 q 356 798 285 751 q 532 845 426 845 q 708 798 638 845 q 815 669 779 751 q 851 486 851 588 q 815 303 851 385 q 708 174 779 222 q 532 127 638 127 m 649 1088 q 726 1125 700 1088 q 752 1230 752 1162 l 656 1230 q 609 1181 656 1181 q 550 1195 583 1181 q 482 1224 517 1210 q 415 1238 447 1238 q 338 1202 365 1238 q 312 1097 312 1166 l 408 1097 q 455 1146 408 1146 q 514 1132 481 1146 q 582 1103 547 1117 q 649 1088 617 1088 m 333 1333 l 458 1333 l 458 1444 l 333 1444 l 333 1333 m 606 1333 l 731 1333 l 731 1444 l 606 1444 l 606 1333 "},"Ȭ":{"ha":1064,"x_min":53,"x_max":1011,"o":"m 532 -19 q 779 43 671 -19 q 949 219 888 106 q 1011 486 1011 333 q 949 753 1011 640 q 779 929 888 867 q 532 992 671 992 q 285 929 393 992 q 115 753 176 867 q 53 486 53 640 q 115 219 53 333 q 285 43 176 106 q 532 -19 393 -19 m 532 127 q 356 174 426 127 q 249 303 285 222 q 213 486 213 385 q 249 669 213 588 q 356 798 285 751 q 532 845 426 845 q 708 798 638 845 q 815 669 779 751 q 851 486 851 588 q 815 303 851 385 q 708 174 779 222 q 532 127 638 127 m 649 1088 q 726 1125 700 1088 q 752 1230 752 1162 l 656 1230 q 609 1181 656 1181 q 550 1195 583 1181 q 482 1224 517 1210 q 415 1238 447 1238 q 338 1202 365 1238 q 312 1097 312 1166 l 408 1097 q 455 1146 408 1146 q 514 1132 481 1146 q 582 1103 547 1117 q 649 1088 617 1088 m 308 1338 l 756 1338 l 756 1438 l 308 1438 l 308 1338 "},"Œ":{"ha":1483,"x_min":53,"x_max":1433,"o":"m 522 -19 q 695 16 614 -19 q 839 118 777 51 q 936 278 901 185 q 972 486 972 371 q 936 694 972 601 q 839 854 901 788 q 695 956 777 921 q 522 992 614 992 q 280 929 385 992 q 113 753 174 867 q 53 486 53 640 q 113 219 53 333 q 280 43 174 106 q 522 -19 385 -19 m 526 122 q 353 169 422 122 q 250 300 284 217 q 215 486 215 382 q 250 673 215 590 q 353 803 284 755 q 526 851 422 851 q 699 803 630 851 q 802 673 768 755 q 837 486 837 590 q 802 300 837 382 q 699 169 768 217 q 526 122 630 122 m 849 0 l 1433 0 l 1433 142 l 999 142 l 999 437 l 1323 437 l 1323 578 l 999 578 l 999 831 l 1421 831 l 1421 972 l 849 972 l 849 0 "},"P":{"ha":808,"x_min":109,"x_max":777,"o":"m 109 0 l 265 0 l 265 339 l 442 339 q 620 372 545 339 q 736 476 696 406 q 777 658 777 547 q 736 838 777 769 q 620 940 696 908 q 441 972 544 972 l 109 972 l 109 0 m 265 470 l 265 841 l 421 841 q 574 796 525 841 q 622 656 622 751 q 572 515 622 560 q 422 470 522 470 l 265 470 "},"Þ":{"ha":794,"x_min":109,"x_max":762,"o":"m 109 0 l 265 0 l 265 250 l 466 250 q 689 319 617 250 q 762 506 762 388 q 690 694 762 626 q 466 763 617 763 l 265 763 l 265 972 l 109 972 l 109 0 m 265 381 l 265 632 l 452 632 q 570 601 534 632 q 607 506 607 569 q 570 414 607 447 q 452 381 534 381 l 265 381 "},"Q":{"ha":1064,"x_min":53,"x_max":1011,"o":"m 589 287 l 908 -22 l 999 72 l 678 381 l 589 287 m 532 -19 q 779 43 671 -19 q 949 219 888 106 q 1011 486 1011 333 q 949 753 1011 640 q 779 929 888 867 q 532 992 671 992 q 285 929 393 992 q 115 753 176 867 q 53 486 53 640 q 115 219 53 333 q 285 43 176 106 q 532 -19 393 -19 m 532 127 q 356 174 426 127 q 249 303 285 222 q 213 486 213 385 q 249 669 213 588 q 356 798 285 751 q 532 845 426 845 q 708 798 638 845 q 815 669 779 751 q 851 486 851 588 q 815 303 851 385 q 708 174 779 222 q 532 127 638 127 "},"R":{"ha":851,"x_min":109,"x_max":828,"o":"m 109 0 l 265 0 l 265 372 l 451 372 q 455 372 453 372 q 458 372 456 372 l 651 0 l 828 0 l 610 405 q 733 509 689 443 q 777 677 777 574 q 735 844 777 778 q 618 941 694 909 q 442 972 543 972 l 109 972 l 109 0 m 265 503 l 265 841 l 424 841 q 572 797 525 841 q 619 673 619 753 q 572 549 619 596 q 421 503 524 503 l 265 503 "},"Ŕ":{"ha":851,"x_min":109,"x_max":828,"o":"m 109 0 l 265 0 l 265 372 l 451 372 q 455 372 453 372 q 458 372 456 372 l 651 0 l 828 0 l 610 405 q 733 509 689 443 q 777 677 777 574 q 735 844 777 778 q 618 941 694 909 q 442 972 543 972 l 109 972 l 109 0 m 265 503 l 265 841 l 424 841 q 572 797 525 841 q 619 673 619 753 q 572 549 619 596 q 421 503 524 503 l 265 503 m 301 1058 l 567 1139 l 567 1277 l 301 1145 l 301 1058 "},"Ř":{"ha":851,"x_min":109,"x_max":828,"o":"m 109 0 l 265 0 l 265 372 l 451 372 q 455 372 453 372 q 458 372 456 372 l 651 0 l 828 0 l 610 405 q 733 509 689 443 q 777 677 777 574 q 735 844 777 778 q 618 941 694 909 q 442 972 543 972 l 109 972 l 109 0 m 265 503 l 265 841 l 424 841 q 572 797 525 841 q 619 673 619 753 q 572 549 619 596 q 421 503 524 503 l 265 503 "},"Ŗ":{"ha":851,"x_min":109,"x_max":828,"o":"m 109 0 l 265 0 l 265 372 l 451 372 q 455 372 453 372 q 458 372 456 372 l 651 0 l 828 0 l 610 405 q 733 509 689 443 q 777 677 777 574 q 735 844 777 778 q 618 941 694 909 q 442 972 543 972 l 109 972 l 109 0 m 265 503 l 265 841 l 424 841 q 572 797 525 841 q 619 673 619 753 q 572 549 619 596 q 421 503 524 503 l 265 503 m 469 -428 l 548 -262 l 548 -126 l 389 -126 l 389 -278 l 444 -278 l 393 -428 l 469 -428 "},"Ȑ":{"ha":851,"x_min":109,"x_max":828,"o":"m 109 0 l 265 0 l 265 372 l 451 372 q 455 372 453 372 q 458 372 456 372 l 651 0 l 828 0 l 610 405 q 733 509 689 443 q 777 677 777 574 q 735 844 777 778 q 618 941 694 909 q 442 972 543 972 l 109 972 l 109 0 m 265 503 l 265 841 l 424 841 q 572 797 525 841 q 619 673 619 753 q 572 549 619 596 q 421 503 524 503 l 265 503 m 582 1094 l 502 1305 l 356 1305 l 483 1094 l 582 1094 m 383 1094 l 295 1305 l 149 1305 l 284 1094 l 383 1094 "},"Ṛ":{"ha":851,"x_min":109,"x_max":828,"o":"m 109 0 l 265 0 l 265 372 l 451 372 q 455 372 453 372 q 458 372 456 372 l 651 0 l 828 0 l 610 405 q 733 509 689 443 q 777 677 777 574 q 735 844 777 778 q 618 941 694 909 q 442 972 543 972 l 109 972 l 109 0 m 265 503 l 265 841 l 424 841 q 572 797 525 841 q 619 673 619 753 q 572 549 619 596 q 421 503 524 503 l 265 503 "},"Ȓ":{"ha":851,"x_min":109,"x_max":828,"o":"m 109 0 l 265 0 l 265 372 l 451 372 q 455 372 453 372 q 458 372 456 372 l 651 0 l 828 0 l 610 405 q 733 509 689 443 q 777 677 777 574 q 735 844 777 778 q 618 941 694 909 q 442 972 543 972 l 109 972 l 109 0 m 265 503 l 265 841 l 424 841 q 572 797 525 841 q 619 673 619 753 q 572 549 619 596 q 421 503 524 503 l 265 503 m 433 1257 q 319 1233 365 1257 q 249 1169 273 1208 q 226 1083 226 1129 l 340 1083 q 366 1146 340 1125 q 433 1167 393 1167 q 500 1146 474 1167 q 527 1083 527 1125 l 641 1083 q 617 1169 641 1129 q 548 1233 594 1208 q 433 1257 501 1257 "},"Ṟ":{"ha":851,"x_min":109,"x_max":828,"o":"m 109 0 l 265 0 l 265 372 l 451 372 q 455 372 453 372 q 458 372 456 372 l 651 0 l 828 0 l 610 405 q 733 509 689 443 q 777 677 777 574 q 735 844 777 778 q 618 941 694 909 q 442 972 543 972 l 109 972 l 109 0 m 265 503 l 265 841 l 424 841 q 572 797 525 841 q 619 673 619 753 q 572 549 619 596 q 421 503 524 503 l 265 503 "},"S":{"ha":809,"x_min":69,"x_max":767,"o":"m 389 -19 q 568 3 496 -19 q 685 65 641 26 q 748 153 728 104 q 767 257 767 203 q 729 398 767 341 q 619 494 691 455 q 443 565 547 534 q 328 607 375 587 q 256 655 281 627 q 232 729 232 683 q 282 822 232 792 q 415 851 333 851 q 562 831 490 851 q 715 769 634 812 l 730 927 q 595 971 676 951 q 422 992 515 992 q 230 957 308 992 q 112 862 152 923 q 72 723 72 801 q 111 582 72 636 q 215 495 150 528 q 358 437 280 462 q 493 388 440 411 q 573 333 547 365 q 599 251 599 301 q 549 153 599 185 q 415 122 499 122 q 296 135 355 122 q 184 167 237 148 q 88 208 131 187 l 69 47 q 154 16 102 31 q 268 -9 206 1 q 389 -19 329 -19 "},"Ś":{"ha":809,"x_min":69,"x_max":767,"o":"m 389 -19 q 568 3 496 -19 q 685 65 641 26 q 748 153 728 104 q 767 257 767 203 q 729 398 767 341 q 619 494 691 455 q 443 565 547 534 q 328 607 375 587 q 256 655 281 627 q 232 729 232 683 q 282 822 232 792 q 415 851 333 851 q 562 831 490 851 q 715 769 634 812 l 730 927 q 595 971 676 951 q 422 992 515 992 q 230 957 308 992 q 112 862 152 923 q 72 723 72 801 q 111 582 72 636 q 215 495 150 528 q 358 437 280 462 q 493 388 440 411 q 573 333 547 365 q 599 251 599 301 q 549 153 599 185 q 415 122 499 122 q 296 135 355 122 q 184 167 237 148 q 88 208 131 187 l 69 47 q 154 16 102 31 q 268 -9 206 1 q 389 -19 329 -19 m 304 1058 l 569 1139 l 569 1277 l 304 1145 l 304 1058 "},"Ṥ":{"ha":809,"x_min":69,"x_max":767,"o":"m 389 -19 q 568 3 496 -19 q 685 65 641 26 q 748 153 728 104 q 767 257 767 203 q 729 398 767 341 q 619 494 691 455 q 443 565 547 534 q 328 607 375 587 q 256 655 281 627 q 232 729 232 683 q 282 822 232 792 q 415 851 333 851 q 562 831 490 851 q 715 769 634 812 l 730 927 q 595 971 676 951 q 422 992 515 992 q 230 957 308 992 q 112 862 152 923 q 72 723 72 801 q 111 582 72 636 q 215 495 150 528 q 358 437 280 462 q 493 388 440 411 q 573 333 547 365 q 599 251 599 301 q 549 153 599 185 q 415 122 499 122 q 296 135 355 122 q 184 167 237 148 q 88 208 131 187 l 69 47 q 154 16 102 31 q 268 -9 206 1 q 389 -19 329 -19 m 304 1058 l 569 1139 l 569 1277 l 304 1145 l 304 1058 m 367 1338 l 505 1338 l 505 1467 l 367 1467 l 367 1338 "},"Š":{"ha":809,"x_min":69,"x_max":767,"o":"m 389 -19 q 568 3 496 -19 q 685 65 641 26 q 748 153 728 104 q 767 257 767 203 q 729 398 767 341 q 619 494 691 455 q 443 565 547 534 q 328 607 375 587 q 256 655 281 627 q 232 729 232 683 q 282 822 232 792 q 415 851 333 851 q 562 831 490 851 q 715 769 634 812 l 730 927 q 595 971 676 951 q 422 992 515 992 q 230 957 308 992 q 112 862 152 923 q 72 723 72 801 q 111 582 72 636 q 215 495 150 528 q 358 437 280 462 q 493 388 440 411 q 573 333 547 365 q 599 251 599 301 q 549 153 599 185 q 415 122 499 122 q 296 135 355 122 q 184 167 237 148 q 88 208 131 187 l 69 47 q 154 16 102 31 q 268 -9 206 1 q 389 -19 329 -19 "},"Ṧ":{"ha":809,"x_min":69,"x_max":767,"o":"m 389 -19 q 568 3 496 -19 q 685 65 641 26 q 748 153 728 104 q 767 257 767 203 q 729 398 767 341 q 619 494 691 455 q 443 565 547 534 q 328 607 375 587 q 256 655 281 627 q 232 729 232 683 q 282 822 232 792 q 415 851 333 851 q 562 831 490 851 q 715 769 634 812 l 730 927 q 595 971 676 951 q 422 992 515 992 q 230 957 308 992 q 112 862 152 923 q 72 723 72 801 q 111 582 72 636 q 215 495 150 528 q 358 437 280 462 q 493 388 440 411 q 573 333 547 365 q 599 251 599 301 q 549 153 599 185 q 415 122 499 122 q 296 135 355 122 q 184 167 237 148 q 88 208 131 187 l 69 47 q 154 16 102 31 q 268 -9 206 1 q 389 -19 329 -19 m 367 1356 l 505 1356 l 505 1485 l 367 1485 l 367 1356 "},"Ş":{"ha":809,"x_min":69,"x_max":767,"o":"m 389 -19 q 568 3 496 -19 q 685 65 641 26 q 748 153 728 104 q 767 257 767 203 q 729 398 767 341 q 619 494 691 455 q 443 565 547 534 q 328 607 375 587 q 256 655 281 627 q 232 729 232 683 q 282 822 232 792 q 415 851 333 851 q 562 831 490 851 q 715 769 634 812 l 730 927 q 595 971 676 951 q 422 992 515 992 q 230 957 308 992 q 112 862 152 923 q 72 723 72 801 q 111 582 72 636 q 215 495 150 528 q 358 437 280 462 q 493 388 440 411 q 573 333 547 365 q 599 251 599 301 q 549 153 599 185 q 415 122 499 122 q 296 135 355 122 q 184 167 237 148 q 88 208 131 187 l 69 47 q 154 16 102 31 q 268 -9 206 1 q 389 -19 329 -19 m 413 -110 l 447 0 l 374 0 l 338 -153 q 371 -145 356 -147 q 402 -142 387 -142 q 455 -156 438 -142 q 472 -195 472 -170 q 454 -232 472 -219 q 406 -245 436 -245 q 360 -239 382 -245 q 317 -222 339 -232 l 294 -295 q 341 -314 314 -306 q 405 -322 369 -322 q 513 -288 469 -322 q 556 -191 556 -255 q 523 -106 556 -137 q 431 -75 490 -75 q 396 -79 413 -75 q 363 -89 380 -83 l 413 -110 "},"Ŝ":{"ha":809,"x_min":69,"x_max":767,"o":"m 389 -19 q 568 3 496 -19 q 685 65 641 26 q 748 153 728 104 q 767 257 767 203 q 729 398 767 341 q 619 494 691 455 q 443 565 547 534 q 328 607 375 587 q 256 655 281 627 q 232 729 232 683 q 282 822 232 792 q 415 851 333 851 q 562 831 490 851 q 715 769 634 812 l 730 927 q 595 971 676 951 q 422 992 515 992 q 230 957 308 992 q 112 862 152 923 q 72 723 72 801 q 111 582 72 636 q 215 495 150 528 q 358 437 280 462 q 493 388 440 411 q 573 333 547 365 q 599 251 599 301 q 549 153 599 185 q 415 122 499 122 q 296 135 355 122 q 184 167 237 148 q 88 208 131 187 l 69 47 q 154 16 102 31 q 268 -9 206 1 q 389 -19 329 -19 m 257 1042 l 436 1137 l 615 1042 l 615 1134 l 436 1260 l 257 1134 l 257 1042 "},"Ș":{"ha":809,"x_min":69,"x_max":767,"o":"m 389 -19 q 568 3 496 -19 q 685 65 641 26 q 748 153 728 104 q 767 257 767 203 q 729 398 767 341 q 619 494 691 455 q 443 565 547 534 q 328 607 375 587 q 256 655 281 627 q 232 729 232 683 q 282 822 232 792 q 415 851 333 851 q 562 831 490 851 q 715 769 634 812 l 730 927 q 595 971 676 951 q 422 992 515 992 q 230 957 308 992 q 112 862 152 923 q 72 723 72 801 q 111 582 72 636 q 215 495 150 528 q 358 437 280 462 q 493 388 440 411 q 573 333 547 365 q 599 251 599 301 q 549 153 599 185 q 415 122 499 122 q 296 135 355 122 q 184 167 237 148 q 88 208 131 187 l 69 47 q 154 16 102 31 q 268 -9 206 1 q 389 -19 329 -19 m 410 -428 l 488 -262 l 488 -126 l 329 -126 l 329 -278 l 384 -278 l 333 -428 l 410 -428 "},"Ṡ":{"ha":809,"x_min":69,"x_max":767,"o":"m 389 -19 q 568 3 496 -19 q 685 65 641 26 q 748 153 728 104 q 767 257 767 203 q 729 398 767 341 q 619 494 691 455 q 443 565 547 534 q 328 607 375 587 q 256 655 281 627 q 232 729 232 683 q 282 822 232 792 q 415 851 333 851 q 562 831 490 851 q 715 769 634 812 l 730 927 q 595 971 676 951 q 422 992 515 992 q 230 957 308 992 q 112 862 152 923 q 72 723 72 801 q 111 582 72 636 q 215 495 150 528 q 358 437 280 462 q 493 388 440 411 q 573 333 547 365 q 599 251 599 301 q 549 153 599 185 q 415 122 499 122 q 296 135 355 122 q 184 167 237 148 q 88 208 131 187 l 69 47 q 154 16 102 31 q 268 -9 206 1 q 389 -19 329 -19 m 367 1099 l 505 1099 l 505 1228 l 367 1228 l 367 1099 "},"Ṣ":{"ha":809,"x_min":69,"x_max":767,"o":"m 389 -19 q 568 3 496 -19 q 685 65 641 26 q 748 153 728 104 q 767 257 767 203 q 729 398 767 341 q 619 494 691 455 q 443 565 547 534 q 328 607 375 587 q 256 655 281 627 q 232 729 232 683 q 282 822 232 792 q 415 851 333 851 q 562 831 490 851 q 715 769 634 812 l 730 927 q 595 971 676 951 q 422 992 515 992 q 230 957 308 992 q 112 862 152 923 q 72 723 72 801 q 111 582 72 636 q 215 495 150 528 q 358 437 280 462 q 493 388 440 411 q 573 333 547 365 q 599 251 599 301 q 549 153 599 185 q 415 122 499 122 q 296 135 355 122 q 184 167 237 148 q 88 208 131 187 l 69 47 q 154 16 102 31 q 268 -9 206 1 q 389 -19 329 -19 "},"Ṩ":{"ha":809,"x_min":69,"x_max":767,"o":"m 389 -19 q 568 3 496 -19 q 685 65 641 26 q 748 153 728 104 q 767 257 767 203 q 729 398 767 341 q 619 494 691 455 q 443 565 547 534 q 328 607 375 587 q 256 655 281 627 q 232 729 232 683 q 282 822 232 792 q 415 851 333 851 q 562 831 490 851 q 715 769 634 812 l 730 927 q 595 971 676 951 q 422 992 515 992 q 230 957 308 992 q 112 862 152 923 q 72 723 72 801 q 111 582 72 636 q 215 495 150 528 q 358 437 280 462 q 493 388 440 411 q 573 333 547 365 q 599 251 599 301 q 549 153 599 185 q 415 122 499 122 q 296 135 355 122 q 184 167 237 148 q 88 208 131 187 l 69 47 q 154 16 102 31 q 268 -9 206 1 q 389 -19 329 -19 m 367 1099 l 505 1099 l 505 1228 l 367 1228 l 367 1099 "},"ẞ":{"ha":887,"x_min":109,"x_max":841,"o":"m 109 0 l 260 0 l 260 661 q 321 808 260 755 q 483 861 382 861 q 605 846 553 861 q 692 813 657 831 l 705 894 l 427 578 l 427 456 l 474 456 q 627 410 576 456 q 678 283 678 365 q 633 165 678 208 q 508 122 587 122 q 374 135 437 122 l 374 0 q 448 -14 411 -9 q 525 -19 485 -19 q 682 13 610 -19 q 797 112 753 46 q 841 279 841 178 q 794 450 841 385 q 667 544 747 515 q 491 573 588 573 l 522 497 l 778 787 l 778 910 q 650 968 726 945 q 483 992 575 992 q 288 955 372 992 q 156 845 203 919 q 109 658 109 771 l 109 0 "},"Ə":{"ha":980,"x_min":42,"x_max":927,"o":"m 761 475 q 683 214 761 307 q 471 122 606 122 q 274 190 339 122 q 208 368 210 259 l 838 368 l 838 502 l 51 502 q 44 448 46 475 q 42 399 42 422 q 96 175 42 268 q 246 31 150 81 q 467 -19 342 -19 q 661 19 576 -19 q 806 124 747 57 q 896 281 865 192 q 927 472 927 370 q 869 743 927 626 q 703 926 811 860 q 443 992 594 992 q 253 969 343 992 q 90 910 163 946 l 110 775 q 264 830 183 808 q 428 851 344 851 q 676 751 590 851 q 761 475 761 651 "},"T":{"ha":753,"x_min":21,"x_max":732,"o":"m 301 0 l 452 0 l 452 831 l 732 831 l 732 972 l 21 972 l 21 831 l 301 831 l 301 0 "},"Ŧ":{"ha":753,"x_min":21,"x_max":732,"o":"m 301 0 l 452 0 l 452 831 l 732 831 l 732 972 l 21 972 l 21 831 l 301 831 l 301 0 m 114 442 l 638 442 l 638 541 l 114 541 l 114 442 "},"Ť":{"ha":753,"x_min":21,"x_max":732,"o":"m 301 0 l 452 0 l 452 831 l 732 831 l 732 972 l 21 972 l 21 831 l 301 831 l 301 0 "},"Ţ":{"ha":753,"x_min":21,"x_max":732,"o":"m 301 0 l 452 0 l 452 831 l 732 831 l 732 972 l 21 972 l 21 831 l 301 831 l 301 0 "},"Ț":{"ha":753,"x_min":21,"x_max":732,"o":"m 301 0 l 452 0 l 452 831 l 732 831 l 732 972 l 21 972 l 21 831 l 301 831 l 301 0 m 379 -428 l 458 -262 l 458 -126 l 299 -126 l 299 -278 l 353 -278 l 303 -428 l 379 -428 "},"Ṭ":{"ha":753,"x_min":21,"x_max":732,"o":"m 301 0 l 452 0 l 452 831 l 732 831 l 732 972 l 21 972 l 21 831 l 301 831 l 301 0 "},"Ṯ":{"ha":753,"x_min":21,"x_max":732,"o":"m 301 0 l 452 0 l 452 831 l 732 831 l 732 972 l 21 972 l 21 831 l 301 831 l 301 0 "},"U":{"ha":1002,"x_min":98,"x_max":903,"o":"m 501 -19 q 727 34 638 -19 q 860 184 816 87 q 903 415 903 281 l 903 972 l 752 972 l 752 454 q 742 327 752 387 q 706 220 733 267 q 630 148 680 174 q 501 122 581 122 q 372 148 422 122 q 296 220 322 174 q 259 326 269 266 q 249 454 249 387 l 249 972 l 98 972 l 98 415 q 142 184 98 281 q 275 34 185 87 q 501 -19 364 -19 "},"Ú":{"ha":1002,"x_min":98,"x_max":903,"o":"m 501 -19 q 727 34 638 -19 q 860 184 816 87 q 903 415 903 281 l 903 972 l 752 972 l 752 454 q 742 327 752 387 q 706 220 733 267 q 630 148 680 174 q 501 122 581 122 q 372 148 422 122 q 296 220 322 174 q 259 326 269 266 q 249 454 249 387 l 249 972 l 98 972 l 98 415 q 142 184 98 281 q 275 34 185 87 q 501 -19 364 -19 m 369 1058 l 634 1139 l 634 1277 l 369 1145 l 369 1058 "},"Ŭ":{"ha":1002,"x_min":98,"x_max":903,"o":"m 501 -19 q 727 34 638 -19 q 860 184 816 87 q 903 415 903 281 l 903 972 l 752 972 l 752 454 q 742 327 752 387 q 706 220 733 267 q 630 148 680 174 q 501 122 581 122 q 372 148 422 122 q 296 220 322 174 q 259 326 269 266 q 249 454 249 387 l 249 972 l 98 972 l 98 415 q 142 184 98 281 q 275 34 185 87 q 501 -19 364 -19 m 501 1062 q 615 1086 569 1062 q 685 1150 661 1110 q 708 1236 708 1190 l 594 1236 q 568 1173 594 1194 q 501 1151 541 1151 q 434 1173 460 1151 q 407 1236 407 1194 l 293 1236 q 317 1150 293 1190 q 386 1086 340 1110 q 501 1062 433 1062 "},"Û":{"ha":1002,"x_min":98,"x_max":903,"o":"m 501 -19 q 727 34 638 -19 q 860 184 816 87 q 903 415 903 281 l 903 972 l 752 972 l 752 454 q 742 327 752 387 q 706 220 733 267 q 630 148 680 174 q 501 122 581 122 q 372 148 422 122 q 296 220 322 174 q 259 326 269 266 q 249 454 249 387 l 249 972 l 98 972 l 98 415 q 142 184 98 281 q 275 34 185 87 q 501 -19 364 -19 m 322 1042 l 501 1137 l 680 1042 l 680 1134 l 501 1260 l 322 1134 l 322 1042 "},"Ȕ":{"ha":1002,"x_min":98,"x_max":903,"o":"m 501 -19 q 727 34 638 -19 q 860 184 816 87 q 903 415 903 281 l 903 972 l 752 972 l 752 454 q 742 327 752 387 q 706 220 733 267 q 630 148 680 174 q 501 122 581 122 q 372 148 422 122 q 296 220 322 174 q 259 326 269 266 q 249 454 249 387 l 249 972 l 98 972 l 98 415 q 142 184 98 281 q 275 34 185 87 q 501 -19 364 -19 m 655 1094 l 564 1333 l 418 1333 l 556 1094 l 655 1094 m 456 1094 l 357 1333 l 210 1333 l 357 1094 l 456 1094 "},"Ü":{"ha":1002,"x_min":98,"x_max":903,"o":"m 501 -19 q 727 34 638 -19 q 860 184 816 87 q 903 415 903 281 l 903 972 l 752 972 l 752 454 q 742 327 752 387 q 706 220 733 267 q 630 148 680 174 q 501 122 581 122 q 372 148 422 122 q 296 220 322 174 q 259 326 269 266 q 249 454 249 387 l 249 972 l 98 972 l 98 415 q 142 184 98 281 q 275 34 185 87 q 501 -19 364 -19 m 302 1097 l 427 1097 l 427 1207 l 302 1207 l 302 1097 m 574 1097 l 699 1097 l 699 1207 l 574 1207 l 574 1097 "},"Ụ":{"ha":1002,"x_min":98,"x_max":903,"o":"m 501 -19 q 727 34 638 -19 q 860 184 816 87 q 903 415 903 281 l 903 972 l 752 972 l 752 454 q 742 327 752 387 q 706 220 733 267 q 630 148 680 174 q 501 122 581 122 q 372 148 422 122 q 296 220 322 174 q 259 326 269 266 q 249 454 249 387 l 249 972 l 98 972 l 98 415 q 142 184 98 281 q 275 34 185 87 q 501 -19 364 -19 "},"Ù":{"ha":1002,"x_min":98,"x_max":903,"o":"m 501 -19 q 727 34 638 -19 q 860 184 816 87 q 903 415 903 281 l 903 972 l 752 972 l 752 454 q 742 327 752 387 q 706 220 733 267 q 630 148 680 174 q 501 122 581 122 q 372 148 422 122 q 296 220 322 174 q 259 326 269 266 q 249 454 249 387 l 249 972 l 98 972 l 98 415 q 142 184 98 281 q 275 34 185 87 q 501 -19 364 -19 m 633 1058 l 633 1145 l 367 1277 l 367 1139 l 633 1058 "},"Ủ":{"ha":1002,"x_min":98,"x_max":903,"o":"m 501 -19 q 727 34 638 -19 q 860 184 816 87 q 903 415 903 281 l 903 972 l 752 972 l 752 454 q 742 327 752 387 q 706 220 733 267 q 630 148 680 174 q 501 122 581 122 q 372 148 422 122 q 296 220 322 174 q 259 326 269 266 q 249 454 249 387 l 249 972 l 98 972 l 98 415 q 142 184 98 281 q 275 34 185 87 q 501 -19 364 -19 m 497 1056 q 589 1098 560 1069 q 617 1174 617 1126 q 577 1256 617 1227 q 480 1284 538 1284 q 420 1277 449 1284 q 369 1258 392 1270 l 392 1181 q 435 1200 414 1192 q 478 1207 457 1207 q 519 1197 504 1207 q 533 1165 533 1187 q 520 1134 533 1146 q 483 1114 508 1122 l 497 1056 "},"Ư":{"ha":1002,"x_min":98,"x_max":1066,"o":"m 501 -19 q 727 34 638 -19 q 860 184 816 87 q 903 415 903 281 l 903 972 l 752 972 l 752 454 q 742 327 752 387 q 706 220 733 267 q 630 148 680 174 q 501 122 581 122 q 372 148 422 122 q 296 220 322 174 q 259 326 269 266 q 249 454 249 387 l 249 972 l 98 972 l 98 415 q 142 184 98 281 q 275 34 185 87 q 501 -19 364 -19 m 824 869 q 944 896 889 869 q 1032 970 999 923 q 1066 1075 1066 1017 l 935 1075 q 905 996 935 1020 q 824 972 876 972 l 824 869 "},"Ứ":{"ha":1002,"x_min":98,"x_max":1066,"o":"m 501 -19 q 727 34 638 -19 q 860 184 816 87 q 903 415 903 281 l 903 972 l 752 972 l 752 454 q 742 327 752 387 q 706 220 733 267 q 630 148 680 174 q 501 122 581 122 q 372 148 422 122 q 296 220 322 174 q 259 326 269 266 q 249 454 249 387 l 249 972 l 98 972 l 98 415 q 142 184 98 281 q 275 34 185 87 q 501 -19 364 -19 m 824 869 q 944 896 889 869 q 1032 970 999 923 q 1066 1075 1066 1017 l 935 1075 q 905 996 935 1020 q 824 972 876 972 l 824 869 m 369 1058 l 634 1139 l 634 1277 l 369 1145 l 369 1058 "},"Ự":{"ha":1002,"x_min":98,"x_max":1066,"o":"m 501 -19 q 727 34 638 -19 q 860 184 816 87 q 903 415 903 281 l 903 972 l 752 972 l 752 454 q 742 327 752 387 q 706 220 733 267 q 630 148 680 174 q 501 122 581 122 q 372 148 422 122 q 296 220 322 174 q 259 326 269 266 q 249 454 249 387 l 249 972 l 98 972 l 98 415 q 142 184 98 281 q 275 34 185 87 q 501 -19 364 -19 m 824 869 q 944 896 889 869 q 1032 970 999 923 q 1066 1075 1066 1017 l 935 1075 q 905 996 935 1020 q 824 972 876 972 l 824 869 "},"Ừ":{"ha":1002,"x_min":98,"x_max":1066,"o":"m 501 -19 q 727 34 638 -19 q 860 184 816 87 q 903 415 903 281 l 903 972 l 752 972 l 752 454 q 742 327 752 387 q 706 220 733 267 q 630 148 680 174 q 501 122 581 122 q 372 148 422 122 q 296 220 322 174 q 259 326 269 266 q 249 454 249 387 l 249 972 l 98 972 l 98 415 q 142 184 98 281 q 275 34 185 87 q 501 -19 364 -19 m 824 869 q 944 896 889 869 q 1032 970 999 923 q 1066 1075 1066 1017 l 935 1075 q 905 996 935 1020 q 824 972 876 972 l 824 869 m 633 1058 l 633 1145 l 367 1277 l 367 1139 l 633 1058 "},"Ử":{"ha":1002,"x_min":98,"x_max":1066,"o":"m 501 -19 q 727 34 638 -19 q 860 184 816 87 q 903 415 903 281 l 903 972 l 752 972 l 752 454 q 742 327 752 387 q 706 220 733 267 q 630 148 680 174 q 501 122 581 122 q 372 148 422 122 q 296 220 322 174 q 259 326 269 266 q 249 454 249 387 l 249 972 l 98 972 l 98 415 q 142 184 98 281 q 275 34 185 87 q 501 -19 364 -19 m 824 869 q 944 896 889 869 q 1032 970 999 923 q 1066 1075 1066 1017 l 935 1075 q 905 996 935 1020 q 824 972 876 972 l 824 869 m 497 1056 q 589 1098 560 1069 q 617 1174 617 1126 q 577 1256 617 1227 q 480 1284 538 1284 q 420 1277 449 1284 q 369 1258 392 1270 l 392 1181 q 435 1200 414 1192 q 478 1207 457 1207 q 519 1197 504 1207 q 533 1165 533 1187 q 520 1134 533 1146 q 483 1114 508 1122 l 497 1056 "},"Ữ":{"ha":1002,"x_min":98,"x_max":1066,"o":"m 501 -19 q 727 34 638 -19 q 860 184 816 87 q 903 415 903 281 l 903 972 l 752 972 l 752 454 q 742 327 752 387 q 706 220 733 267 q 630 148 680 174 q 501 122 581 122 q 372 148 422 122 q 296 220 322 174 q 259 326 269 266 q 249 454 249 387 l 249 972 l 98 972 l 98 415 q 142 184 98 281 q 275 34 185 87 q 501 -19 364 -19 m 824 869 q 944 896 889 869 q 1032 970 999 923 q 1066 1075 1066 1017 l 935 1075 q 905 996 935 1020 q 824 972 876 972 l 824 869 m 618 1088 q 695 1125 669 1088 q 721 1230 721 1162 l 624 1230 q 578 1181 624 1181 q 518 1195 551 1181 q 450 1224 485 1210 q 383 1238 415 1238 q 307 1202 333 1238 q 281 1097 281 1166 l 377 1097 q 424 1146 377 1146 q 483 1132 450 1146 q 551 1103 516 1117 q 618 1088 586 1088 "},"Ű":{"ha":1002,"x_min":98,"x_max":903,"o":"m 501 -19 q 727 34 638 -19 q 860 184 816 87 q 903 415 903 281 l 903 972 l 752 972 l 752 454 q 742 327 752 387 q 706 220 733 267 q 630 148 680 174 q 501 122 581 122 q 372 148 422 122 q 296 220 322 174 q 259 326 269 266 q 249 454 249 387 l 249 972 l 98 972 l 98 415 q 142 184 98 281 q 275 34 185 87 q 501 -19 364 -19 m 349 1094 l 449 1094 l 587 1305 l 441 1305 l 349 1094 m 548 1094 l 647 1094 l 794 1305 l 648 1305 l 548 1094 "},"Ȗ":{"ha":1002,"x_min":98,"x_max":903,"o":"m 501 -19 q 727 34 638 -19 q 860 184 816 87 q 903 415 903 281 l 903 972 l 752 972 l 752 454 q 742 327 752 387 q 706 220 733 267 q 630 148 680 174 q 501 122 581 122 q 372 148 422 122 q 296 220 322 174 q 259 326 269 266 q 249 454 249 387 l 249 972 l 98 972 l 98 415 q 142 184 98 281 q 275 34 185 87 q 501 -19 364 -19 m 501 1257 q 386 1233 433 1257 q 317 1169 340 1208 q 293 1083 293 1129 l 407 1083 q 434 1146 407 1125 q 501 1167 460 1167 q 568 1146 541 1167 q 594 1083 594 1125 l 708 1083 q 685 1169 708 1129 q 615 1233 661 1208 q 501 1257 569 1257 "},"Ū":{"ha":1002,"x_min":98,"x_max":903,"o":"m 501 -19 q 727 34 638 -19 q 860 184 816 87 q 903 415 903 281 l 903 972 l 752 972 l 752 454 q 742 327 752 387 q 706 220 733 267 q 630 148 680 174 q 501 122 581 122 q 372 148 422 122 q 296 220 322 174 q 259 326 269 266 q 249 454 249 387 l 249 972 l 98 972 l 98 415 q 142 184 98 281 q 275 34 185 87 q 501 -19 364 -19 m 276 1101 l 725 1101 l 725 1201 l 276 1201 l 276 1101 "},"Ṻ":{"ha":1002,"x_min":98,"x_max":903,"o":"m 501 -19 q 727 34 638 -19 q 860 184 816 87 q 903 415 903 281 l 903 972 l 752 972 l 752 454 q 742 327 752 387 q 706 220 733 267 q 630 148 680 174 q 501 122 581 122 q 372 148 422 122 q 296 220 322 174 q 259 326 269 266 q 249 454 249 387 l 249 972 l 98 972 l 98 415 q 142 184 98 281 q 275 34 185 87 q 501 -19 364 -19 m 276 1101 l 725 1101 l 725 1201 l 276 1201 l 276 1101 m 302 1335 l 427 1335 l 427 1446 l 302 1446 l 302 1335 m 574 1335 l 699 1335 l 699 1446 l 574 1446 l 574 1335 "},"Ų":{"ha":1002,"x_min":98,"x_max":903,"o":"m 501 -19 q 727 34 638 -19 q 860 184 816 87 q 903 415 903 281 l 903 972 l 752 972 l 752 454 q 742 327 752 387 q 706 220 733 267 q 630 148 680 174 q 501 122 581 122 q 372 148 422 122 q 296 220 322 174 q 259 326 269 266 q 249 454 249 387 l 249 972 l 98 972 l 98 415 q 142 184 98 281 q 275 34 185 87 q 501 -19 364 -19 m 561 0 q 484 -70 521 -25 q 448 -170 448 -115 q 489 -260 448 -228 q 589 -291 530 -291 q 657 -283 627 -291 q 706 -264 686 -274 l 685 -192 q 644 -208 665 -202 q 599 -214 623 -214 q 550 -197 569 -214 q 532 -146 532 -180 q 562 -72 532 -108 q 640 0 592 -37 l 561 0 "},"Ů":{"ha":1002,"x_min":98,"x_max":903,"o":"m 501 -19 q 727 34 638 -19 q 860 184 816 87 q 903 415 903 281 l 903 972 l 752 972 l 752 454 q 742 327 752 387 q 706 220 733 267 q 630 148 680 174 q 501 122 581 122 q 372 148 422 122 q 296 220 322 174 q 259 326 269 266 q 249 454 249 387 l 249 972 l 98 972 l 98 415 q 142 184 98 281 q 275 34 185 87 q 501 -19 364 -19 m 501 1049 q 609 1090 572 1049 q 647 1185 647 1131 q 609 1280 647 1238 q 501 1321 572 1321 q 393 1280 431 1321 q 355 1185 355 1238 q 393 1090 355 1131 q 501 1049 431 1049 m 501 1115 q 451 1134 472 1115 q 431 1185 431 1153 q 451 1235 431 1215 q 501 1254 472 1254 q 550 1235 530 1254 q 571 1185 571 1215 q 550 1134 571 1153 q 501 1115 529 1115 "},"Ũ":{"ha":1002,"x_min":98,"x_max":903,"o":"m 501 -19 q 727 34 638 -19 q 860 184 816 87 q 903 415 903 281 l 903 972 l 752 972 l 752 454 q 742 327 752 387 q 706 220 733 267 q 630 148 680 174 q 501 122 581 122 q 372 148 422 122 q 296 220 322 174 q 259 326 269 266 q 249 454 249 387 l 249 972 l 98 972 l 98 415 q 142 184 98 281 q 275 34 185 87 q 501 -19 364 -19 m 618 1088 q 695 1125 669 1088 q 721 1230 721 1162 l 624 1230 q 578 1181 624 1181 q 518 1195 551 1181 q 450 1224 485 1210 q 383 1238 415 1238 q 307 1202 333 1238 q 281 1097 281 1166 l 377 1097 q 424 1146 377 1146 q 483 1132 450 1146 q 551 1103 516 1117 q 618 1088 586 1088 "},"Ṹ":{"ha":1002,"x_min":98,"x_max":903,"o":"m 501 -19 q 727 34 638 -19 q 860 184 816 87 q 903 415 903 281 l 903 972 l 752 972 l 752 454 q 742 327 752 387 q 706 220 733 267 q 630 148 680 174 q 501 122 581 122 q 372 148 422 122 q 296 220 322 174 q 259 326 269 266 q 249 454 249 387 l 249 972 l 98 972 l 98 415 q 142 184 98 281 q 275 34 185 87 q 501 -19 364 -19 m 618 1088 q 695 1125 669 1088 q 721 1230 721 1162 l 624 1230 q 578 1181 624 1181 q 518 1195 551 1181 q 450 1224 485 1210 q 383 1238 415 1238 q 307 1202 333 1238 q 281 1097 281 1166 l 377 1097 q 424 1146 377 1146 q 483 1132 450 1146 q 551 1103 516 1117 q 618 1088 586 1088 m 369 1296 l 634 1376 l 634 1515 l 369 1383 l 369 1296 "},"V":{"ha":853,"x_min":3,"x_max":849,"o":"m 351 0 l 502 0 l 849 972 l 693 972 l 407 162 l 445 162 l 159 972 l 3 972 l 351 0 "},"W":{"ha":1324,"x_min":9,"x_max":1317,"o":"m 283 0 l 435 0 l 663 726 l 891 0 l 1038 0 l 1317 972 l 1159 972 l 962 226 l 729 961 l 597 961 l 368 218 l 167 972 l 9 972 l 283 0 "},"Ẃ":{"ha":1324,"x_min":9,"x_max":1317,"o":"m 283 0 l 435 0 l 663 726 l 891 0 l 1038 0 l 1317 972 l 1159 972 l 962 226 l 729 961 l 597 961 l 368 218 l 167 972 l 9 972 l 283 0 m 533 1058 l 798 1139 l 798 1277 l 533 1145 l 533 1058 "},"Ŵ":{"ha":1324,"x_min":9,"x_max":1317,"o":"m 283 0 l 435 0 l 663 726 l 891 0 l 1038 0 l 1317 972 l 1159 972 l 962 226 l 729 961 l 597 961 l 368 218 l 167 972 l 9 972 l 283 0 m 485 1042 l 665 1137 l 844 1042 l 844 1134 l 665 1260 l 485 1134 l 485 1042 "},"Ẅ":{"ha":1324,"x_min":9,"x_max":1317,"o":"m 283 0 l 435 0 l 663 726 l 891 0 l 1038 0 l 1317 972 l 1159 972 l 962 226 l 729 961 l 597 961 l 368 218 l 167 972 l 9 972 l 283 0 m 466 1097 l 591 1097 l 591 1207 l 466 1207 l 466 1097 m 738 1097 l 863 1097 l 863 1207 l 738 1207 l 738 1097 "},"Ẁ":{"ha":1324,"x_min":9,"x_max":1317,"o":"m 283 0 l 435 0 l 663 726 l 891 0 l 1038 0 l 1317 972 l 1159 972 l 962 226 l 729 961 l 597 961 l 368 218 l 167 972 l 9 972 l 283 0 m 797 1058 l 797 1145 l 531 1277 l 531 1139 l 797 1058 "},"X":{"ha":843,"x_min":2,"x_max":841,"o":"m 2 0 l 174 0 l 422 367 l 669 0 l 841 0 l 507 494 l 831 972 l 659 972 l 422 620 l 184 972 l 13 972 l 337 494 l 2 0 "},"Y":{"ha":809,"x_min":-13,"x_max":822,"o":"m 329 0 l 481 0 l 481 409 l 822 972 l 653 972 l 369 491 l 440 491 l 156 972 l -13 972 l 329 409 l 329 0 "},"Ý":{"ha":809,"x_min":-13,"x_max":822,"o":"m 329 0 l 481 0 l 481 409 l 822 972 l 653 972 l 369 491 l 440 491 l 156 972 l -13 972 l 329 409 l 329 0 m 272 1058 l 538 1139 l 538 1277 l 272 1145 l 272 1058 "},"Ŷ":{"ha":809,"x_min":-13,"x_max":822,"o":"m 329 0 l 481 0 l 481 409 l 822 972 l 653 972 l 369 491 l 440 491 l 156 972 l -13 972 l 329 409 l 329 0 m 225 1042 l 404 1137 l 583 1042 l 583 1134 l 404 1260 l 225 1134 l 225 1042 "},"Ÿ":{"ha":809,"x_min":-13,"x_max":822,"o":"m 329 0 l 481 0 l 481 409 l 822 972 l 653 972 l 369 491 l 440 491 l 156 972 l -13 972 l 329 409 l 329 0 m 206 1097 l 331 1097 l 331 1207 l 206 1207 l 206 1097 m 478 1097 l 603 1097 l 603 1207 l 478 1207 l 478 1097 "},"Ẏ":{"ha":809,"x_min":-13,"x_max":822,"o":"m 329 0 l 481 0 l 481 409 l 822 972 l 653 972 l 369 491 l 440 491 l 156 972 l -13 972 l 329 409 l 329 0 m 335 1099 l 473 1099 l 473 1228 l 335 1228 l 335 1099 "},"Ỵ":{"ha":809,"x_min":-13,"x_max":822,"o":"m 329 0 l 481 0 l 481 409 l 822 972 l 653 972 l 369 491 l 440 491 l 156 972 l -13 972 l 329 409 l 329 0 "},"Ỳ":{"ha":809,"x_min":-13,"x_max":822,"o":"m 329 0 l 481 0 l 481 409 l 822 972 l 653 972 l 369 491 l 440 491 l 156 972 l -13 972 l 329 409 l 329 0 m 536 1058 l 536 1145 l 271 1277 l 271 1139 l 536 1058 "},"Ỷ":{"ha":809,"x_min":-13,"x_max":822,"o":"m 329 0 l 481 0 l 481 409 l 822 972 l 653 972 l 369 491 l 440 491 l 156 972 l -13 972 l 329 409 l 329 0 m 401 1056 q 492 1098 463 1069 q 521 1174 521 1126 q 481 1256 521 1227 q 383 1284 441 1284 q 324 1277 352 1284 q 272 1258 296 1270 l 296 1181 q 339 1200 317 1192 q 382 1207 360 1207 q 422 1197 408 1207 q 437 1165 437 1187 q 424 1134 437 1146 q 387 1114 411 1122 l 401 1056 "},"Ȳ":{"ha":809,"x_min":-13,"x_max":822,"o":"m 329 0 l 481 0 l 481 409 l 822 972 l 653 972 l 369 491 l 440 491 l 156 972 l -13 972 l 329 409 l 329 0 m 180 1101 l 628 1101 l 628 1201 l 180 1201 l 180 1101 "},"Ỹ":{"ha":809,"x_min":-13,"x_max":822,"o":"m 329 0 l 481 0 l 481 409 l 822 972 l 653 972 l 369 491 l 440 491 l 156 972 l -13 972 l 329 409 l 329 0 m 522 1088 q 598 1125 572 1088 q 624 1230 624 1162 l 528 1230 q 481 1181 528 1181 q 422 1195 455 1181 q 354 1224 389 1210 q 287 1238 319 1238 q 210 1202 237 1238 q 184 1097 184 1166 l 281 1097 q 327 1146 281 1146 q 386 1132 353 1146 q 455 1103 419 1117 q 522 1088 490 1088 "},"Z":{"ha":762,"x_min":12,"x_max":752,"o":"m 12 0 l 745 0 l 745 136 l 192 136 l 219 83 l 752 972 l 74 972 l 74 836 l 571 836 l 544 889 l 12 0 "},"Ź":{"ha":762,"x_min":12,"x_max":752,"o":"m 12 0 l 745 0 l 745 136 l 192 136 l 219 83 l 752 972 l 74 972 l 74 836 l 571 836 l 544 889 l 12 0 m 281 1058 l 547 1139 l 547 1277 l 281 1145 l 281 1058 "},"Ž":{"ha":762,"x_min":12,"x_max":752,"o":"m 12 0 l 745 0 l 745 136 l 192 136 l 219 83 l 752 972 l 74 972 l 74 836 l 571 836 l 544 889 l 12 0 "},"Ż":{"ha":762,"x_min":12,"x_max":752,"o":"m 12 0 l 745 0 l 745 136 l 192 136 l 219 83 l 752 972 l 74 972 l 74 836 l 571 836 l 544 889 l 12 0 m 344 1099 l 482 1099 l 482 1228 l 344 1228 l 344 1099 "},"Ẓ":{"ha":762,"x_min":12,"x_max":752,"o":"m 12 0 l 745 0 l 745 136 l 192 136 l 219 83 l 752 972 l 74 972 l 74 836 l 571 836 l 544 889 l 12 0 "},"a":{"ha":677,"x_min":31,"x_max":665,"o":"m 238 -14 q 357 11 302 -14 q 448 78 411 36 q 481 29 461 49 q 532 -3 500 8 q 615 -14 563 -14 l 647 -14 l 665 103 l 648 103 q 601 115 617 103 q 582 155 586 127 q 577 233 577 183 l 577 393 q 550 574 577 506 q 469 670 523 641 q 332 699 415 699 q 204 681 266 699 q 92 633 142 663 l 109 515 q 208 560 164 548 q 293 572 251 572 q 397 543 363 572 q 431 433 431 515 q 331 425 385 433 q 224 401 276 417 q 128 357 172 385 q 58 288 84 329 q 31 188 31 247 q 58 82 31 127 q 131 11 85 37 q 238 -14 178 -14 m 282 100 q 208 123 235 100 q 182 195 182 145 q 212 272 182 242 q 298 316 242 301 q 432 335 354 331 l 432 174 q 362 119 403 139 q 282 100 321 100 "},"á":{"ha":677,"x_min":31,"x_max":665,"o":"m 238 -14 q 357 11 302 -14 q 448 78 411 36 q 481 29 461 49 q 532 -3 500 8 q 615 -14 563 -14 l 647 -14 l 665 103 l 648 103 q 601 115 617 103 q 582 155 586 127 q 577 233 577 183 l 577 393 q 550 574 577 506 q 469 670 523 641 q 332 699 415 699 q 204 681 266 699 q 92 633 142 663 l 109 515 q 208 560 164 548 q 293 572 251 572 q 397 543 363 572 q 431 433 431 515 q 331 425 385 433 q 224 401 276 417 q 128 357 172 385 q 58 288 84 329 q 31 188 31 247 q 58 82 31 127 q 131 11 85 37 q 238 -14 178 -14 m 282 100 q 208 123 235 100 q 182 195 182 145 q 212 272 182 242 q 298 316 242 301 q 432 335 354 331 l 432 174 q 362 119 403 139 q 282 100 321 100 m 200 797 l 465 899 l 465 1046 l 200 892 l 200 797 "},"ă":{"ha":677,"x_min":31,"x_max":665,"o":"m 238 -14 q 357 11 302 -14 q 448 78 411 36 q 481 29 461 49 q 532 -3 500 8 q 615 -14 563 -14 l 647 -14 l 665 103 l 648 103 q 601 115 617 103 q 582 155 586 127 q 577 233 577 183 l 577 393 q 550 574 577 506 q 469 670 523 641 q 332 699 415 699 q 204 681 266 699 q 92 633 142 663 l 109 515 q 208 560 164 548 q 293 572 251 572 q 397 543 363 572 q 431 433 431 515 q 331 425 385 433 q 224 401 276 417 q 128 357 172 385 q 58 288 84 329 q 31 188 31 247 q 58 82 31 127 q 131 11 85 37 q 238 -14 178 -14 m 282 100 q 208 123 235 100 q 182 195 182 145 q 212 272 182 242 q 298 316 242 301 q 432 335 354 331 l 432 174 q 362 119 403 139 q 282 100 321 100 m 332 806 q 446 832 400 806 q 516 899 492 858 q 540 990 540 941 l 426 990 q 399 926 426 948 q 332 903 372 903 q 265 926 292 903 q 238 990 238 948 l 124 990 q 148 899 124 941 q 218 832 172 858 q 332 806 264 806 "},"ắ":{"ha":677,"x_min":31,"x_max":665,"o":"m 238 -14 q 357 11 302 -14 q 448 78 411 36 q 481 29 461 49 q 532 -3 500 8 q 615 -14 563 -14 l 647 -14 l 665 103 l 648 103 q 601 115 617 103 q 582 155 586 127 q 577 233 577 183 l 577 393 q 550 574 577 506 q 469 670 523 641 q 332 699 415 699 q 204 681 266 699 q 92 633 142 663 l 109 515 q 208 560 164 548 q 293 572 251 572 q 397 543 363 572 q 431 433 431 515 q 331 425 385 433 q 224 401 276 417 q 128 357 172 385 q 58 288 84 329 q 31 188 31 247 q 58 82 31 127 q 131 11 85 37 q 238 -14 178 -14 m 282 100 q 208 123 235 100 q 182 195 182 145 q 212 272 182 242 q 298 316 242 301 q 432 335 354 331 l 432 174 q 362 119 403 139 q 282 100 321 100 m 332 776 q 446 800 400 776 q 516 864 492 824 q 540 950 540 903 l 426 950 q 399 887 426 908 q 332 865 372 865 q 265 887 292 865 q 238 950 238 908 l 124 950 q 148 864 124 903 q 218 800 172 824 q 332 776 264 776 m 200 1012 l 465 1092 l 465 1231 l 200 1099 l 200 1012 "},"ặ":{"ha":677,"x_min":31,"x_max":665,"o":"m 238 -14 q 357 11 302 -14 q 448 78 411 36 q 481 29 461 49 q 532 -3 500 8 q 615 -14 563 -14 l 647 -14 l 665 103 l 648 103 q 601 115 617 103 q 582 155 586 127 q 577 233 577 183 l 577 393 q 550 574 577 506 q 469 670 523 641 q 332 699 415 699 q 204 681 266 699 q 92 633 142 663 l 109 515 q 208 560 164 548 q 293 572 251 572 q 397 543 363 572 q 431 433 431 515 q 331 425 385 433 q 224 401 276 417 q 128 357 172 385 q 58 288 84 329 q 31 188 31 247 q 58 82 31 127 q 131 11 85 37 q 238 -14 178 -14 m 282 100 q 208 123 235 100 q 182 195 182 145 q 212 272 182 242 q 298 316 242 301 q 432 335 354 331 l 432 174 q 362 119 403 139 q 282 100 321 100 m 332 806 q 446 832 400 806 q 516 899 492 858 q 540 990 540 941 l 426 990 q 399 926 426 948 q 332 903 372 903 q 265 926 292 903 q 238 990 238 948 l 124 990 q 148 899 124 941 q 218 832 172 858 q 332 806 264 806 "},"ằ":{"ha":677,"x_min":31,"x_max":665,"o":"m 238 -14 q 357 11 302 -14 q 448 78 411 36 q 481 29 461 49 q 532 -3 500 8 q 615 -14 563 -14 l 647 -14 l 665 103 l 648 103 q 601 115 617 103 q 582 155 586 127 q 577 233 577 183 l 577 393 q 550 574 577 506 q 469 670 523 641 q 332 699 415 699 q 204 681 266 699 q 92 633 142 663 l 109 515 q 208 560 164 548 q 293 572 251 572 q 397 543 363 572 q 431 433 431 515 q 331 425 385 433 q 224 401 276 417 q 128 357 172 385 q 58 288 84 329 q 31 188 31 247 q 58 82 31 127 q 131 11 85 37 q 238 -14 178 -14 m 282 100 q 208 123 235 100 q 182 195 182 145 q 212 272 182 242 q 298 316 242 301 q 432 335 354 331 l 432 174 q 362 119 403 139 q 282 100 321 100 m 332 775 q 446 799 400 775 q 516 863 492 824 q 540 949 540 903 l 426 949 q 399 886 426 908 q 332 865 372 865 q 265 886 292 865 q 238 949 238 908 l 124 949 q 148 863 124 903 q 218 799 172 824 q 332 775 264 775 m 464 1011 l 464 1099 l 199 1231 l 199 1092 l 464 1011 "},"ẳ":{"ha":677,"x_min":31,"x_max":665,"o":"m 238 -14 q 357 11 302 -14 q 448 78 411 36 q 481 29 461 49 q 532 -3 500 8 q 615 -14 563 -14 l 647 -14 l 665 103 l 648 103 q 601 115 617 103 q 582 155 586 127 q 577 233 577 183 l 577 393 q 550 574 577 506 q 469 670 523 641 q 332 699 415 699 q 204 681 266 699 q 92 633 142 663 l 109 515 q 208 560 164 548 q 293 572 251 572 q 397 543 363 572 q 431 433 431 515 q 331 425 385 433 q 224 401 276 417 q 128 357 172 385 q 58 288 84 329 q 31 188 31 247 q 58 82 31 127 q 131 11 85 37 q 238 -14 178 -14 m 282 100 q 208 123 235 100 q 182 195 182 145 q 212 272 182 242 q 298 316 242 301 q 432 335 354 331 l 432 174 q 362 119 403 139 q 282 100 321 100 m 332 776 q 446 800 400 776 q 516 864 492 824 q 540 950 540 903 l 426 950 q 399 887 426 908 q 332 865 372 865 q 265 887 292 865 q 238 950 238 908 l 124 950 q 148 864 124 903 q 218 800 172 824 q 332 776 264 776 m 342 972 q 434 1014 405 985 q 463 1089 463 1042 q 423 1171 463 1142 q 325 1199 383 1199 q 266 1192 294 1199 q 214 1173 238 1185 l 238 1096 q 281 1115 259 1108 q 324 1122 302 1122 q 364 1112 349 1122 q 378 1081 378 1102 q 366 1049 378 1061 q 328 1029 353 1037 l 342 972 "},"ẵ":{"ha":677,"x_min":31,"x_max":665,"o":"m 238 -14 q 357 11 302 -14 q 448 78 411 36 q 481 29 461 49 q 532 -3 500 8 q 615 -14 563 -14 l 647 -14 l 665 103 l 648 103 q 601 115 617 103 q 582 155 586 127 q 577 233 577 183 l 577 393 q 550 574 577 506 q 469 670 523 641 q 332 699 415 699 q 204 681 266 699 q 92 633 142 663 l 109 515 q 208 560 164 548 q 293 572 251 572 q 397 543 363 572 q 431 433 431 515 q 331 425 385 433 q 224 401 276 417 q 128 357 172 385 q 58 288 84 329 q 31 188 31 247 q 58 82 31 127 q 131 11 85 37 q 238 -14 178 -14 m 282 100 q 208 123 235 100 q 182 195 182 145 q 212 272 182 242 q 298 316 242 301 q 432 335 354 331 l 432 174 q 362 119 403 139 q 282 100 321 100 m 332 776 q 446 800 400 776 q 516 864 492 824 q 540 950 540 903 l 426 950 q 399 887 426 908 q 332 865 372 865 q 265 887 292 865 q 238 950 238 908 l 124 950 q 148 864 124 903 q 218 800 172 824 q 332 776 264 776 m 449 1016 q 526 1053 500 1016 q 552 1158 552 1090 l 456 1158 q 409 1108 456 1108 q 350 1123 383 1108 q 282 1152 317 1138 q 215 1166 247 1166 q 138 1130 165 1166 q 112 1024 112 1094 l 208 1024 q 255 1074 208 1074 q 314 1059 281 1074 q 382 1031 347 1045 q 449 1016 417 1016 "},"â":{"ha":677,"x_min":31,"x_max":665,"o":"m 238 -14 q 357 11 302 -14 q 448 78 411 36 q 481 29 461 49 q 532 -3 500 8 q 615 -14 563 -14 l 647 -14 l 665 103 l 648 103 q 601 115 617 103 q 582 155 586 127 q 577 233 577 183 l 577 393 q 550 574 577 506 q 469 670 523 641 q 332 699 415 699 q 204 681 266 699 q 92 633 142 663 l 109 515 q 208 560 164 548 q 293 572 251 572 q 397 543 363 572 q 431 433 431 515 q 331 425 385 433 q 224 401 276 417 q 128 357 172 385 q 58 288 84 329 q 31 188 31 247 q 58 82 31 127 q 131 11 85 37 q 238 -14 178 -14 m 282 100 q 208 123 235 100 q 182 195 182 145 q 212 272 182 242 q 298 316 242 301 q 432 335 354 331 l 432 174 q 362 119 403 139 q 282 100 321 100 m 153 778 l 332 890 l 511 778 l 511 873 l 332 1026 l 153 873 l 153 778 "},"ấ":{"ha":677,"x_min":31,"x_max":674,"o":"m 238 -14 q 357 11 302 -14 q 448 78 411 36 q 481 29 461 49 q 532 -3 500 8 q 615 -14 563 -14 l 647 -14 l 665 103 l 648 103 q 601 115 617 103 q 582 155 586 127 q 577 233 577 183 l 577 393 q 550 574 577 506 q 469 670 523 641 q 332 699 415 699 q 204 681 266 699 q 92 633 142 663 l 109 515 q 208 560 164 548 q 293 572 251 572 q 397 543 363 572 q 431 433 431 515 q 331 425 385 433 q 224 401 276 417 q 128 357 172 385 q 58 288 84 329 q 31 188 31 247 q 58 82 31 127 q 131 11 85 37 q 238 -14 178 -14 m 282 100 q 208 123 235 100 q 182 195 182 145 q 212 272 182 242 q 298 316 242 301 q 432 335 354 331 l 432 174 q 362 119 403 139 q 282 100 321 100 m 153 756 l 332 851 l 511 756 l 511 848 l 332 974 l 153 848 l 153 756 m 437 961 l 536 961 l 674 1129 l 528 1129 l 437 961 "},"ậ":{"ha":677,"x_min":31,"x_max":665,"o":"m 238 -14 q 357 11 302 -14 q 448 78 411 36 q 481 29 461 49 q 532 -3 500 8 q 615 -14 563 -14 l 647 -14 l 665 103 l 648 103 q 601 115 617 103 q 582 155 586 127 q 577 233 577 183 l 577 393 q 550 574 577 506 q 469 670 523 641 q 332 699 415 699 q 204 681 266 699 q 92 633 142 663 l 109 515 q 208 560 164 548 q 293 572 251 572 q 397 543 363 572 q 431 433 431 515 q 331 425 385 433 q 224 401 276 417 q 128 357 172 385 q 58 288 84 329 q 31 188 31 247 q 58 82 31 127 q 131 11 85 37 q 238 -14 178 -14 m 282 100 q 208 123 235 100 q 182 195 182 145 q 212 272 182 242 q 298 316 242 301 q 432 335 354 331 l 432 174 q 362 119 403 139 q 282 100 321 100 m 153 778 l 332 890 l 511 778 l 511 873 l 332 1026 l 153 873 l 153 778 "},"ầ":{"ha":677,"x_min":31,"x_max":665,"o":"m 238 -14 q 357 11 302 -14 q 448 78 411 36 q 481 29 461 49 q 532 -3 500 8 q 615 -14 563 -14 l 647 -14 l 665 103 l 648 103 q 601 115 617 103 q 582 155 586 127 q 577 233 577 183 l 577 393 q 550 574 577 506 q 469 670 523 641 q 332 699 415 699 q 204 681 266 699 q 92 633 142 663 l 109 515 q 208 560 164 548 q 293 572 251 572 q 397 543 363 572 q 431 433 431 515 q 331 425 385 433 q 224 401 276 417 q 128 357 172 385 q 58 288 84 329 q 31 188 31 247 q 58 82 31 127 q 131 11 85 37 q 238 -14 178 -14 m 282 100 q 208 123 235 100 q 182 195 182 145 q 212 272 182 242 q 298 316 242 301 q 432 335 354 331 l 432 174 q 362 119 403 139 q 282 100 321 100 m 153 756 l 332 851 l 511 756 l 511 848 l 332 974 l 153 848 l 153 756 m 461 961 l 557 961 l 482 1129 l 343 1129 l 461 961 "},"ẩ":{"ha":677,"x_min":31,"x_max":665,"o":"m 238 -14 q 357 11 302 -14 q 448 78 411 36 q 481 29 461 49 q 532 -3 500 8 q 615 -14 563 -14 l 647 -14 l 665 103 l 648 103 q 601 115 617 103 q 582 155 586 127 q 577 233 577 183 l 577 393 q 550 574 577 506 q 469 670 523 641 q 332 699 415 699 q 204 681 266 699 q 92 633 142 663 l 109 515 q 208 560 164 548 q 293 572 251 572 q 397 543 363 572 q 431 433 431 515 q 331 425 385 433 q 224 401 276 417 q 128 357 172 385 q 58 288 84 329 q 31 188 31 247 q 58 82 31 127 q 131 11 85 37 q 238 -14 178 -14 m 282 100 q 208 123 235 100 q 182 195 182 145 q 212 272 182 242 q 298 316 242 301 q 432 335 354 331 l 432 174 q 362 119 403 139 q 282 100 321 100 m 153 756 l 332 851 l 511 756 l 511 848 l 332 974 l 153 848 l 153 756 m 465 925 q 557 967 528 939 q 585 1043 585 996 q 545 1125 585 1097 q 448 1153 506 1153 q 389 1147 417 1153 q 337 1127 360 1140 l 360 1050 q 404 1069 382 1062 q 447 1076 426 1076 q 487 1066 472 1076 q 501 1035 501 1056 q 489 1003 501 1015 q 451 983 476 991 l 465 925 "},"ẫ":{"ha":677,"x_min":31,"x_max":665,"o":"m 238 -14 q 357 11 302 -14 q 448 78 411 36 q 481 29 461 49 q 532 -3 500 8 q 615 -14 563 -14 l 647 -14 l 665 103 l 648 103 q 601 115 617 103 q 582 155 586 127 q 577 233 577 183 l 577 393 q 550 574 577 506 q 469 670 523 641 q 332 699 415 699 q 204 681 266 699 q 92 633 142 663 l 109 515 q 208 560 164 548 q 293 572 251 572 q 397 543 363 572 q 431 433 431 515 q 331 425 385 433 q 224 401 276 417 q 128 357 172 385 q 58 288 84 329 q 31 188 31 247 q 58 82 31 127 q 131 11 85 37 q 238 -14 178 -14 m 282 100 q 208 123 235 100 q 182 195 182 145 q 212 272 182 242 q 298 316 242 301 q 432 335 354 331 l 432 174 q 362 119 403 139 q 282 100 321 100 m 153 756 l 332 851 l 511 756 l 511 848 l 332 974 l 153 848 l 153 756 m 449 1028 q 526 1065 500 1028 q 552 1169 552 1101 l 456 1169 q 409 1120 456 1120 q 350 1135 383 1120 q 282 1164 317 1149 q 215 1178 247 1178 q 138 1142 165 1178 q 112 1036 112 1106 l 208 1036 q 255 1085 208 1085 q 314 1071 281 1085 q 382 1042 347 1057 q 449 1028 417 1028 "},"ȁ":{"ha":677,"x_min":31,"x_max":665,"o":"m 238 -14 q 357 11 302 -14 q 448 78 411 36 q 481 29 461 49 q 532 -3 500 8 q 615 -14 563 -14 l 647 -14 l 665 103 l 648 103 q 601 115 617 103 q 582 155 586 127 q 577 233 577 183 l 577 393 q 550 574 577 506 q 469 670 523 641 q 332 699 415 699 q 204 681 266 699 q 92 633 142 663 l 109 515 q 208 560 164 548 q 293 572 251 572 q 397 543 363 572 q 431 433 431 515 q 331 425 385 433 q 224 401 276 417 q 128 357 172 385 q 58 288 84 329 q 31 188 31 247 q 58 82 31 127 q 131 11 85 37 q 238 -14 178 -14 m 282 100 q 208 123 235 100 q 182 195 182 145 q 212 272 182 242 q 298 316 242 301 q 432 335 354 331 l 432 174 q 362 119 403 139 q 282 100 321 100 m 485 808 l 394 1047 l 249 1047 l 386 808 l 485 808 m 287 808 l 188 1047 l 41 1047 l 188 808 l 287 808 "},"ä":{"ha":677,"x_min":31,"x_max":665,"o":"m 238 -14 q 357 11 302 -14 q 448 78 411 36 q 481 29 461 49 q 532 -3 500 8 q 615 -14 563 -14 l 647 -14 l 665 103 l 648 103 q 601 115 617 103 q 582 155 586 127 q 577 233 577 183 l 577 393 q 550 574 577 506 q 469 670 523 641 q 332 699 415 699 q 204 681 266 699 q 92 633 142 663 l 109 515 q 208 560 164 548 q 293 572 251 572 q 397 543 363 572 q 431 433 431 515 q 331 425 385 433 q 224 401 276 417 q 128 357 172 385 q 58 288 84 329 q 31 188 31 247 q 58 82 31 127 q 131 11 85 37 q 238 -14 178 -14 m 282 100 q 208 123 235 100 q 182 195 182 145 q 212 272 182 242 q 298 316 242 301 q 432 335 354 331 l 432 174 q 362 119 403 139 q 282 100 321 100 m 406 821 l 531 821 l 531 938 l 406 938 l 406 821 m 133 821 l 258 821 l 258 938 l 133 938 l 133 821 "},"ạ":{"ha":677,"x_min":31,"x_max":665,"o":"m 238 -14 q 357 11 302 -14 q 448 78 411 36 q 481 29 461 49 q 532 -3 500 8 q 615 -14 563 -14 l 647 -14 l 665 103 l 648 103 q 601 115 617 103 q 582 155 586 127 q 577 233 577 183 l 577 393 q 550 574 577 506 q 469 670 523 641 q 332 699 415 699 q 204 681 266 699 q 92 633 142 663 l 109 515 q 208 560 164 548 q 293 572 251 572 q 397 543 363 572 q 431 433 431 515 q 331 425 385 433 q 224 401 276 417 q 128 357 172 385 q 58 288 84 329 q 31 188 31 247 q 58 82 31 127 q 131 11 85 37 q 238 -14 178 -14 m 282 100 q 208 123 235 100 q 182 195 182 145 q 212 272 182 242 q 298 316 242 301 q 432 335 354 331 l 432 174 q 362 119 403 139 q 282 100 321 100 "},"à":{"ha":677,"x_min":31,"x_max":665,"o":"m 238 -14 q 357 11 302 -14 q 448 78 411 36 q 481 29 461 49 q 532 -3 500 8 q 615 -14 563 -14 l 647 -14 l 665 103 l 648 103 q 601 115 617 103 q 582 155 586 127 q 577 233 577 183 l 577 393 q 550 574 577 506 q 469 670 523 641 q 332 699 415 699 q 204 681 266 699 q 92 633 142 663 l 109 515 q 208 560 164 548 q 293 572 251 572 q 397 543 363 572 q 431 433 431 515 q 331 425 385 433 q 224 401 276 417 q 128 357 172 385 q 58 288 84 329 q 31 188 31 247 q 58 82 31 127 q 131 11 85 37 q 238 -14 178 -14 m 282 100 q 208 123 235 100 q 182 195 182 145 q 212 272 182 242 q 298 316 242 301 q 432 335 354 331 l 432 174 q 362 119 403 139 q 282 100 321 100 m 464 797 l 464 892 l 199 1046 l 199 899 l 464 797 "},"ả":{"ha":677,"x_min":31,"x_max":665,"o":"m 238 -14 q 357 11 302 -14 q 448 78 411 36 q 481 29 461 49 q 532 -3 500 8 q 615 -14 563 -14 l 647 -14 l 665 103 l 648 103 q 601 115 617 103 q 582 155 586 127 q 577 233 577 183 l 577 393 q 550 574 577 506 q 469 670 523 641 q 332 699 415 699 q 204 681 266 699 q 92 633 142 663 l 109 515 q 208 560 164 548 q 293 572 251 572 q 397 543 363 572 q 431 433 431 515 q 331 425 385 433 q 224 401 276 417 q 128 357 172 385 q 58 288 84 329 q 31 188 31 247 q 58 82 31 127 q 131 11 85 37 q 238 -14 178 -14 m 282 100 q 208 123 235 100 q 182 195 182 145 q 212 272 182 242 q 298 316 242 301 q 432 335 354 331 l 432 174 q 362 119 403 139 q 282 100 321 100 m 353 735 q 425 802 401 770 q 449 878 449 833 q 409 967 449 936 q 311 998 369 998 q 252 991 280 998 q 200 972 224 984 l 224 894 q 267 914 245 906 q 310 921 288 921 q 350 909 335 921 q 365 874 365 897 q 350 830 365 849 q 304 783 335 812 l 353 735 "},"ȃ":{"ha":677,"x_min":31,"x_max":665,"o":"m 238 -14 q 357 11 302 -14 q 448 78 411 36 q 481 29 461 49 q 532 -3 500 8 q 615 -14 563 -14 l 647 -14 l 665 103 l 648 103 q 601 115 617 103 q 582 155 586 127 q 577 233 577 183 l 577 393 q 550 574 577 506 q 469 670 523 641 q 332 699 415 699 q 204 681 266 699 q 92 633 142 663 l 109 515 q 208 560 164 548 q 293 572 251 572 q 397 543 363 572 q 431 433 431 515 q 331 425 385 433 q 224 401 276 417 q 128 357 172 385 q 58 288 84 329 q 31 188 31 247 q 58 82 31 127 q 131 11 85 37 q 238 -14 178 -14 m 282 100 q 208 123 235 100 q 182 195 182 145 q 212 272 182 242 q 298 316 242 301 q 432 335 354 331 l 432 174 q 362 119 403 139 q 282 100 321 100 m 332 990 q 218 965 264 990 q 148 897 172 939 q 124 806 124 856 l 238 806 q 265 871 238 849 q 332 893 292 893 q 399 871 372 893 q 426 806 426 849 l 540 806 q 516 897 540 856 q 446 965 492 939 q 332 990 400 990 "},"ā":{"ha":677,"x_min":31,"x_max":665,"o":"m 238 -14 q 357 11 302 -14 q 448 78 411 36 q 481 29 461 49 q 532 -3 500 8 q 615 -14 563 -14 l 647 -14 l 665 103 l 648 103 q 601 115 617 103 q 582 155 586 127 q 577 233 577 183 l 577 393 q 550 574 577 506 q 469 670 523 641 q 332 699 415 699 q 204 681 266 699 q 92 633 142 663 l 109 515 q 208 560 164 548 q 293 572 251 572 q 397 543 363 572 q 431 433 431 515 q 331 425 385 433 q 224 401 276 417 q 128 357 172 385 q 58 288 84 329 q 31 188 31 247 q 58 82 31 127 q 131 11 85 37 q 238 -14 178 -14 m 282 100 q 208 123 235 100 q 182 195 182 145 q 212 272 182 242 q 298 316 242 301 q 432 335 354 331 l 432 174 q 362 119 403 139 q 282 100 321 100 m 108 826 l 556 826 l 556 931 l 108 931 l 108 826 "},"ą":{"ha":677,"x_min":31,"x_max":704,"o":"m 238 -14 q 357 11 302 -14 q 448 78 411 36 q 481 29 461 49 q 532 -3 500 8 q 615 -14 563 -14 l 647 -14 l 665 103 l 648 103 q 601 115 617 103 q 582 155 586 127 q 577 233 577 183 l 577 393 q 550 574 577 506 q 469 670 523 641 q 332 699 415 699 q 204 681 266 699 q 92 633 142 663 l 109 515 q 208 560 164 548 q 293 572 251 572 q 397 543 363 572 q 431 433 431 515 q 331 425 385 433 q 224 401 276 417 q 128 357 172 385 q 58 288 84 329 q 31 188 31 247 q 58 82 31 127 q 131 11 85 37 q 238 -14 178 -14 m 282 100 q 208 123 235 100 q 182 195 182 145 q 212 272 182 242 q 298 316 242 301 q 432 335 354 331 l 432 174 q 362 119 403 139 q 282 100 321 100 m 558 0 q 482 -70 518 -25 q 445 -170 445 -115 q 486 -260 445 -228 q 586 -291 527 -291 q 654 -283 624 -291 q 703 -264 683 -274 l 682 -192 q 641 -208 662 -202 q 596 -214 620 -214 q 548 -197 566 -214 q 529 -146 529 -180 q 559 -72 529 -108 q 637 0 589 -37 l 558 0 "},"å":{"ha":677,"x_min":31,"x_max":665,"o":"m 238 -14 q 357 11 302 -14 q 448 78 411 36 q 481 29 461 49 q 532 -3 500 8 q 615 -14 563 -14 l 647 -14 l 665 103 l 648 103 q 601 115 617 103 q 582 155 586 127 q 577 233 577 183 l 577 393 q 550 574 577 506 q 469 670 523 641 q 332 699 415 699 q 204 681 266 699 q 92 633 142 663 l 109 515 q 208 560 164 548 q 293 572 251 572 q 397 543 363 572 q 431 433 431 515 q 331 425 385 433 q 224 401 276 417 q 128 357 172 385 q 58 288 84 329 q 31 188 31 247 q 58 82 31 127 q 131 11 85 37 q 238 -14 178 -14 m 282 100 q 208 123 235 100 q 182 195 182 145 q 212 272 182 242 q 298 316 242 301 q 432 335 354 331 l 432 174 q 362 119 403 139 q 282 100 321 100 m 332 790 q 440 832 403 790 q 476 927 476 873 q 439 1023 476 981 q 332 1065 402 1065 q 225 1023 263 1065 q 188 927 188 981 q 225 832 188 873 q 332 790 263 790 m 332 856 q 283 875 304 856 q 261 927 261 894 q 282 978 261 958 q 332 999 303 999 q 382 978 361 999 q 403 927 403 958 q 382 875 403 894 q 332 856 360 856 "},"ǻ":{"ha":677,"x_min":31,"x_max":665,"o":"m 238 -14 q 357 11 302 -14 q 448 78 411 36 q 481 29 461 49 q 532 -3 500 8 q 615 -14 563 -14 l 647 -14 l 665 103 l 648 103 q 601 115 617 103 q 582 155 586 127 q 577 233 577 183 l 577 393 q 550 574 577 506 q 469 670 523 641 q 332 699 415 699 q 204 681 266 699 q 92 633 142 663 l 109 515 q 208 560 164 548 q 293 572 251 572 q 397 543 363 572 q 431 433 431 515 q 331 425 385 433 q 224 401 276 417 q 128 357 172 385 q 58 288 84 329 q 31 188 31 247 q 58 82 31 127 q 131 11 85 37 q 238 -14 178 -14 m 282 100 q 208 123 235 100 q 182 195 182 145 q 212 272 182 242 q 298 316 242 301 q 432 335 354 331 l 432 174 q 362 119 403 139 q 282 100 321 100 m 332 790 q 440 832 403 790 q 476 927 476 873 q 439 1023 476 981 q 332 1065 402 1065 q 225 1023 263 1065 q 188 927 188 981 q 225 832 188 873 q 332 790 263 790 m 332 856 q 283 875 304 856 q 261 927 261 894 q 282 978 261 958 q 332 999 303 999 q 382 978 361 999 q 403 927 403 958 q 382 875 403 894 q 332 856 360 856 m 200 1119 l 465 1200 l 465 1338 l 200 1206 l 200 1119 "},"ã":{"ha":677,"x_min":31,"x_max":665,"o":"m 238 -14 q 357 11 302 -14 q 448 78 411 36 q 481 29 461 49 q 532 -3 500 8 q 615 -14 563 -14 l 647 -14 l 665 103 l 648 103 q 601 115 617 103 q 582 155 586 127 q 577 233 577 183 l 577 393 q 550 574 577 506 q 469 670 523 641 q 332 699 415 699 q 204 681 266 699 q 92 633 142 663 l 109 515 q 208 560 164 548 q 293 572 251 572 q 397 543 363 572 q 431 433 431 515 q 331 425 385 433 q 224 401 276 417 q 128 357 172 385 q 58 288 84 329 q 31 188 31 247 q 58 82 31 127 q 131 11 85 37 q 238 -14 178 -14 m 282 100 q 208 123 235 100 q 182 195 182 145 q 212 272 182 242 q 298 316 242 301 q 432 335 354 331 l 432 174 q 362 119 403 139 q 282 100 321 100 m 446 804 q 532 845 502 804 q 565 965 563 887 l 456 965 q 408 912 456 912 q 349 928 379 912 q 285 960 318 944 q 218 976 253 976 q 132 934 162 976 q 99 815 102 893 l 208 815 q 256 868 208 868 q 315 852 285 868 q 378 820 346 836 q 446 804 411 804 "},"æ":{"ha":1085,"x_min":31,"x_max":1045,"o":"m 257 -14 q 413 30 340 -14 q 529 139 487 73 l 483 205 q 398 127 447 153 q 294 100 349 100 q 214 123 246 100 q 182 194 182 145 q 247 294 182 261 q 449 327 311 327 l 1038 327 q 1043 368 1042 349 q 1045 406 1045 388 q 1013 555 1045 488 q 919 660 981 622 q 766 699 856 699 q 594 651 667 699 q 484 527 522 603 l 560 540 q 481 663 537 626 q 332 699 424 699 q 204 681 266 699 q 92 633 142 663 l 109 515 q 208 560 164 548 q 293 572 251 572 q 406 526 377 572 q 435 397 435 481 l 435 348 q 476 168 435 250 q 597 36 517 85 q 796 -14 677 -14 q 921 2 867 -14 q 1015 39 975 17 l 1001 158 q 906 123 955 136 q 809 110 857 110 q 700 134 751 110 q 618 213 649 158 q 586 360 586 268 q 633 519 586 463 q 759 575 680 575 q 863 532 830 575 q 897 426 897 488 l 452 426 q 308 415 382 426 q 172 377 234 404 q 70 303 109 351 q 31 182 31 256 q 60 79 31 123 q 139 11 88 35 q 257 -14 190 -14 "},"ǽ":{"ha":1085,"x_min":31,"x_max":1045,"o":"m 257 -14 q 413 30 340 -14 q 529 139 487 73 l 483 205 q 398 127 447 153 q 294 100 349 100 q 214 123 246 100 q 182 194 182 145 q 247 294 182 261 q 449 327 311 327 l 1038 327 q 1043 368 1042 349 q 1045 406 1045 388 q 1013 555 1045 488 q 919 660 981 622 q 766 699 856 699 q 594 651 667 699 q 484 527 522 603 l 560 540 q 481 663 537 626 q 332 699 424 699 q 204 681 266 699 q 92 633 142 663 l 109 515 q 208 560 164 548 q 293 572 251 572 q 406 526 377 572 q 435 397 435 481 l 435 348 q 476 168 435 250 q 597 36 517 85 q 796 -14 677 -14 q 921 2 867 -14 q 1015 39 975 17 l 1001 158 q 906 123 955 136 q 809 110 857 110 q 700 134 751 110 q 618 213 649 158 q 586 360 586 268 q 633 519 586 463 q 759 575 680 575 q 863 532 830 575 q 897 426 897 488 l 452 426 q 308 415 382 426 q 172 377 234 404 q 70 303 109 351 q 31 182 31 256 q 60 79 31 123 q 139 11 88 35 q 257 -14 190 -14 m 428 797 l 694 899 l 694 1046 l 428 892 l 428 797 "},"b":{"ha":781,"x_min":81,"x_max":738,"o":"m 429 -14 q 591 34 522 -14 q 699 164 660 83 q 738 342 738 244 q 702 519 738 438 q 596 650 665 600 q 429 699 527 699 q 294 667 356 699 q 194 583 233 635 l 226 561 l 226 1042 l 81 1042 l 81 0 l 214 0 l 231 133 l 192 105 q 291 17 228 47 q 429 -14 354 -14 m 410 110 q 310 137 353 110 q 243 215 267 163 q 219 342 219 266 q 243 469 219 417 q 310 548 267 521 q 410 575 353 575 q 506 545 466 575 q 568 462 547 515 q 590 342 590 410 q 568 224 590 277 q 506 141 547 172 q 410 110 466 110 "},"c":{"ha":631,"x_min":43,"x_max":594,"o":"m 399 -14 q 510 0 458 -14 q 594 33 563 14 l 578 153 q 498 121 540 133 q 411 110 456 110 q 247 175 303 110 q 191 344 191 240 q 248 513 191 450 q 413 575 306 575 q 499 564 458 575 q 576 536 541 553 l 594 658 q 510 689 558 677 q 408 700 463 700 q 203 652 283 700 q 83 523 122 604 q 43 340 43 441 q 83 162 43 242 q 203 34 124 82 q 399 -14 283 -14 "},"ć":{"ha":631,"x_min":43,"x_max":594,"o":"m 399 -14 q 510 0 458 -14 q 594 33 563 14 l 578 153 q 498 121 540 133 q 411 110 456 110 q 247 175 303 110 q 191 344 191 240 q 248 513 191 450 q 413 575 306 575 q 499 564 458 575 q 576 536 541 553 l 594 658 q 510 689 558 677 q 408 700 463 700 q 203 652 283 700 q 83 523 122 604 q 43 340 43 441 q 83 162 43 242 q 203 34 124 82 q 399 -14 283 -14 m 245 797 l 510 899 l 510 1046 l 245 892 l 245 797 "},"č":{"ha":631,"x_min":43,"x_max":594,"o":"m 399 -14 q 510 0 458 -14 q 594 33 563 14 l 578 153 q 498 121 540 133 q 411 110 456 110 q 247 175 303 110 q 191 344 191 240 q 248 513 191 450 q 413 575 306 575 q 499 564 458 575 q 576 536 541 553 l 594 658 q 510 689 558 677 q 408 700 463 700 q 203 652 283 700 q 83 523 122 604 q 43 340 43 441 q 83 162 43 242 q 203 34 124 82 q 399 -14 283 -14 m 377 776 l 556 930 l 556 1025 l 377 912 l 198 1025 l 198 930 l 377 776 "},"ç":{"ha":631,"x_min":43,"x_max":594,"o":"m 399 -14 q 510 0 458 -14 q 594 33 563 14 l 578 153 q 498 121 540 133 q 411 110 456 110 q 247 175 303 110 q 191 344 191 240 q 248 513 191 450 q 413 575 306 575 q 499 564 458 575 q 576 536 541 553 l 594 658 q 510 689 558 677 q 408 700 463 700 q 203 652 283 700 q 83 523 122 604 q 43 340 43 441 q 83 162 43 242 q 203 34 124 82 q 399 -14 283 -14 m 379 -110 l 413 0 l 340 0 l 303 -153 q 337 -145 322 -147 q 368 -142 353 -142 q 421 -156 403 -142 q 438 -195 438 -170 q 420 -232 438 -219 q 372 -245 402 -245 q 326 -239 348 -245 q 283 -222 305 -232 l 260 -295 q 307 -314 280 -306 q 371 -322 335 -322 q 478 -288 435 -322 q 522 -191 522 -255 q 489 -106 522 -137 q 397 -75 456 -75 q 362 -79 378 -75 q 329 -89 346 -83 l 379 -110 "},"ḉ":{"ha":631,"x_min":43,"x_max":594,"o":"m 399 -14 q 510 0 458 -14 q 594 33 563 14 l 578 153 q 498 121 540 133 q 411 110 456 110 q 247 175 303 110 q 191 344 191 240 q 248 513 191 450 q 413 575 306 575 q 499 564 458 575 q 576 536 541 553 l 594 658 q 510 689 558 677 q 408 700 463 700 q 203 652 283 700 q 83 523 122 604 q 43 340 43 441 q 83 162 43 242 q 203 34 124 82 q 399 -14 283 -14 m 379 -110 l 413 0 l 340 0 l 303 -153 q 337 -145 322 -147 q 368 -142 353 -142 q 421 -156 403 -142 q 438 -195 438 -170 q 420 -232 438 -219 q 372 -245 402 -245 q 326 -239 348 -245 q 283 -222 305 -232 l 260 -295 q 307 -314 280 -306 q 371 -322 335 -322 q 478 -288 435 -322 q 522 -191 522 -255 q 489 -106 522 -137 q 397 -75 456 -75 q 362 -79 378 -75 q 329 -89 346 -83 l 379 -110 m 245 797 l 510 899 l 510 1046 l 245 892 l 245 797 "},"ĉ":{"ha":631,"x_min":43,"x_max":594,"o":"m 399 -14 q 510 0 458 -14 q 594 33 563 14 l 578 153 q 498 121 540 133 q 411 110 456 110 q 247 175 303 110 q 191 344 191 240 q 248 513 191 450 q 413 575 306 575 q 499 564 458 575 q 576 536 541 553 l 594 658 q 510 689 558 677 q 408 700 463 700 q 203 652 283 700 q 83 523 122 604 q 43 340 43 441 q 83 162 43 242 q 203 34 124 82 q 399 -14 283 -14 m 198 778 l 377 890 l 556 778 l 556 873 l 377 1026 l 198 873 l 198 778 "},"ċ":{"ha":631,"x_min":43,"x_max":594,"o":"m 399 -14 q 510 0 458 -14 q 594 33 563 14 l 578 153 q 498 121 540 133 q 411 110 456 110 q 247 175 303 110 q 191 344 191 240 q 248 513 191 450 q 413 575 306 575 q 499 564 458 575 q 576 536 541 553 l 594 658 q 510 689 558 677 q 408 700 463 700 q 203 652 283 700 q 83 523 122 604 q 43 340 43 441 q 83 162 43 242 q 203 34 124 82 q 399 -14 283 -14 m 308 827 l 446 827 l 446 956 l 308 956 l 308 827 "},"d":{"ha":781,"x_min":42,"x_max":699,"o":"m 357 -14 q 492 17 433 -14 q 588 105 551 47 l 549 133 l 566 0 l 699 0 l 699 1042 l 553 1042 l 553 562 l 587 588 q 488 672 547 644 q 357 699 428 699 q 187 650 258 699 q 80 518 117 600 q 42 342 42 437 q 82 163 42 244 q 192 34 121 83 q 357 -14 263 -14 m 381 110 q 278 141 321 110 q 213 224 235 172 q 190 342 190 276 q 213 462 190 410 q 278 545 235 515 q 381 575 321 575 q 474 548 432 575 q 541 468 516 520 q 565 342 565 415 q 541 213 565 265 q 474 136 516 162 q 381 110 432 110 "},"ð":{"ha":708,"x_min":32,"x_max":665,"o":"m 342 -17 q 463 5 405 -17 q 566 73 521 27 q 639 190 612 119 q 665 358 665 260 q 634 572 665 469 q 545 759 603 675 q 401 900 486 844 q 210 974 317 956 l 185 897 q 361 808 292 869 q 466 661 431 746 q 506 478 501 576 l 526 497 q 452 563 500 535 q 328 592 404 592 q 170 548 237 592 q 68 434 103 504 q 32 285 32 364 q 70 133 32 201 q 179 23 109 64 q 342 -17 249 -17 m 346 108 q 219 162 264 108 q 175 289 175 215 q 195 377 175 336 q 252 443 215 418 q 345 468 290 468 q 469 416 425 468 q 514 288 514 365 q 469 160 514 213 q 346 108 424 108 m 234 688 l 591 892 l 544 972 l 185 768 l 234 688 "},"ď":{"ha":872,"x_min":42,"x_max":899,"o":"m 357 -14 q 492 17 433 -14 q 588 105 551 47 l 549 133 l 566 0 l 699 0 l 699 1042 l 553 1042 l 553 562 l 587 588 q 488 672 547 644 q 357 699 428 699 q 187 650 258 699 q 80 518 117 600 q 42 342 42 437 q 82 163 42 244 q 192 34 121 83 q 357 -14 263 -14 m 381 110 q 278 141 321 110 q 213 224 235 172 q 190 342 190 276 q 213 462 190 410 q 278 545 235 515 q 381 575 321 575 q 474 548 432 575 q 541 468 516 520 q 565 342 565 415 q 541 213 565 265 q 474 136 516 162 q 381 110 432 110 m 765 804 l 859 804 l 899 1042 l 765 1042 l 765 804 "},"đ":{"ha":783,"x_min":42,"x_max":801,"o":"m 345 815 l 801 815 l 801 920 l 345 920 l 345 815 m 357 -14 q 492 17 433 -14 q 588 105 551 47 l 549 133 l 566 0 l 699 0 l 699 1042 l 553 1042 l 553 562 l 587 588 q 488 672 547 644 q 357 699 428 699 q 187 650 258 699 q 80 518 117 600 q 42 342 42 437 q 82 163 42 244 q 192 34 121 83 q 357 -14 263 -14 m 381 110 q 278 141 321 110 q 213 224 235 172 q 190 342 190 276 q 213 462 190 410 q 278 545 235 515 q 381 575 321 575 q 474 548 432 575 q 541 468 516 520 q 565 342 565 415 q 541 213 565 265 q 474 136 516 162 q 381 110 432 110 "},"ḍ":{"ha":781,"x_min":42,"x_max":699,"o":"m 357 -14 q 492 17 433 -14 q 588 105 551 47 l 549 133 l 566 0 l 699 0 l 699 1042 l 553 1042 l 553 562 l 587 588 q 488 672 547 644 q 357 699 428 699 q 187 650 258 699 q 80 518 117 600 q 42 342 42 437 q 82 163 42 244 q 192 34 121 83 q 357 -14 263 -14 m 381 110 q 278 141 321 110 q 213 224 235 172 q 190 342 190 276 q 213 462 190 410 q 278 545 235 515 q 381 575 321 575 q 474 548 432 575 q 541 468 516 520 q 565 342 565 415 q 541 213 565 265 q 474 136 516 162 q 381 110 432 110 "},"ḏ":{"ha":781,"x_min":42,"x_max":699,"o":"m 357 -14 q 492 17 433 -14 q 588 105 551 47 l 549 133 l 566 0 l 699 0 l 699 1042 l 553 1042 l 553 562 l 587 588 q 488 672 547 644 q 357 699 428 699 q 187 650 258 699 q 80 518 117 600 q 42 342 42 437 q 82 163 42 244 q 192 34 121 83 q 357 -14 263 -14 m 381 110 q 278 141 321 110 q 213 224 235 172 q 190 342 190 276 q 213 462 190 410 q 278 545 235 515 q 381 575 321 575 q 474 548 432 575 q 541 468 516 520 q 565 342 565 415 q 541 213 565 265 q 474 136 516 162 q 381 110 432 110 "},"ǆ":{"ha":1435,"x_min":42,"x_max":1405,"o":"m 357 -14 q 492 17 433 -14 q 588 105 551 47 l 549 133 l 566 0 l 699 0 l 699 1042 l 553 1042 l 553 562 l 587 588 q 488 672 547 644 q 357 699 428 699 q 187 650 258 699 q 80 518 117 600 q 42 342 42 437 q 82 163 42 244 q 192 34 121 83 q 357 -14 263 -14 m 381 110 q 278 141 321 110 q 213 224 235 172 q 190 342 190 276 q 213 462 190 410 q 278 545 235 515 q 381 575 321 575 q 474 548 432 575 q 541 468 516 520 q 565 342 565 415 q 541 213 565 265 q 474 136 516 162 q 381 110 432 110 "},"e":{"ha":713,"x_min":41,"x_max":673,"o":"m 413 -14 q 545 3 488 -14 q 642 39 603 20 l 629 158 q 533 123 584 135 q 428 110 481 110 q 319 131 369 110 q 234 198 268 151 q 191 327 200 246 l 665 327 q 671 368 669 349 q 673 406 673 388 q 637 560 673 494 q 535 663 601 626 q 377 699 468 699 q 195 651 270 699 q 80 523 119 603 q 41 348 41 443 q 83 168 41 250 q 208 36 125 85 q 413 -14 290 -14 m 199 426 q 257 535 215 494 q 376 575 299 575 q 461 555 428 575 q 509 501 494 535 q 524 426 524 467 l 199 426 "},"é":{"ha":713,"x_min":41,"x_max":673,"o":"m 413 -14 q 545 3 488 -14 q 642 39 603 20 l 629 158 q 533 123 584 135 q 428 110 481 110 q 319 131 369 110 q 234 198 268 151 q 191 327 200 246 l 665 327 q 671 368 669 349 q 673 406 673 388 q 637 560 673 494 q 535 663 601 626 q 377 699 468 699 q 195 651 270 699 q 80 523 119 603 q 41 348 41 443 q 83 168 41 250 q 208 36 125 85 q 413 -14 290 -14 m 199 426 q 257 535 215 494 q 376 575 299 575 q 461 555 428 575 q 509 501 494 535 q 524 426 524 467 l 199 426 m 256 797 l 522 899 l 522 1046 l 256 892 l 256 797 "},"ĕ":{"ha":713,"x_min":41,"x_max":673,"o":"m 413 -14 q 545 3 488 -14 q 642 39 603 20 l 629 158 q 533 123 584 135 q 428 110 481 110 q 319 131 369 110 q 234 198 268 151 q 191 327 200 246 l 665 327 q 671 368 669 349 q 673 406 673 388 q 637 560 673 494 q 535 663 601 626 q 377 699 468 699 q 195 651 270 699 q 80 523 119 603 q 41 348 41 443 q 83 168 41 250 q 208 36 125 85 q 413 -14 290 -14 m 199 426 q 257 535 215 494 q 376 575 299 575 q 461 555 428 575 q 509 501 494 535 q 524 426 524 467 l 199 426 m 388 806 q 502 832 456 806 q 572 899 549 858 q 596 990 596 941 l 482 990 q 455 926 482 948 q 388 903 428 903 q 321 926 348 903 q 294 990 294 948 l 181 990 q 204 899 181 941 q 274 832 228 858 q 388 806 320 806 "},"ě":{"ha":713,"x_min":41,"x_max":673,"o":"m 413 -14 q 545 3 488 -14 q 642 39 603 20 l 629 158 q 533 123 584 135 q 428 110 481 110 q 319 131 369 110 q 234 198 268 151 q 191 327 200 246 l 665 327 q 671 368 669 349 q 673 406 673 388 q 637 560 673 494 q 535 663 601 626 q 377 699 468 699 q 195 651 270 699 q 80 523 119 603 q 41 348 41 443 q 83 168 41 250 q 208 36 125 85 q 413 -14 290 -14 m 199 426 q 257 535 215 494 q 376 575 299 575 q 461 555 428 575 q 509 501 494 535 q 524 426 524 467 l 199 426 "},"ḝ":{"ha":713,"x_min":41,"x_max":673,"o":"m 413 -14 q 545 3 488 -14 q 642 39 603 20 l 629 158 q 533 123 584 135 q 428 110 481 110 q 319 131 369 110 q 234 198 268 151 q 191 327 200 246 l 665 327 q 671 368 669 349 q 673 406 673 388 q 637 560 673 494 q 535 663 601 626 q 377 699 468 699 q 195 651 270 699 q 80 523 119 603 q 41 348 41 443 q 83 168 41 250 q 208 36 125 85 q 413 -14 290 -14 m 199 426 q 257 535 215 494 q 376 575 299 575 q 461 555 428 575 q 509 501 494 535 q 524 426 524 467 l 199 426 m 363 -110 l 397 0 l 324 0 l 288 -153 q 321 -145 306 -147 q 352 -142 337 -142 q 405 -156 388 -142 q 422 -195 422 -170 q 404 -232 422 -219 q 356 -245 386 -245 q 310 -239 332 -245 q 267 -222 289 -232 l 244 -295 q 291 -314 264 -306 q 355 -322 319 -322 q 463 -288 419 -322 q 506 -191 506 -255 q 473 -106 506 -137 q 381 -75 440 -75 q 346 -79 363 -75 q 313 -89 330 -83 l 363 -110 m 388 806 q 502 832 456 806 q 572 899 549 858 q 596 990 596 941 l 482 990 q 455 926 482 948 q 388 903 428 903 q 321 926 348 903 q 294 990 294 948 l 181 990 q 204 899 181 941 q 274 832 228 858 q 388 806 320 806 "},"ê":{"ha":713,"x_min":41,"x_max":673,"o":"m 413 -14 q 545 3 488 -14 q 642 39 603 20 l 629 158 q 533 123 584 135 q 428 110 481 110 q 319 131 369 110 q 234 198 268 151 q 191 327 200 246 l 665 327 q 671 368 669 349 q 673 406 673 388 q 637 560 673 494 q 535 663 601 626 q 377 699 468 699 q 195 651 270 699 q 80 523 119 603 q 41 348 41 443 q 83 168 41 250 q 208 36 125 85 q 413 -14 290 -14 m 199 426 q 257 535 215 494 q 376 575 299 575 q 461 555 428 575 q 509 501 494 535 q 524 426 524 467 l 199 426 m 209 778 l 388 890 l 567 778 l 567 873 l 388 1026 l 209 873 l 209 778 "},"ế":{"ha":713,"x_min":41,"x_max":731,"o":"m 413 -14 q 545 3 488 -14 q 642 39 603 20 l 629 158 q 533 123 584 135 q 428 110 481 110 q 319 131 369 110 q 234 198 268 151 q 191 327 200 246 l 665 327 q 671 368 669 349 q 673 406 673 388 q 637 560 673 494 q 535 663 601 626 q 377 699 468 699 q 195 651 270 699 q 80 523 119 603 q 41 348 41 443 q 83 168 41 250 q 208 36 125 85 q 413 -14 290 -14 m 199 426 q 257 535 215 494 q 376 575 299 575 q 461 555 428 575 q 509 501 494 535 q 524 426 524 467 l 199 426 m 209 756 l 388 851 l 567 756 l 567 848 l 388 974 l 209 848 l 209 756 m 493 961 l 592 961 l 731 1129 l 585 1129 l 493 961 "},"ệ":{"ha":713,"x_min":41,"x_max":673,"o":"m 413 -14 q 545 3 488 -14 q 642 39 603 20 l 629 158 q 533 123 584 135 q 428 110 481 110 q 319 131 369 110 q 234 198 268 151 q 191 327 200 246 l 665 327 q 671 368 669 349 q 673 406 673 388 q 637 560 673 494 q 535 663 601 626 q 377 699 468 699 q 195 651 270 699 q 80 523 119 603 q 41 348 41 443 q 83 168 41 250 q 208 36 125 85 q 413 -14 290 -14 m 199 426 q 257 535 215 494 q 376 575 299 575 q 461 555 428 575 q 509 501 494 535 q 524 426 524 467 l 199 426 m 209 778 l 388 890 l 567 778 l 567 873 l 388 1026 l 209 873 l 209 778 "},"ề":{"ha":713,"x_min":41,"x_max":673,"o":"m 413 -14 q 545 3 488 -14 q 642 39 603 20 l 629 158 q 533 123 584 135 q 428 110 481 110 q 319 131 369 110 q 234 198 268 151 q 191 327 200 246 l 665 327 q 671 368 669 349 q 673 406 673 388 q 637 560 673 494 q 535 663 601 626 q 377 699 468 699 q 195 651 270 699 q 80 523 119 603 q 41 348 41 443 q 83 168 41 250 q 208 36 125 85 q 413 -14 290 -14 m 199 426 q 257 535 215 494 q 376 575 299 575 q 461 555 428 575 q 509 501 494 535 q 524 426 524 467 l 199 426 m 209 756 l 388 851 l 567 756 l 567 848 l 388 974 l 209 848 l 209 756 m 517 961 l 613 961 l 538 1129 l 399 1129 l 517 961 "},"ể":{"ha":713,"x_min":41,"x_max":673,"o":"m 413 -14 q 545 3 488 -14 q 642 39 603 20 l 629 158 q 533 123 584 135 q 428 110 481 110 q 319 131 369 110 q 234 198 268 151 q 191 327 200 246 l 665 327 q 671 368 669 349 q 673 406 673 388 q 637 560 673 494 q 535 663 601 626 q 377 699 468 699 q 195 651 270 699 q 80 523 119 603 q 41 348 41 443 q 83 168 41 250 q 208 36 125 85 q 413 -14 290 -14 m 199 426 q 257 535 215 494 q 376 575 299 575 q 461 555 428 575 q 509 501 494 535 q 524 426 524 467 l 199 426 m 209 756 l 388 851 l 567 756 l 567 848 l 388 974 l 209 848 l 209 756 m 522 925 q 613 967 585 939 q 642 1043 642 996 q 602 1125 642 1097 q 504 1153 562 1153 q 445 1147 473 1153 q 393 1127 417 1140 l 417 1050 q 460 1069 438 1062 q 503 1076 482 1076 q 543 1066 528 1076 q 558 1035 558 1056 q 545 1003 558 1015 q 508 983 533 991 l 522 925 "},"ễ":{"ha":713,"x_min":41,"x_max":673,"o":"m 413 -14 q 545 3 488 -14 q 642 39 603 20 l 629 158 q 533 123 584 135 q 428 110 481 110 q 319 131 369 110 q 234 198 268 151 q 191 327 200 246 l 665 327 q 671 368 669 349 q 673 406 673 388 q 637 560 673 494 q 535 663 601 626 q 377 699 468 699 q 195 651 270 699 q 80 523 119 603 q 41 348 41 443 q 83 168 41 250 q 208 36 125 85 q 413 -14 290 -14 m 199 426 q 257 535 215 494 q 376 575 299 575 q 461 555 428 575 q 509 501 494 535 q 524 426 524 467 l 199 426 m 209 756 l 388 851 l 567 756 l 567 848 l 388 974 l 209 848 l 209 756 m 506 1028 q 582 1065 556 1028 q 608 1169 608 1101 l 512 1169 q 465 1120 512 1120 q 406 1135 439 1120 q 338 1164 373 1149 q 271 1178 303 1178 q 194 1142 221 1178 q 168 1036 168 1106 l 265 1036 q 311 1085 265 1085 q 370 1071 338 1085 q 439 1042 403 1057 q 506 1028 474 1028 "},"ȅ":{"ha":713,"x_min":41,"x_max":673,"o":"m 413 -14 q 545 3 488 -14 q 642 39 603 20 l 629 158 q 533 123 584 135 q 428 110 481 110 q 319 131 369 110 q 234 198 268 151 q 191 327 200 246 l 665 327 q 671 368 669 349 q 673 406 673 388 q 637 560 673 494 q 535 663 601 626 q 377 699 468 699 q 195 651 270 699 q 80 523 119 603 q 41 348 41 443 q 83 168 41 250 q 208 36 125 85 q 413 -14 290 -14 m 199 426 q 257 535 215 494 q 376 575 299 575 q 461 555 428 575 q 509 501 494 535 q 524 426 524 467 l 199 426 m 542 808 l 451 1047 l 305 1047 l 442 808 l 542 808 m 343 808 l 244 1047 l 97 1047 l 244 808 l 343 808 "},"ë":{"ha":713,"x_min":41,"x_max":673,"o":"m 413 -14 q 545 3 488 -14 q 642 39 603 20 l 629 158 q 533 123 584 135 q 428 110 481 110 q 319 131 369 110 q 234 198 268 151 q 191 327 200 246 l 665 327 q 671 368 669 349 q 673 406 673 388 q 637 560 673 494 q 535 663 601 626 q 377 699 468 699 q 195 651 270 699 q 80 523 119 603 q 41 348 41 443 q 83 168 41 250 q 208 36 125 85 q 413 -14 290 -14 m 199 426 q 257 535 215 494 q 376 575 299 575 q 461 555 428 575 q 509 501 494 535 q 524 426 524 467 l 199 426 m 462 821 l 587 821 l 587 938 l 462 938 l 462 821 m 190 821 l 315 821 l 315 938 l 190 938 l 190 821 "},"ė":{"ha":713,"x_min":41,"x_max":673,"o":"m 413 -14 q 545 3 488 -14 q 642 39 603 20 l 629 158 q 533 123 584 135 q 428 110 481 110 q 319 131 369 110 q 234 198 268 151 q 191 327 200 246 l 665 327 q 671 368 669 349 q 673 406 673 388 q 637 560 673 494 q 535 663 601 626 q 377 699 468 699 q 195 651 270 699 q 80 523 119 603 q 41 348 41 443 q 83 168 41 250 q 208 36 125 85 q 413 -14 290 -14 m 199 426 q 257 535 215 494 q 376 575 299 575 q 461 555 428 575 q 509 501 494 535 q 524 426 524 467 l 199 426 m 319 827 l 457 827 l 457 956 l 319 956 l 319 827 "},"ẹ":{"ha":713,"x_min":41,"x_max":673,"o":"m 413 -14 q 545 3 488 -14 q 642 39 603 20 l 629 158 q 533 123 584 135 q 428 110 481 110 q 319 131 369 110 q 234 198 268 151 q 191 327 200 246 l 665 327 q 671 368 669 349 q 673 406 673 388 q 637 560 673 494 q 535 663 601 626 q 377 699 468 699 q 195 651 270 699 q 80 523 119 603 q 41 348 41 443 q 83 168 41 250 q 208 36 125 85 q 413 -14 290 -14 m 199 426 q 257 535 215 494 q 376 575 299 575 q 461 555 428 575 q 509 501 494 535 q 524 426 524 467 l 199 426 "},"è":{"ha":713,"x_min":41,"x_max":673,"o":"m 413 -14 q 545 3 488 -14 q 642 39 603 20 l 629 158 q 533 123 584 135 q 428 110 481 110 q 319 131 369 110 q 234 198 268 151 q 191 327 200 246 l 665 327 q 671 368 669 349 q 673 406 673 388 q 637 560 673 494 q 535 663 601 626 q 377 699 468 699 q 195 651 270 699 q 80 523 119 603 q 41 348 41 443 q 83 168 41 250 q 208 36 125 85 q 413 -14 290 -14 m 199 426 q 257 535 215 494 q 376 575 299 575 q 461 555 428 575 q 509 501 494 535 q 524 426 524 467 l 199 426 m 520 797 l 520 892 l 255 1046 l 255 899 l 520 797 "},"ẻ":{"ha":713,"x_min":41,"x_max":673,"o":"m 413 -14 q 545 3 488 -14 q 642 39 603 20 l 629 158 q 533 123 584 135 q 428 110 481 110 q 319 131 369 110 q 234 198 268 151 q 191 327 200 246 l 665 327 q 671 368 669 349 q 673 406 673 388 q 637 560 673 494 q 535 663 601 626 q 377 699 468 699 q 195 651 270 699 q 80 523 119 603 q 41 348 41 443 q 83 168 41 250 q 208 36 125 85 q 413 -14 290 -14 m 199 426 q 257 535 215 494 q 376 575 299 575 q 461 555 428 575 q 509 501 494 535 q 524 426 524 467 l 199 426 m 410 735 q 481 802 457 770 q 505 878 505 833 q 465 967 505 936 q 367 998 425 998 q 308 991 336 998 q 256 972 280 984 l 280 894 q 323 914 301 906 q 366 921 344 921 q 406 909 392 921 q 421 874 421 897 q 406 830 421 849 q 360 783 391 812 l 410 735 "},"ȇ":{"ha":713,"x_min":41,"x_max":673,"o":"m 413 -14 q 545 3 488 -14 q 642 39 603 20 l 629 158 q 533 123 584 135 q 428 110 481 110 q 319 131 369 110 q 234 198 268 151 q 191 327 200 246 l 665 327 q 671 368 669 349 q 673 406 673 388 q 637 560 673 494 q 535 663 601 626 q 377 699 468 699 q 195 651 270 699 q 80 523 119 603 q 41 348 41 443 q 83 168 41 250 q 208 36 125 85 q 413 -14 290 -14 m 199 426 q 257 535 215 494 q 376 575 299 575 q 461 555 428 575 q 509 501 494 535 q 524 426 524 467 l 199 426 m 388 990 q 274 965 320 990 q 204 897 228 939 q 181 806 181 856 l 294 806 q 321 871 294 849 q 388 893 348 893 q 455 871 428 893 q 482 806 482 849 l 596 806 q 572 897 596 856 q 502 965 549 939 q 388 990 456 990 "},"ē":{"ha":713,"x_min":41,"x_max":673,"o":"m 413 -14 q 545 3 488 -14 q 642 39 603 20 l 629 158 q 533 123 584 135 q 428 110 481 110 q 319 131 369 110 q 234 198 268 151 q 191 327 200 246 l 665 327 q 671 368 669 349 q 673 406 673 388 q 637 560 673 494 q 535 663 601 626 q 377 699 468 699 q 195 651 270 699 q 80 523 119 603 q 41 348 41 443 q 83 168 41 250 q 208 36 125 85 q 413 -14 290 -14 m 199 426 q 257 535 215 494 q 376 575 299 575 q 461 555 428 575 q 509 501 494 535 q 524 426 524 467 l 199 426 m 164 826 l 613 826 l 613 931 l 164 931 l 164 826 "},"ḗ":{"ha":713,"x_min":41,"x_max":673,"o":"m 413 -14 q 545 3 488 -14 q 642 39 603 20 l 629 158 q 533 123 584 135 q 428 110 481 110 q 319 131 369 110 q 234 198 268 151 q 191 327 200 246 l 665 327 q 671 368 669 349 q 673 406 673 388 q 637 560 673 494 q 535 663 601 626 q 377 699 468 699 q 195 651 270 699 q 80 523 119 603 q 41 348 41 443 q 83 168 41 250 q 208 36 125 85 q 413 -14 290 -14 m 199 426 q 257 535 215 494 q 376 575 299 575 q 461 555 428 575 q 509 501 494 535 q 524 426 524 467 l 199 426 m 164 815 l 613 815 l 613 915 l 164 915 l 164 815 m 256 1011 l 522 1092 l 522 1230 l 256 1098 l 256 1011 "},"ḕ":{"ha":713,"x_min":41,"x_max":673,"o":"m 413 -14 q 545 3 488 -14 q 642 39 603 20 l 629 158 q 533 123 584 135 q 428 110 481 110 q 319 131 369 110 q 234 198 268 151 q 191 327 200 246 l 665 327 q 671 368 669 349 q 673 406 673 388 q 637 560 673 494 q 535 663 601 626 q 377 699 468 699 q 195 651 270 699 q 80 523 119 603 q 41 348 41 443 q 83 168 41 250 q 208 36 125 85 q 413 -14 290 -14 m 199 426 q 257 535 215 494 q 376 575 299 575 q 461 555 428 575 q 509 501 494 535 q 524 426 524 467 l 199 426 m 164 815 l 613 815 l 613 915 l 164 915 l 164 815 m 520 1011 l 520 1098 l 255 1230 l 255 1092 l 520 1011 "},"ę":{"ha":713,"x_min":41,"x_max":709,"o":"m 413 -14 q 545 3 488 -14 q 642 39 603 20 l 629 158 q 533 123 584 135 q 428 110 481 110 q 319 131 369 110 q 234 198 268 151 q 191 327 200 246 l 665 327 q 671 368 669 349 q 673 406 673 388 q 637 560 673 494 q 535 663 601 626 q 377 699 468 699 q 195 651 270 699 q 80 523 119 603 q 41 348 41 443 q 83 168 41 250 q 208 36 125 85 q 413 -14 290 -14 m 199 426 q 257 535 215 494 q 376 575 299 575 q 461 555 428 575 q 509 501 494 535 q 524 426 524 467 l 199 426 m 564 39 q 487 -31 524 14 q 451 -131 451 -76 q 492 -221 451 -190 q 592 -252 533 -252 q 659 -244 630 -252 q 709 -225 689 -235 l 688 -153 q 647 -169 667 -163 q 601 -175 626 -175 q 553 -158 572 -175 q 535 -107 535 -141 q 565 -33 535 -69 q 642 39 594 2 l 564 39 "},"ẽ":{"ha":713,"x_min":41,"x_max":673,"o":"m 413 -14 q 545 3 488 -14 q 642 39 603 20 l 629 158 q 533 123 584 135 q 428 110 481 110 q 319 131 369 110 q 234 198 268 151 q 191 327 200 246 l 665 327 q 671 368 669 349 q 673 406 673 388 q 637 560 673 494 q 535 663 601 626 q 377 699 468 699 q 195 651 270 699 q 80 523 119 603 q 41 348 41 443 q 83 168 41 250 q 208 36 125 85 q 413 -14 290 -14 m 199 426 q 257 535 215 494 q 376 575 299 575 q 461 555 428 575 q 509 501 494 535 q 524 426 524 467 l 199 426 m 502 804 q 589 845 558 804 q 622 965 619 887 l 512 965 q 465 912 512 912 q 405 928 435 912 q 342 960 374 944 q 274 976 309 976 q 188 934 218 976 q 155 815 158 893 l 265 815 q 312 868 265 868 q 372 852 341 868 q 435 820 402 836 q 502 804 467 804 "},"ə":{"ha":713,"x_min":40,"x_max":672,"o":"m 300 700 q 168 683 226 700 q 71 647 110 666 l 84 528 q 181 564 129 551 q 285 576 232 576 q 394 556 344 576 q 479 488 445 535 q 522 359 513 440 l 48 359 q 42 318 44 338 q 40 281 40 299 q 76 126 40 192 q 178 24 112 60 q 336 -13 245 -13 q 518 35 443 -13 q 633 163 594 83 q 672 338 672 243 q 630 518 672 436 q 506 650 588 601 q 300 700 423 700 m 514 260 q 456 151 498 192 q 338 111 414 111 q 252 131 285 111 q 204 185 219 151 q 189 260 189 219 l 514 260 "},"f":{"ha":465,"x_min":18,"x_max":443,"o":"m 128 0 l 273 0 l 273 570 l 443 570 l 443 686 l 273 686 l 273 824 q 295 895 273 874 q 357 917 318 917 q 392 914 377 917 q 420 906 406 911 l 438 1026 q 389 1038 416 1033 q 328 1042 362 1042 q 179 987 230 1042 q 128 842 128 933 l 128 686 l 34 686 l 18 570 l 128 570 l 128 0 "},"g":{"ha":694,"x_min":35,"x_max":694,"o":"m 358 -349 q 538 -323 462 -349 q 654 -248 613 -297 q 694 -129 694 -199 q 633 6 694 -42 q 460 69 572 53 l 305 92 q 241 110 261 99 q 221 138 221 121 q 246 167 221 159 q 286 159 265 163 q 330 156 308 156 q 482 193 419 156 q 578 292 545 230 q 611 431 611 353 q 598 515 611 474 q 559 588 585 555 q 595 593 576 592 q 621 594 614 594 q 643 594 632 594 q 665 594 654 594 l 679 688 q 667 688 673 688 q 653 688 660 688 q 561 677 603 688 q 493 651 520 667 q 418 687 460 674 q 330 700 377 700 q 177 664 240 700 q 82 566 115 628 q 49 431 49 505 q 78 299 49 359 q 163 203 107 240 q 105 163 124 188 q 86 106 86 138 q 103 54 86 77 q 151 14 120 31 q 65 -53 96 -13 q 35 -147 35 -93 q 76 -257 35 -212 q 190 -325 117 -301 q 358 -349 263 -349 m 367 -229 q 219 -203 274 -229 q 165 -123 165 -178 q 191 -59 165 -85 q 253 -18 217 -33 l 429 -46 q 525 -77 493 -57 q 557 -136 557 -97 q 508 -206 557 -183 q 367 -229 460 -229 m 330 268 q 220 313 258 268 q 183 430 183 358 q 220 545 183 501 q 330 589 258 589 q 439 545 402 589 q 476 430 476 501 q 439 313 476 358 q 330 268 402 268 "},"ğ":{"ha":694,"x_min":35,"x_max":694,"o":"m 358 -349 q 538 -323 462 -349 q 654 -248 613 -297 q 694 -129 694 -199 q 633 6 694 -42 q 460 69 572 53 l 305 92 q 241 110 261 99 q 221 138 221 121 q 246 167 221 159 q 286 159 265 163 q 330 156 308 156 q 482 193 419 156 q 578 292 545 230 q 611 431 611 353 q 598 515 611 474 q 559 588 585 555 q 595 593 576 592 q 621 594 614 594 q 643 594 632 594 q 665 594 654 594 l 679 688 q 667 688 673 688 q 653 688 660 688 q 561 677 603 688 q 493 651 520 667 q 418 687 460 674 q 330 700 377 700 q 177 664 240 700 q 82 566 115 628 q 49 431 49 505 q 78 299 49 359 q 163 203 107 240 q 105 163 124 188 q 86 106 86 138 q 103 54 86 77 q 151 14 120 31 q 65 -53 96 -13 q 35 -147 35 -93 q 76 -257 35 -212 q 190 -325 117 -301 q 358 -349 263 -349 m 367 -229 q 219 -203 274 -229 q 165 -123 165 -178 q 191 -59 165 -85 q 253 -18 217 -33 l 429 -46 q 525 -77 493 -57 q 557 -136 557 -97 q 508 -206 557 -183 q 367 -229 460 -229 m 330 268 q 220 313 258 268 q 183 430 183 358 q 220 545 183 501 q 330 589 258 589 q 439 545 402 589 q 476 430 476 501 q 439 313 476 358 q 330 268 402 268 m 350 806 q 464 832 418 806 q 534 899 510 858 q 558 990 558 941 l 444 990 q 417 926 444 948 q 350 903 390 903 q 283 926 310 903 q 256 990 256 948 l 142 990 q 166 899 142 941 q 236 832 190 858 q 350 806 282 806 "},"ǧ":{"ha":694,"x_min":35,"x_max":694,"o":"m 358 -349 q 538 -323 462 -349 q 654 -248 613 -297 q 694 -129 694 -199 q 633 6 694 -42 q 460 69 572 53 l 305 92 q 241 110 261 99 q 221 138 221 121 q 246 167 221 159 q 286 159 265 163 q 330 156 308 156 q 482 193 419 156 q 578 292 545 230 q 611 431 611 353 q 598 515 611 474 q 559 588 585 555 q 595 593 576 592 q 621 594 614 594 q 643 594 632 594 q 665 594 654 594 l 679 688 q 667 688 673 688 q 653 688 660 688 q 561 677 603 688 q 493 651 520 667 q 418 687 460 674 q 330 700 377 700 q 177 664 240 700 q 82 566 115 628 q 49 431 49 505 q 78 299 49 359 q 163 203 107 240 q 105 163 124 188 q 86 106 86 138 q 103 54 86 77 q 151 14 120 31 q 65 -53 96 -13 q 35 -147 35 -93 q 76 -257 35 -212 q 190 -325 117 -301 q 358 -349 263 -349 m 367 -229 q 219 -203 274 -229 q 165 -123 165 -178 q 191 -59 165 -85 q 253 -18 217 -33 l 429 -46 q 525 -77 493 -57 q 557 -136 557 -97 q 508 -206 557 -183 q 367 -229 460 -229 m 330 268 q 220 313 258 268 q 183 430 183 358 q 220 545 183 501 q 330 589 258 589 q 439 545 402 589 q 476 430 476 501 q 439 313 476 358 q 330 268 402 268 m 350 776 l 529 930 l 529 1025 l 350 912 l 171 1025 l 171 930 l 350 776 "},"ĝ":{"ha":694,"x_min":35,"x_max":694,"o":"m 358 -349 q 538 -323 462 -349 q 654 -248 613 -297 q 694 -129 694 -199 q 633 6 694 -42 q 460 69 572 53 l 305 92 q 241 110 261 99 q 221 138 221 121 q 246 167 221 159 q 286 159 265 163 q 330 156 308 156 q 482 193 419 156 q 578 292 545 230 q 611 431 611 353 q 598 515 611 474 q 559 588 585 555 q 595 593 576 592 q 621 594 614 594 q 643 594 632 594 q 665 594 654 594 l 679 688 q 667 688 673 688 q 653 688 660 688 q 561 677 603 688 q 493 651 520 667 q 418 687 460 674 q 330 700 377 700 q 177 664 240 700 q 82 566 115 628 q 49 431 49 505 q 78 299 49 359 q 163 203 107 240 q 105 163 124 188 q 86 106 86 138 q 103 54 86 77 q 151 14 120 31 q 65 -53 96 -13 q 35 -147 35 -93 q 76 -257 35 -212 q 190 -325 117 -301 q 358 -349 263 -349 m 367 -229 q 219 -203 274 -229 q 165 -123 165 -178 q 191 -59 165 -85 q 253 -18 217 -33 l 429 -46 q 525 -77 493 -57 q 557 -136 557 -97 q 508 -206 557 -183 q 367 -229 460 -229 m 330 268 q 220 313 258 268 q 183 430 183 358 q 220 545 183 501 q 330 589 258 589 q 439 545 402 589 q 476 430 476 501 q 439 313 476 358 q 330 268 402 268 m 171 778 l 350 890 l 529 778 l 529 873 l 350 1026 l 171 873 l 171 778 "},"ģ":{"ha":694,"x_min":35,"x_max":694,"o":"m 358 -349 q 538 -323 462 -349 q 654 -248 613 -297 q 694 -129 694 -199 q 633 6 694 -42 q 460 69 572 53 l 305 92 q 241 110 261 99 q 221 138 221 121 q 246 167 221 159 q 286 159 265 163 q 330 156 308 156 q 482 193 419 156 q 578 292 545 230 q 611 431 611 353 q 598 515 611 474 q 559 588 585 555 q 595 593 576 592 q 621 594 614 594 q 643 594 632 594 q 665 594 654 594 l 679 688 q 667 688 673 688 q 653 688 660 688 q 561 677 603 688 q 493 651 520 667 q 418 687 460 674 q 330 700 377 700 q 177 664 240 700 q 82 566 115 628 q 49 431 49 505 q 78 299 49 359 q 163 203 107 240 q 105 163 124 188 q 86 106 86 138 q 103 54 86 77 q 151 14 120 31 q 65 -53 96 -13 q 35 -147 35 -93 q 76 -257 35 -212 q 190 -325 117 -301 q 358 -349 263 -349 m 367 -229 q 219 -203 274 -229 q 165 -123 165 -178 q 191 -59 165 -85 q 253 -18 217 -33 l 429 -46 q 525 -77 493 -57 q 557 -136 557 -97 q 508 -206 557 -183 q 367 -229 460 -229 m 330 268 q 220 313 258 268 q 183 430 183 358 q 220 545 183 501 q 330 589 258 589 q 439 545 402 589 q 476 430 476 501 q 439 313 476 358 q 330 268 402 268 "},"ġ":{"ha":694,"x_min":35,"x_max":694,"o":"m 358 -349 q 538 -323 462 -349 q 654 -248 613 -297 q 694 -129 694 -199 q 633 6 694 -42 q 460 69 572 53 l 305 92 q 241 110 261 99 q 221 138 221 121 q 246 167 221 159 q 286 159 265 163 q 330 156 308 156 q 482 193 419 156 q 578 292 545 230 q 611 431 611 353 q 598 515 611 474 q 559 588 585 555 q 595 593 576 592 q 621 594 614 594 q 643 594 632 594 q 665 594 654 594 l 679 688 q 667 688 673 688 q 653 688 660 688 q 561 677 603 688 q 493 651 520 667 q 418 687 460 674 q 330 700 377 700 q 177 664 240 700 q 82 566 115 628 q 49 431 49 505 q 78 299 49 359 q 163 203 107 240 q 105 163 124 188 q 86 106 86 138 q 103 54 86 77 q 151 14 120 31 q 65 -53 96 -13 q 35 -147 35 -93 q 76 -257 35 -212 q 190 -325 117 -301 q 358 -349 263 -349 m 367 -229 q 219 -203 274 -229 q 165 -123 165 -178 q 191 -59 165 -85 q 253 -18 217 -33 l 429 -46 q 525 -77 493 -57 q 557 -136 557 -97 q 508 -206 557 -183 q 367 -229 460 -229 m 330 268 q 220 313 258 268 q 183 430 183 358 q 220 545 183 501 q 330 589 258 589 q 439 545 402 589 q 476 430 476 501 q 439 313 476 358 q 330 268 402 268 m 281 827 l 419 827 l 419 956 l 281 956 l 281 827 "},"ḡ":{"ha":694,"x_min":35,"x_max":694,"o":"m 358 -349 q 538 -323 462 -349 q 654 -248 613 -297 q 694 -129 694 -199 q 633 6 694 -42 q 460 69 572 53 l 305 92 q 241 110 261 99 q 221 138 221 121 q 246 167 221 159 q 286 159 265 163 q 330 156 308 156 q 482 193 419 156 q 578 292 545 230 q 611 431 611 353 q 598 515 611 474 q 559 588 585 555 q 595 593 576 592 q 621 594 614 594 q 643 594 632 594 q 665 594 654 594 l 679 688 q 667 688 673 688 q 653 688 660 688 q 561 677 603 688 q 493 651 520 667 q 418 687 460 674 q 330 700 377 700 q 177 664 240 700 q 82 566 115 628 q 49 431 49 505 q 78 299 49 359 q 163 203 107 240 q 105 163 124 188 q 86 106 86 138 q 103 54 86 77 q 151 14 120 31 q 65 -53 96 -13 q 35 -147 35 -93 q 76 -257 35 -212 q 190 -325 117 -301 q 358 -349 263 -349 m 367 -229 q 219 -203 274 -229 q 165 -123 165 -178 q 191 -59 165 -85 q 253 -18 217 -33 l 429 -46 q 525 -77 493 -57 q 557 -136 557 -97 q 508 -206 557 -183 q 367 -229 460 -229 m 330 268 q 220 313 258 268 q 183 430 183 358 q 220 545 183 501 q 330 589 258 589 q 439 545 402 589 q 476 430 476 501 q 439 313 476 358 q 330 268 402 268 m 126 826 l 574 826 l 574 931 l 126 931 l 126 826 "},"h":{"ha":758,"x_min":81,"x_max":682,"o":"m 81 0 l 227 0 l 227 541 l 202 458 q 276 543 231 511 q 384 575 321 575 q 500 525 463 575 q 537 368 537 474 l 537 0 l 682 0 l 682 382 q 653 548 682 476 q 567 659 625 619 q 419 699 508 699 q 285 668 339 699 q 185 590 231 638 l 227 576 l 227 1042 l 81 1042 l 81 0 "},"ħ":{"ha":760,"x_min":-18,"x_max":685,"o":"m 84 0 l 230 0 l 230 549 l 204 458 q 278 545 234 516 q 390 575 322 575 q 506 527 472 575 q 540 368 540 479 l 540 0 l 685 0 l 685 374 q 659 543 685 469 q 576 658 633 616 q 426 699 519 699 q 295 672 349 699 q 200 595 241 644 l 230 583 l 230 1042 l 84 1042 l 84 0 m -18 815 l 438 815 l 438 920 l -18 920 l -18 815 "},"ḫ":{"ha":758,"x_min":81,"x_max":682,"o":"m 81 0 l 227 0 l 227 541 l 202 458 q 276 543 231 511 q 384 575 321 575 q 500 525 463 575 q 537 368 537 474 l 537 0 l 682 0 l 682 382 q 653 548 682 476 q 567 659 625 619 q 419 699 508 699 q 285 668 339 699 q 185 590 231 638 l 227 576 l 227 1042 l 81 1042 l 81 0 "},"ĥ":{"ha":758,"x_min":-24,"x_max":682,"o":"m 81 0 l 227 0 l 227 541 l 202 458 q 276 543 231 511 q 384 575 321 575 q 500 525 463 575 q 537 368 537 474 l 537 0 l 682 0 l 682 382 q 653 548 682 476 q 567 659 625 619 q 419 699 508 699 q 285 668 339 699 q 185 590 231 638 l 227 576 l 227 1042 l 81 1042 l 81 0 m -24 1089 l 155 1184 l 334 1089 l 334 1181 l 155 1307 l -24 1181 l -24 1089 "},"ḥ":{"ha":758,"x_min":81,"x_max":682,"o":"m 81 0 l 227 0 l 227 541 l 202 458 q 276 543 231 511 q 384 575 321 575 q 500 525 463 575 q 537 368 537 474 l 537 0 l 682 0 l 682 382 q 653 548 682 476 q 567 659 625 619 q 419 699 508 699 q 285 668 339 699 q 185 590 231 638 l 227 576 l 227 1042 l 81 1042 l 81 0 "},"i":{"ha":311,"x_min":83,"x_max":228,"o":"m 83 0 l 228 0 l 228 686 l 83 686 l 83 0 m 83 819 l 228 819 l 228 972 l 83 972 l 83 819 "},"ı":{"ha":311,"x_min":83,"x_max":228,"o":"m 83 0 l 228 0 l 228 686 l 83 686 l 83 0 "},"í":{"ha":311,"x_min":24,"x_max":289,"o":"m 83 0 l 228 0 l 228 686 l 83 686 l 83 0 m 24 797 l 289 899 l 289 1046 l 24 892 l 24 797 "},"ĭ":{"ha":311,"x_min":-52,"x_max":363,"o":"m 83 0 l 228 0 l 228 686 l 83 686 l 83 0 m 156 806 q 270 832 224 806 q 340 899 316 858 q 363 990 363 941 l 249 990 q 223 926 249 948 q 156 903 196 903 q 89 926 115 903 q 62 990 62 948 l -52 990 q -28 899 -52 941 q 41 832 -5 858 q 156 806 88 806 "},"î":{"ha":311,"x_min":-24,"x_max":335,"o":"m 83 0 l 228 0 l 228 686 l 83 686 l 83 0 m -24 778 l 156 890 l 335 778 l 335 873 l 156 1026 l -24 873 l -24 778 "},"ȉ":{"ha":311,"x_min":-135,"x_max":309,"o":"m 83 0 l 228 0 l 228 686 l 83 686 l 83 0 m 309 808 l 218 1047 l 72 1047 l 210 808 l 309 808 m 110 808 l 11 1047 l -135 1047 l 11 808 l 110 808 "},"ï":{"ha":311,"x_min":-44,"x_max":354,"o":"m 83 0 l 228 0 l 228 686 l 83 686 l 83 0 m 229 821 l 354 821 l 354 938 l 229 938 l 229 821 m -43 821 l 82 821 l 82 938 l -43 938 l -43 821 "},"ḯ":{"ha":311,"x_min":-44,"x_max":354,"o":"m 83 0 l 228 0 l 228 686 l 83 686 l 83 0 m -43 810 l 82 810 l 82 921 l -43 921 l -43 810 m 229 810 l 354 810 l 354 921 l 229 921 l 229 810 m 24 989 l 289 1069 l 289 1208 l 24 1076 l 24 989 "},"ị":{"ha":311,"x_min":83,"x_max":228,"o":"m 83 0 l 228 0 l 228 686 l 83 686 l 83 0 m 83 819 l 228 819 l 228 972 l 83 972 l 83 819 "},"ì":{"ha":311,"x_min":22,"x_max":288,"o":"m 83 0 l 228 0 l 228 686 l 83 686 l 83 0 m 288 797 l 288 892 l 22 1046 l 22 899 l 288 797 "},"ỉ":{"ha":311,"x_min":24,"x_max":272,"o":"m 83 0 l 228 0 l 228 686 l 83 686 l 83 0 m 177 735 q 248 802 224 770 q 272 878 272 833 q 232 967 272 936 q 135 998 192 998 q 75 991 103 998 q 24 972 47 984 l 47 894 q 90 914 69 906 q 133 921 112 921 q 174 909 159 921 q 188 874 188 897 q 173 830 188 849 q 128 783 158 812 l 177 735 "},"ȋ":{"ha":311,"x_min":-52,"x_max":363,"o":"m 83 0 l 228 0 l 228 686 l 83 686 l 83 0 m 156 990 q 41 965 88 990 q -28 897 -5 939 q -52 806 -52 856 l 62 806 q 89 871 62 849 q 156 893 115 893 q 223 871 196 893 q 249 806 249 849 l 363 806 q 340 897 363 856 q 270 965 316 939 q 156 990 224 990 "},"ĳ":{"ha":622,"x_min":83,"x_max":539,"o":"m 83 0 l 228 0 l 228 686 l 83 686 l 83 0 m 83 819 l 228 819 l 228 972 l 83 972 l 83 819 m 315 -336 l 362 -332 q 448 -312 408 -329 q 514 -258 488 -296 q 539 -151 539 -219 l 539 686 l 394 686 l 394 -94 q 386 -170 394 -143 q 358 -208 378 -197 q 300 -221 338 -219 l 315 -336 m 394 819 l 539 819 l 539 972 l 394 972 l 394 819 "},"ī":{"ha":311,"x_min":-69,"x_max":380,"o":"m 83 0 l 228 0 l 228 686 l 83 686 l 83 0 m -69 826 l 380 826 l 380 931 l -69 931 l -69 826 "},"į":{"ha":311,"x_min":36,"x_max":294,"o":"m 83 0 l 228 0 l 228 686 l 83 686 l 83 0 m 83 819 l 228 819 l 228 972 l 83 972 l 83 819 m 149 0 q 73 -70 109 -25 q 36 -170 36 -115 q 77 -260 36 -228 q 177 -291 118 -291 q 245 -283 215 -291 q 294 -264 274 -274 l 273 -192 q 232 -208 253 -202 q 187 -214 211 -214 q 139 -197 157 -214 q 120 -146 120 -180 q 150 -72 120 -108 q 228 0 180 -37 l 149 0 "},"ĩ":{"ha":311,"x_min":-78,"x_max":389,"o":"m 83 0 l 228 0 l 228 686 l 83 686 l 83 0 m 269 804 q 356 845 326 804 q 389 965 386 887 l 279 965 q 232 912 279 912 q 172 928 203 912 q 109 960 142 944 q 42 976 76 976 q -44 934 -15 976 q -78 815 -74 893 l 32 815 q 79 868 32 868 q 139 852 108 868 q 202 820 169 836 q 269 804 235 804 "},"j":{"ha":311,"x_min":-11,"x_max":228,"o":"m 3 -336 l 51 -332 q 137 -312 97 -329 q 202 -258 177 -296 q 228 -151 228 -219 l 228 686 l 83 686 l 83 -94 q 75 -170 83 -143 q 47 -208 67 -197 q -11 -221 26 -219 l 3 -336 m 83 819 l 228 819 l 228 972 l 83 972 l 83 819 "},"ȷ":{"ha":311,"x_min":-11,"x_max":228,"o":"m 3 -336 l 54 -332 q 140 -309 101 -329 q 204 -249 180 -288 q 228 -151 228 -210 l 228 686 l 83 686 l 83 -94 q 76 -175 83 -149 q 49 -210 69 -201 q -11 -221 28 -219 l 3 -336 "},"ĵ":{"ha":311,"x_min":-24,"x_max":335,"o":"m 3 -336 l 54 -332 q 140 -309 101 -329 q 204 -249 180 -288 q 228 -151 228 -210 l 228 686 l 83 686 l 83 -94 q 76 -175 83 -149 q 49 -210 69 -201 q -11 -221 28 -219 l 3 -336 m -24 778 l 156 890 l 335 778 l 335 873 l 156 1026 l -24 873 l -24 778 "},"k":{"ha":644,"x_min":81,"x_max":639,"o":"m 81 0 l 226 0 l 226 330 l 468 0 l 639 0 l 369 363 l 633 686 l 462 686 l 226 389 l 226 1042 l 81 1042 l 81 0 "},"ķ":{"ha":644,"x_min":81,"x_max":639,"o":"m 81 0 l 226 0 l 226 330 l 468 0 l 639 0 l 369 363 l 633 686 l 462 686 l 226 389 l 226 1042 l 81 1042 l 81 0 m 351 -428 l 429 -262 l 429 -126 l 270 -126 l 270 -278 l 325 -278 l 274 -428 l 351 -428 "},"ĸ":{"ha":706,"x_min":83,"x_max":698,"o":"m 83 0 l 228 0 l 228 322 l 527 0 l 698 0 l 357 356 l 694 686 l 524 686 l 228 381 l 228 686 l 83 686 l 83 0 "},"l":{"ha":344,"x_min":82,"x_max":326,"o":"m 259 -14 l 309 -14 l 326 103 q 263 111 284 103 q 234 145 242 119 q 227 229 227 172 l 227 1042 l 82 1042 l 82 158 q 100 74 82 113 q 156 10 117 35 q 259 -14 195 -14 "},"ĺ":{"ha":344,"x_min":22,"x_max":326,"o":"m 259 -14 l 309 -14 l 326 103 q 263 111 284 103 q 234 145 242 119 q 227 229 227 172 l 227 1042 l 82 1042 l 82 158 q 100 74 82 113 q 156 10 117 35 q 259 -14 195 -14 m 23 1128 l 288 1208 l 288 1347 l 23 1215 l 23 1128 "},"ľ":{"ha":406,"x_min":82,"x_max":427,"o":"m 259 -14 l 309 -14 l 326 103 q 263 111 284 103 q 234 145 242 119 q 227 229 227 172 l 227 1042 l 82 1042 l 82 158 q 100 74 82 113 q 156 10 117 35 q 259 -14 195 -14 m 294 804 l 388 804 l 427 1042 l 294 1042 l 294 804 "},"ļ":{"ha":344,"x_min":82,"x_max":326,"o":"m 259 -14 l 309 -14 l 326 103 q 263 111 284 103 q 234 145 242 119 q 227 229 227 172 l 227 1042 l 82 1042 l 82 158 q 100 74 82 113 q 156 10 117 35 q 259 -14 195 -14 m 217 -428 l 296 -262 l 296 -126 l 137 -126 l 137 -278 l 192 -278 l 141 -428 l 217 -428 "},"ŀ":{"ha":415,"x_min":82,"x_max":429,"o":"m 259 -14 l 309 -14 l 326 103 q 263 111 284 103 q 234 145 242 119 q 227 229 227 172 l 227 1042 l 82 1042 l 82 158 q 100 74 82 113 q 156 10 117 35 q 259 -14 195 -14 m 296 505 l 429 505 l 429 648 l 296 648 l 296 505 "},"ḷ":{"ha":344,"x_min":82,"x_max":326,"o":"m 259 -14 l 309 -14 l 326 103 q 263 111 284 103 q 234 145 242 119 q 227 229 227 172 l 227 1042 l 82 1042 l 82 158 q 100 74 82 113 q 156 10 117 35 q 259 -14 195 -14 "},"ǉ":{"ha":655,"x_min":82,"x_max":572,"o":"m 259 -14 l 309 -14 l 326 103 q 263 111 284 103 q 234 145 242 119 q 227 229 227 172 l 227 1042 l 82 1042 l 82 158 q 100 74 82 113 q 156 10 117 35 q 259 -14 195 -14 m 347 -336 l 394 -332 q 481 -312 440 -329 q 546 -258 521 -296 q 572 -151 572 -219 l 572 686 l 426 686 l 426 -94 q 419 -170 426 -143 q 391 -208 411 -197 q 333 -221 370 -219 l 347 -336 m 426 819 l 572 819 l 572 972 l 426 972 l 426 819 "},"ḻ":{"ha":344,"x_min":-10,"x_max":440,"o":"m 259 -14 l 309 -14 l 326 103 q 263 111 284 103 q 234 145 242 119 q 227 229 227 172 l 227 1042 l 82 1042 l 82 158 q 100 74 82 113 q 156 10 117 35 q 259 -14 195 -14 "},"ł":{"ha":340,"x_min":-19,"x_max":329,"o":"m 251 -14 l 301 -14 l 317 103 q 255 111 276 103 q 226 145 233 119 q 219 229 219 172 l 219 1042 l 74 1042 l 74 158 q 91 74 74 113 q 148 10 109 35 q 251 -14 187 -14 m -19 540 l 329 633 l 329 738 l -19 647 l -19 540 "},"m":{"ha":1213,"x_min":83,"x_max":1138,"o":"m 83 0 l 228 0 l 228 537 l 206 458 q 276 546 228 517 q 389 575 324 575 q 469 556 436 575 q 520 494 503 538 q 538 374 538 450 l 538 0 l 683 0 l 683 391 q 690 458 683 425 q 714 517 697 490 q 764 559 732 544 q 845 575 796 575 q 958 530 924 575 q 992 389 992 485 l 992 0 l 1138 0 l 1138 395 q 1108 561 1138 494 q 1020 664 1079 629 q 871 699 960 699 q 711 659 775 699 q 616 548 648 619 l 653 535 q 598 631 633 594 q 519 683 564 667 q 422 699 475 699 q 294 673 353 699 q 183 594 236 647 l 221 568 l 201 686 l 83 686 l 83 0 "},"ṃ":{"ha":1213,"x_min":83,"x_max":1138,"o":"m 83 0 l 228 0 l 228 537 l 206 458 q 276 546 228 517 q 389 575 324 575 q 469 556 436 575 q 520 494 503 538 q 538 374 538 450 l 538 0 l 683 0 l 683 391 q 690 458 683 425 q 714 517 697 490 q 764 559 732 544 q 845 575 796 575 q 958 530 924 575 q 992 389 992 485 l 992 0 l 1138 0 l 1138 395 q 1108 561 1138 494 q 1020 664 1079 629 q 871 699 960 699 q 711 659 775 699 q 616 548 648 619 l 653 535 q 598 631 633 594 q 519 683 564 667 q 422 699 475 699 q 294 673 353 699 q 183 594 236 647 l 221 568 l 201 686 l 83 686 l 83 0 "},"n":{"ha":772,"x_min":83,"x_max":697,"o":"m 83 0 l 228 0 l 228 538 l 206 458 q 277 545 228 516 q 390 575 326 575 q 515 526 478 575 q 551 374 551 478 l 551 0 l 697 0 l 697 381 q 632 612 697 525 q 425 699 567 699 q 297 674 358 699 q 180 591 236 649 l 224 556 l 207 686 l 83 686 l 83 0 "},"ń":{"ha":772,"x_min":83,"x_max":697,"o":"m 83 0 l 228 0 l 228 538 l 206 458 q 277 545 228 516 q 390 575 326 575 q 515 526 478 575 q 551 374 551 478 l 551 0 l 697 0 l 697 381 q 632 612 697 525 q 425 699 567 699 q 297 674 358 699 q 180 591 236 649 l 224 556 l 207 686 l 83 686 l 83 0 m 276 791 l 541 894 l 541 1040 l 276 886 l 276 791 "},"ŉ":{"ha":967,"x_min":69,"x_max":891,"o":"m 277 0 l 422 0 l 422 538 l 400 458 q 471 545 422 516 q 585 575 520 575 q 709 526 672 575 q 746 374 746 478 l 746 0 l 891 0 l 891 381 q 826 612 891 525 q 619 699 762 699 q 492 674 553 699 q 374 591 431 649 l 419 556 l 401 686 l 277 686 l 277 0 "},"ň":{"ha":772,"x_min":83,"x_max":697,"o":"m 83 0 l 228 0 l 228 538 l 206 458 q 277 545 228 516 q 390 575 326 575 q 515 526 478 575 q 551 374 551 478 l 551 0 l 697 0 l 697 381 q 632 612 697 525 q 425 699 567 699 q 297 674 358 699 q 180 591 236 649 l 224 556 l 207 686 l 83 686 l 83 0 m 408 770 l 587 924 l 587 1019 l 408 906 l 228 1019 l 228 924 l 408 770 "},"ņ":{"ha":772,"x_min":83,"x_max":697,"o":"m 83 0 l 228 0 l 228 538 l 206 458 q 277 545 228 516 q 390 575 326 575 q 515 526 478 575 q 551 374 551 478 l 551 0 l 697 0 l 697 381 q 632 612 697 525 q 425 699 567 699 q 297 674 358 699 q 180 591 236 649 l 224 556 l 207 686 l 83 686 l 83 0 m 392 -428 l 471 -262 l 471 -126 l 312 -126 l 312 -278 l 367 -278 l 316 -428 l 392 -428 "},"ṅ":{"ha":772,"x_min":83,"x_max":697,"o":"m 83 0 l 228 0 l 228 538 l 206 458 q 277 545 228 516 q 390 575 326 575 q 515 526 478 575 q 551 374 551 478 l 551 0 l 697 0 l 697 381 q 632 612 697 525 q 425 699 567 699 q 297 674 358 699 q 180 591 236 649 l 224 556 l 207 686 l 83 686 l 83 0 m 339 822 l 476 822 l 476 951 l 339 951 l 339 822 "},"ṇ":{"ha":772,"x_min":83,"x_max":697,"o":"m 83 0 l 228 0 l 228 538 l 206 458 q 277 545 228 516 q 390 575 326 575 q 515 526 478 575 q 551 374 551 478 l 551 0 l 697 0 l 697 381 q 632 612 697 525 q 425 699 567 699 q 297 674 358 699 q 180 591 236 649 l 224 556 l 207 686 l 83 686 l 83 0 "},"ŋ":{"ha":772,"x_min":83,"x_max":697,"o":"m 697 29 l 697 381 q 632 612 697 525 q 425 699 567 699 q 318 682 369 699 q 217 624 266 665 l 207 686 l 83 686 l 83 0 l 228 0 l 228 499 q 296 556 253 537 q 390 575 338 575 q 515 526 478 575 q 551 374 551 478 l 551 15 q 514 -90 551 -55 q 415 -124 476 -124 q 317 -112 365 -124 l 299 -233 q 353 -244 325 -240 q 411 -249 382 -249 q 558 -218 494 -249 q 659 -126 622 -187 q 697 29 697 -65 "},"ǌ":{"ha":1083,"x_min":83,"x_max":1000,"o":"m 83 0 l 228 0 l 228 538 l 206 458 q 277 545 228 516 q 390 575 326 575 q 515 526 478 575 q 551 374 551 478 l 551 0 l 697 0 l 697 381 q 632 612 697 525 q 425 699 567 699 q 297 674 358 699 q 180 591 236 649 l 224 556 l 207 686 l 83 686 l 83 0 m 776 -336 l 823 -332 q 909 -312 869 -329 q 975 -258 949 -296 q 1000 -151 1000 -219 l 1000 686 l 855 686 l 855 -94 q 847 -170 855 -143 q 819 -208 840 -197 q 761 -221 799 -219 l 776 -336 m 855 819 l 1000 819 l 1000 972 l 855 972 l 855 819 "},"ṉ":{"ha":772,"x_min":83,"x_max":697,"o":"m 83 0 l 228 0 l 228 538 l 206 458 q 277 545 228 516 q 390 575 326 575 q 515 526 478 575 q 551 374 551 478 l 551 0 l 697 0 l 697 381 q 632 612 697 525 q 425 699 567 699 q 297 674 358 699 q 180 591 236 649 l 224 556 l 207 686 l 83 686 l 83 0 "},"ñ":{"ha":772,"x_min":83,"x_max":697,"o":"m 83 0 l 228 0 l 228 538 l 206 458 q 277 545 228 516 q 390 575 326 575 q 515 526 478 575 q 551 374 551 478 l 551 0 l 697 0 l 697 381 q 632 612 697 525 q 425 699 567 699 q 297 674 358 699 q 180 591 236 649 l 224 556 l 207 686 l 83 686 l 83 0 m 522 799 q 608 840 578 799 q 641 959 638 881 l 531 959 q 484 906 531 906 q 424 922 455 906 q 361 954 394 938 q 294 970 328 970 q 208 929 238 970 q 174 810 178 888 l 284 810 q 331 863 284 863 q 391 847 360 863 q 454 815 422 831 q 522 799 487 799 "},"o":{"ha":776,"x_min":42,"x_max":733,"o":"m 388 -14 q 575 34 497 -14 q 693 164 652 83 q 733 342 733 244 q 693 522 733 441 q 575 652 652 603 q 388 700 497 700 q 201 652 278 700 q 83 522 124 603 q 42 342 42 441 q 83 164 42 244 q 201 34 124 83 q 388 -14 278 -14 m 388 110 q 242 173 293 110 q 190 342 190 235 q 242 513 190 450 q 388 576 293 576 q 534 513 483 576 q 585 342 585 450 q 534 173 585 235 q 388 110 483 110 "},"ó":{"ha":776,"x_min":42,"x_max":733,"o":"m 388 -14 q 575 34 497 -14 q 693 164 652 83 q 733 342 733 244 q 693 522 733 441 q 575 652 652 603 q 388 700 497 700 q 201 652 278 700 q 83 522 124 603 q 42 342 42 441 q 83 164 42 244 q 201 34 124 83 q 388 -14 278 -14 m 388 110 q 242 173 293 110 q 190 342 190 235 q 242 513 190 450 q 388 576 293 576 q 534 513 483 576 q 585 342 585 450 q 534 173 585 235 q 388 110 483 110 m 256 797 l 521 899 l 521 1046 l 256 892 l 256 797 "},"ŏ":{"ha":776,"x_min":42,"x_max":733,"o":"m 388 -14 q 575 34 497 -14 q 693 164 652 83 q 733 342 733 244 q 693 522 733 441 q 575 652 652 603 q 388 700 497 700 q 201 652 278 700 q 83 522 124 603 q 42 342 42 441 q 83 164 42 244 q 201 34 124 83 q 388 -14 278 -14 m 388 110 q 242 173 293 110 q 190 342 190 235 q 242 513 190 450 q 388 576 293 576 q 534 513 483 576 q 585 342 585 450 q 534 173 585 235 q 388 110 483 110 m 388 806 q 502 832 456 806 q 572 899 548 858 q 595 990 595 941 l 481 990 q 455 926 481 948 q 388 903 428 903 q 320 926 347 903 q 294 990 294 948 l 180 990 q 203 899 180 941 q 273 832 227 858 q 388 806 319 806 "},"ô":{"ha":776,"x_min":42,"x_max":733,"o":"m 388 -14 q 575 34 497 -14 q 693 164 652 83 q 733 342 733 244 q 693 522 733 441 q 575 652 652 603 q 388 700 497 700 q 201 652 278 700 q 83 522 124 603 q 42 342 42 441 q 83 164 42 244 q 201 34 124 83 q 388 -14 278 -14 m 388 110 q 242 173 293 110 q 190 342 190 235 q 242 513 190 450 q 388 576 293 576 q 534 513 483 576 q 585 342 585 450 q 534 173 585 235 q 388 110 483 110 m 208 778 l 388 890 l 567 778 l 567 873 l 388 1026 l 208 873 l 208 778 "},"ố":{"ha":776,"x_min":42,"x_max":733,"o":"m 388 -14 q 575 34 497 -14 q 693 164 652 83 q 733 342 733 244 q 693 522 733 441 q 575 652 652 603 q 388 700 497 700 q 201 652 278 700 q 83 522 124 603 q 42 342 42 441 q 83 164 42 244 q 201 34 124 83 q 388 -14 278 -14 m 388 110 q 242 173 293 110 q 190 342 190 235 q 242 513 190 450 q 388 576 293 576 q 534 513 483 576 q 585 342 585 450 q 534 173 585 235 q 388 110 483 110 m 208 756 l 388 851 l 567 756 l 567 848 l 388 974 l 208 848 l 208 756 m 492 961 l 592 961 l 730 1129 l 584 1129 l 492 961 "},"ộ":{"ha":776,"x_min":42,"x_max":733,"o":"m 388 -14 q 575 34 497 -14 q 693 164 652 83 q 733 342 733 244 q 693 522 733 441 q 575 652 652 603 q 388 700 497 700 q 201 652 278 700 q 83 522 124 603 q 42 342 42 441 q 83 164 42 244 q 201 34 124 83 q 388 -14 278 -14 m 388 110 q 242 173 293 110 q 190 342 190 235 q 242 513 190 450 q 388 576 293 576 q 534 513 483 576 q 585 342 585 450 q 534 173 585 235 q 388 110 483 110 m 208 778 l 388 890 l 567 778 l 567 873 l 388 1026 l 208 873 l 208 778 "},"ồ":{"ha":776,"x_min":42,"x_max":733,"o":"m 388 -14 q 575 34 497 -14 q 693 164 652 83 q 733 342 733 244 q 693 522 733 441 q 575 652 652 603 q 388 700 497 700 q 201 652 278 700 q 83 522 124 603 q 42 342 42 441 q 83 164 42 244 q 201 34 124 83 q 388 -14 278 -14 m 388 110 q 242 173 293 110 q 190 342 190 235 q 242 513 190 450 q 388 576 293 576 q 534 513 483 576 q 585 342 585 450 q 534 173 585 235 q 388 110 483 110 m 208 756 l 388 851 l 567 756 l 567 848 l 388 974 l 208 848 l 208 756 m 517 961 l 613 961 l 538 1129 l 399 1129 l 517 961 "},"ổ":{"ha":776,"x_min":42,"x_max":733,"o":"m 388 -14 q 575 34 497 -14 q 693 164 652 83 q 733 342 733 244 q 693 522 733 441 q 575 652 652 603 q 388 700 497 700 q 201 652 278 700 q 83 522 124 603 q 42 342 42 441 q 83 164 42 244 q 201 34 124 83 q 388 -14 278 -14 m 388 110 q 242 173 293 110 q 190 342 190 235 q 242 513 190 450 q 388 576 293 576 q 534 513 483 576 q 585 342 585 450 q 534 173 585 235 q 388 110 483 110 m 208 756 l 388 851 l 567 756 l 567 848 l 388 974 l 208 848 l 208 756 m 521 925 q 613 967 584 939 q 641 1043 641 996 q 601 1125 641 1097 q 503 1153 561 1153 q 444 1147 472 1153 q 392 1127 416 1140 l 416 1050 q 459 1069 438 1062 q 502 1076 481 1076 q 542 1066 528 1076 q 557 1035 557 1056 q 544 1003 557 1015 q 507 983 532 991 l 521 925 "},"ỗ":{"ha":776,"x_min":42,"x_max":733,"o":"m 388 -14 q 575 34 497 -14 q 693 164 652 83 q 733 342 733 244 q 693 522 733 441 q 575 652 652 603 q 388 700 497 700 q 201 652 278 700 q 83 522 124 603 q 42 342 42 441 q 83 164 42 244 q 201 34 124 83 q 388 -14 278 -14 m 388 110 q 242 173 293 110 q 190 342 190 235 q 242 513 190 450 q 388 576 293 576 q 534 513 483 576 q 585 342 585 450 q 534 173 585 235 q 388 110 483 110 m 208 756 l 388 851 l 567 756 l 567 848 l 388 974 l 208 848 l 208 756 m 505 1028 q 582 1065 556 1028 q 608 1169 608 1101 l 511 1169 q 465 1120 511 1120 q 405 1135 438 1120 q 337 1164 372 1149 q 270 1178 302 1178 q 194 1142 220 1178 q 167 1036 167 1106 l 264 1036 q 310 1085 264 1085 q 370 1071 337 1085 q 438 1042 403 1057 q 505 1028 473 1028 "},"ȍ":{"ha":776,"x_min":42,"x_max":733,"o":"m 388 -14 q 575 34 497 -14 q 693 164 652 83 q 733 342 733 244 q 693 522 733 441 q 575 652 652 603 q 388 700 497 700 q 201 652 278 700 q 83 522 124 603 q 42 342 42 441 q 83 164 42 244 q 201 34 124 83 q 388 -14 278 -14 m 388 110 q 242 173 293 110 q 190 342 190 235 q 242 513 190 450 q 388 576 293 576 q 534 513 483 576 q 585 342 585 450 q 534 173 585 235 q 388 110 483 110 m 542 808 l 451 1047 l 305 1047 l 442 808 l 542 808 m 343 808 l 244 1047 l 97 1047 l 244 808 l 343 808 "},"ö":{"ha":776,"x_min":42,"x_max":733,"o":"m 388 -14 q 575 34 497 -14 q 693 164 652 83 q 733 342 733 244 q 693 522 733 441 q 575 652 652 603 q 388 700 497 700 q 201 652 278 700 q 83 522 124 603 q 42 342 42 441 q 83 164 42 244 q 201 34 124 83 q 388 -14 278 -14 m 388 110 q 242 173 293 110 q 190 342 190 235 q 242 513 190 450 q 388 576 293 576 q 534 513 483 576 q 585 342 585 450 q 534 173 585 235 q 388 110 483 110 m 461 821 l 586 821 l 586 938 l 461 938 l 461 821 m 189 821 l 314 821 l 314 938 l 189 938 l 189 821 "},"ȫ":{"ha":776,"x_min":42,"x_max":733,"o":"m 388 -14 q 575 34 497 -14 q 693 164 652 83 q 733 342 733 244 q 693 522 733 441 q 575 652 652 603 q 388 700 497 700 q 201 652 278 700 q 83 522 124 603 q 42 342 42 441 q 83 164 42 244 q 201 34 124 83 q 388 -14 278 -14 m 388 110 q 242 173 293 110 q 190 342 190 235 q 242 513 190 450 q 388 576 293 576 q 534 513 483 576 q 585 342 585 450 q 534 173 585 235 q 388 110 483 110 m 189 810 l 314 810 l 314 921 l 189 921 l 189 810 m 461 810 l 586 810 l 586 921 l 461 921 l 461 810 m 163 1032 l 612 1032 l 612 1131 l 163 1131 l 163 1032 "},"ȱ":{"ha":776,"x_min":42,"x_max":733,"o":"m 388 -14 q 575 34 497 -14 q 693 164 652 83 q 733 342 733 244 q 693 522 733 441 q 575 652 652 603 q 388 700 497 700 q 201 652 278 700 q 83 522 124 603 q 42 342 42 441 q 83 164 42 244 q 201 34 124 83 q 388 -14 278 -14 m 388 110 q 242 173 293 110 q 190 342 190 235 q 242 513 190 450 q 388 576 293 576 q 534 513 483 576 q 585 342 585 450 q 534 173 585 235 q 388 110 483 110 m 319 813 l 456 813 l 456 942 l 319 942 l 319 813 m 163 1054 l 612 1054 l 612 1153 l 163 1153 l 163 1054 "},"ọ":{"ha":776,"x_min":42,"x_max":733,"o":"m 388 -14 q 575 34 497 -14 q 693 164 652 83 q 733 342 733 244 q 693 522 733 441 q 575 652 652 603 q 388 700 497 700 q 201 652 278 700 q 83 522 124 603 q 42 342 42 441 q 83 164 42 244 q 201 34 124 83 q 388 -14 278 -14 m 388 110 q 242 173 293 110 q 190 342 190 235 q 242 513 190 450 q 388 576 293 576 q 534 513 483 576 q 585 342 585 450 q 534 173 585 235 q 388 110 483 110 "},"ò":{"ha":776,"x_min":42,"x_max":733,"o":"m 388 -14 q 575 34 497 -14 q 693 164 652 83 q 733 342 733 244 q 693 522 733 441 q 575 652 652 603 q 388 700 497 700 q 201 652 278 700 q 83 522 124 603 q 42 342 42 441 q 83 164 42 244 q 201 34 124 83 q 388 -14 278 -14 m 388 110 q 242 173 293 110 q 190 342 190 235 q 242 513 190 450 q 388 576 293 576 q 534 513 483 576 q 585 342 585 450 q 534 173 585 235 q 388 110 483 110 m 519 797 l 519 892 l 254 1046 l 254 899 l 519 797 "},"ỏ":{"ha":776,"x_min":42,"x_max":733,"o":"m 388 -14 q 575 34 497 -14 q 693 164 652 83 q 733 342 733 244 q 693 522 733 441 q 575 652 652 603 q 388 700 497 700 q 201 652 278 700 q 83 522 124 603 q 42 342 42 441 q 83 164 42 244 q 201 34 124 83 q 388 -14 278 -14 m 388 110 q 242 173 293 110 q 190 342 190 235 q 242 513 190 450 q 388 576 293 576 q 534 513 483 576 q 585 342 585 450 q 534 173 585 235 q 388 110 483 110 m 409 735 q 480 802 456 770 q 504 878 504 833 q 464 967 504 936 q 367 998 424 998 q 307 991 335 998 q 256 972 279 984 l 279 894 q 322 914 301 906 q 365 921 344 921 q 406 909 391 921 q 420 874 420 897 q 405 830 420 849 q 360 783 390 812 l 409 735 "},"ơ":{"ha":776,"x_min":42,"x_max":733,"o":"m 388 -14 q 575 34 497 -14 q 693 164 652 83 q 733 342 733 244 q 693 522 733 441 q 575 652 652 603 q 388 700 497 700 q 201 652 278 700 q 83 522 124 603 q 42 342 42 441 q 83 164 42 244 q 201 34 124 83 q 388 -14 278 -14 m 388 110 q 242 173 293 110 q 190 342 190 235 q 242 513 190 450 q 388 576 293 576 q 534 513 483 576 q 585 342 585 450 q 534 173 585 235 q 388 110 483 110 m 478 583 q 599 610 544 583 q 687 684 653 637 q 721 789 721 731 l 590 789 q 560 710 590 734 q 478 686 531 686 l 478 583 "},"ớ":{"ha":776,"x_min":42,"x_max":733,"o":"m 388 -14 q 575 34 497 -14 q 693 164 652 83 q 733 342 733 244 q 693 522 733 441 q 575 652 652 603 q 388 700 497 700 q 201 652 278 700 q 83 522 124 603 q 42 342 42 441 q 83 164 42 244 q 201 34 124 83 q 388 -14 278 -14 m 388 110 q 242 173 293 110 q 190 342 190 235 q 242 513 190 450 q 388 576 293 576 q 534 513 483 576 q 585 342 585 450 q 534 173 585 235 q 388 110 483 110 m 478 583 q 599 610 544 583 q 687 684 653 637 q 721 789 721 731 l 590 789 q 560 710 590 734 q 478 686 531 686 l 478 583 m 256 797 l 521 899 l 521 1046 l 256 892 l 256 797 "},"ợ":{"ha":776,"x_min":42,"x_max":733,"o":"m 388 -14 q 575 34 497 -14 q 693 164 652 83 q 733 342 733 244 q 693 522 733 441 q 575 652 652 603 q 388 700 497 700 q 201 652 278 700 q 83 522 124 603 q 42 342 42 441 q 83 164 42 244 q 201 34 124 83 q 388 -14 278 -14 m 388 110 q 242 173 293 110 q 190 342 190 235 q 242 513 190 450 q 388 576 293 576 q 534 513 483 576 q 585 342 585 450 q 534 173 585 235 q 388 110 483 110 m 478 583 q 599 610 544 583 q 687 684 653 637 q 721 789 721 731 l 590 789 q 560 710 590 734 q 478 686 531 686 l 478 583 "},"ờ":{"ha":776,"x_min":42,"x_max":733,"o":"m 388 -14 q 575 34 497 -14 q 693 164 652 83 q 733 342 733 244 q 693 522 733 441 q 575 652 652 603 q 388 700 497 700 q 201 652 278 700 q 83 522 124 603 q 42 342 42 441 q 83 164 42 244 q 201 34 124 83 q 388 -14 278 -14 m 388 110 q 242 173 293 110 q 190 342 190 235 q 242 513 190 450 q 388 576 293 576 q 534 513 483 576 q 585 342 585 450 q 534 173 585 235 q 388 110 483 110 m 478 583 q 599 610 544 583 q 687 684 653 637 q 721 789 721 731 l 590 789 q 560 710 590 734 q 478 686 531 686 l 478 583 m 519 797 l 519 892 l 254 1046 l 254 899 l 519 797 "},"ở":{"ha":776,"x_min":42,"x_max":733,"o":"m 388 -14 q 575 34 497 -14 q 693 164 652 83 q 733 342 733 244 q 693 522 733 441 q 575 652 652 603 q 388 700 497 700 q 201 652 278 700 q 83 522 124 603 q 42 342 42 441 q 83 164 42 244 q 201 34 124 83 q 388 -14 278 -14 m 388 110 q 242 173 293 110 q 190 342 190 235 q 242 513 190 450 q 388 576 293 576 q 534 513 483 576 q 585 342 585 450 q 534 173 585 235 q 388 110 483 110 m 478 583 q 599 610 544 583 q 687 684 653 637 q 721 789 721 731 l 590 789 q 560 710 590 734 q 478 686 531 686 l 478 583 m 409 735 q 480 802 456 770 q 504 878 504 833 q 464 967 504 936 q 367 998 424 998 q 307 991 335 998 q 256 972 279 984 l 279 894 q 322 914 301 906 q 365 921 344 921 q 406 909 391 921 q 420 874 420 897 q 405 830 420 849 q 360 783 390 812 l 409 735 "},"ỡ":{"ha":776,"x_min":42,"x_max":733,"o":"m 388 -14 q 575 34 497 -14 q 693 164 652 83 q 733 342 733 244 q 693 522 733 441 q 575 652 652 603 q 388 700 497 700 q 201 652 278 700 q 83 522 124 603 q 42 342 42 441 q 83 164 42 244 q 201 34 124 83 q 388 -14 278 -14 m 388 110 q 242 173 293 110 q 190 342 190 235 q 242 513 190 450 q 388 576 293 576 q 534 513 483 576 q 585 342 585 450 q 534 173 585 235 q 388 110 483 110 m 478 583 q 599 610 544 583 q 687 684 653 637 q 721 789 721 731 l 590 789 q 560 710 590 734 q 478 686 531 686 l 478 583 m 501 804 q 588 845 558 804 q 621 965 618 887 l 511 965 q 464 912 511 912 q 404 928 435 912 q 341 960 374 944 q 274 976 308 976 q 188 934 217 976 q 154 815 158 893 l 264 815 q 311 868 264 868 q 371 852 340 868 q 434 820 401 836 q 501 804 467 804 "},"ő":{"ha":776,"x_min":42,"x_max":733,"o":"m 388 -14 q 575 34 497 -14 q 693 164 652 83 q 733 342 733 244 q 693 522 733 441 q 575 652 652 603 q 388 700 497 700 q 201 652 278 700 q 83 522 124 603 q 42 342 42 441 q 83 164 42 244 q 201 34 124 83 q 388 -14 278 -14 m 388 110 q 242 173 293 110 q 190 342 190 235 q 242 513 190 450 q 388 576 293 576 q 534 513 483 576 q 585 342 585 450 q 534 173 585 235 q 388 110 483 110 m 435 808 l 534 808 l 697 1047 l 551 1047 l 435 808 m 236 808 l 335 808 l 490 1047 l 343 1047 l 236 808 "},"ȏ":{"ha":776,"x_min":42,"x_max":733,"o":"m 388 -14 q 575 34 497 -14 q 693 164 652 83 q 733 342 733 244 q 693 522 733 441 q 575 652 652 603 q 388 700 497 700 q 201 652 278 700 q 83 522 124 603 q 42 342 42 441 q 83 164 42 244 q 201 34 124 83 q 388 -14 278 -14 m 388 110 q 242 173 293 110 q 190 342 190 235 q 242 513 190 450 q 388 576 293 576 q 534 513 483 576 q 585 342 585 450 q 534 173 585 235 q 388 110 483 110 m 388 990 q 273 965 319 990 q 203 897 227 939 q 180 806 180 856 l 294 806 q 320 871 294 849 q 388 893 347 893 q 455 871 428 893 q 481 806 481 849 l 595 806 q 572 897 595 856 q 502 965 548 939 q 388 990 456 990 "},"ō":{"ha":776,"x_min":42,"x_max":733,"o":"m 388 -14 q 575 34 497 -14 q 693 164 652 83 q 733 342 733 244 q 693 522 733 441 q 575 652 652 603 q 388 700 497 700 q 201 652 278 700 q 83 522 124 603 q 42 342 42 441 q 83 164 42 244 q 201 34 124 83 q 388 -14 278 -14 m 388 110 q 242 173 293 110 q 190 342 190 235 q 242 513 190 450 q 388 576 293 576 q 534 513 483 576 q 585 342 585 450 q 534 173 585 235 q 388 110 483 110 m 163 826 l 612 826 l 612 931 l 163 931 l 163 826 "},"ṓ":{"ha":776,"x_min":42,"x_max":733,"o":"m 388 -14 q 575 34 497 -14 q 693 164 652 83 q 733 342 733 244 q 693 522 733 441 q 575 652 652 603 q 388 700 497 700 q 201 652 278 700 q 83 522 124 603 q 42 342 42 441 q 83 164 42 244 q 201 34 124 83 q 388 -14 278 -14 m 388 110 q 242 173 293 110 q 190 342 190 235 q 242 513 190 450 q 388 576 293 576 q 534 513 483 576 q 585 342 585 450 q 534 173 585 235 q 388 110 483 110 m 163 815 l 612 815 l 612 915 l 163 915 l 163 815 m 256 1011 l 521 1092 l 521 1230 l 256 1098 l 256 1011 "},"ṑ":{"ha":776,"x_min":42,"x_max":733,"o":"m 388 -14 q 575 34 497 -14 q 693 164 652 83 q 733 342 733 244 q 693 522 733 441 q 575 652 652 603 q 388 700 497 700 q 201 652 278 700 q 83 522 124 603 q 42 342 42 441 q 83 164 42 244 q 201 34 124 83 q 388 -14 278 -14 m 388 110 q 242 173 293 110 q 190 342 190 235 q 242 513 190 450 q 388 576 293 576 q 534 513 483 576 q 585 342 585 450 q 534 173 585 235 q 388 110 483 110 m 163 815 l 612 815 l 612 915 l 163 915 l 163 815 m 519 1011 l 519 1098 l 254 1230 l 254 1092 l 519 1011 "},"ǫ":{"ha":776,"x_min":42,"x_max":733,"o":"m 388 -14 q 575 34 497 -14 q 693 164 652 83 q 733 342 733 244 q 693 522 733 441 q 575 652 652 603 q 388 700 497 700 q 201 652 278 700 q 83 522 124 603 q 42 342 42 441 q 83 164 42 244 q 201 34 124 83 q 388 -14 278 -14 m 388 110 q 242 173 293 110 q 190 342 190 235 q 242 513 190 450 q 388 576 293 576 q 534 513 483 576 q 585 342 585 450 q 534 173 585 235 q 388 110 483 110 m 410 0 q 333 -70 369 -25 q 297 -170 297 -115 q 338 -260 297 -228 q 438 -291 378 -291 q 505 -283 476 -291 q 555 -264 535 -274 l 533 -192 q 492 -208 513 -202 q 447 -214 472 -214 q 399 -197 417 -214 q 381 -146 381 -180 q 410 -72 381 -108 q 488 0 440 -37 l 410 0 "},"ø":{"ha":776,"x_min":42,"x_max":733,"o":"m 583 736 l 77 -56 l 192 -56 l 699 736 l 583 736 m 388 -14 q 575 34 497 -14 q 693 164 652 83 q 733 342 733 244 q 693 522 733 441 q 575 652 652 603 q 388 700 497 700 q 201 652 278 700 q 83 522 124 603 q 42 342 42 441 q 83 164 42 244 q 201 34 124 83 q 388 -14 278 -14 m 388 110 q 242 173 293 110 q 190 342 190 235 q 242 513 190 450 q 388 576 293 576 q 534 513 483 576 q 585 342 585 450 q 534 173 585 235 q 388 110 483 110 "},"ǿ":{"ha":776,"x_min":42,"x_max":733,"o":"m 583 736 l 77 -56 l 192 -56 l 699 736 l 583 736 m 388 -14 q 575 34 497 -14 q 693 164 652 83 q 733 342 733 244 q 693 522 733 441 q 575 652 652 603 q 388 700 497 700 q 201 652 278 700 q 83 522 124 603 q 42 342 42 441 q 83 164 42 244 q 201 34 124 83 q 388 -14 278 -14 m 388 110 q 242 173 293 110 q 190 342 190 235 q 242 513 190 450 q 388 576 293 576 q 534 513 483 576 q 585 342 585 450 q 534 173 585 235 q 388 110 483 110 m 256 797 l 521 899 l 521 1046 l 256 892 l 256 797 "},"õ":{"ha":776,"x_min":42,"x_max":733,"o":"m 388 -14 q 575 34 497 -14 q 693 164 652 83 q 733 342 733 244 q 693 522 733 441 q 575 652 652 603 q 388 700 497 700 q 201 652 278 700 q 83 522 124 603 q 42 342 42 441 q 83 164 42 244 q 201 34 124 83 q 388 -14 278 -14 m 388 110 q 242 173 293 110 q 190 342 190 235 q 242 513 190 450 q 388 576 293 576 q 534 513 483 576 q 585 342 585 450 q 534 173 585 235 q 388 110 483 110 m 501 804 q 588 845 558 804 q 621 965 618 887 l 511 965 q 464 912 511 912 q 404 928 435 912 q 341 960 374 944 q 274 976 308 976 q 188 934 217 976 q 154 815 158 893 l 264 815 q 311 868 264 868 q 371 852 340 868 q 434 820 401 836 q 501 804 467 804 "},"ṍ":{"ha":776,"x_min":42,"x_max":733,"o":"m 388 -14 q 575 34 497 -14 q 693 164 652 83 q 733 342 733 244 q 693 522 733 441 q 575 652 652 603 q 388 700 497 700 q 201 652 278 700 q 83 522 124 603 q 42 342 42 441 q 83 164 42 244 q 201 34 124 83 q 388 -14 278 -14 m 388 110 q 242 173 293 110 q 190 342 190 235 q 242 513 190 450 q 388 576 293 576 q 534 513 483 576 q 585 342 585 450 q 534 173 585 235 q 388 110 483 110 m 505 802 q 582 839 556 802 q 608 944 608 876 l 511 944 q 465 894 511 894 q 405 909 438 894 q 337 938 372 924 q 270 952 302 952 q 194 916 220 952 q 167 810 167 880 l 264 810 q 310 860 264 860 q 370 845 337 860 q 438 817 403 831 q 505 802 473 802 m 256 1010 l 521 1090 l 521 1228 l 256 1097 l 256 1010 "},"ṏ":{"ha":776,"x_min":42,"x_max":733,"o":"m 388 -14 q 575 34 497 -14 q 693 164 652 83 q 733 342 733 244 q 693 522 733 441 q 575 652 652 603 q 388 700 497 700 q 201 652 278 700 q 83 522 124 603 q 42 342 42 441 q 83 164 42 244 q 201 34 124 83 q 388 -14 278 -14 m 388 110 q 242 173 293 110 q 190 342 190 235 q 242 513 190 450 q 388 576 293 576 q 534 513 483 576 q 585 342 585 450 q 534 173 585 235 q 388 110 483 110 m 505 802 q 582 839 556 802 q 608 944 608 876 l 511 944 q 465 894 511 894 q 405 909 438 894 q 337 938 372 924 q 270 952 302 952 q 194 916 220 952 q 167 810 167 880 l 264 810 q 310 860 264 860 q 370 845 337 860 q 438 817 403 831 q 505 802 473 802 m 189 1048 l 314 1048 l 314 1158 l 189 1158 l 189 1048 m 461 1048 l 586 1048 l 586 1158 l 461 1158 l 461 1048 "},"ȭ":{"ha":776,"x_min":42,"x_max":733,"o":"m 388 -14 q 575 34 497 -14 q 693 164 652 83 q 733 342 733 244 q 693 522 733 441 q 575 652 652 603 q 388 700 497 700 q 201 652 278 700 q 83 522 124 603 q 42 342 42 441 q 83 164 42 244 q 201 34 124 83 q 388 -14 278 -14 m 388 110 q 242 173 293 110 q 190 342 190 235 q 242 513 190 450 q 388 576 293 576 q 534 513 483 576 q 585 342 585 450 q 534 173 585 235 q 388 110 483 110 m 505 802 q 582 839 556 802 q 608 944 608 876 l 511 944 q 465 894 511 894 q 405 909 438 894 q 337 938 372 924 q 270 952 302 952 q 194 916 220 952 q 167 810 167 880 l 264 810 q 310 860 264 860 q 370 845 337 860 q 438 817 403 831 q 505 802 473 802 m 163 1053 l 612 1053 l 612 1152 l 163 1152 l 163 1053 "},"œ":{"ha":1249,"x_min":42,"x_max":1209,"o":"m 388 -14 q 568 37 493 -14 q 682 169 643 88 l 631 171 q 751 38 672 89 q 949 -14 831 -14 q 1081 3 1023 -14 q 1178 39 1139 20 l 1165 158 q 1065 123 1121 136 q 962 110 1010 110 q 855 131 905 110 q 770 198 805 151 q 726 327 736 246 l 1201 327 q 1207 368 1205 349 q 1209 406 1209 388 q 1173 560 1209 494 q 1070 663 1137 626 q 913 699 1004 699 q 743 652 814 699 q 633 530 672 606 l 674 532 q 561 654 633 608 q 388 700 488 700 q 201 652 278 700 q 83 522 124 603 q 42 342 42 441 q 83 164 42 244 q 201 34 124 83 q 388 -14 278 -14 m 388 110 q 242 173 293 110 q 190 342 190 235 q 242 513 190 450 q 388 576 293 576 q 534 513 483 576 q 585 342 585 450 q 534 173 585 235 q 388 110 483 110 m 735 426 q 793 535 751 494 q 911 575 835 575 q 997 555 964 575 q 1045 501 1029 535 q 1060 426 1060 467 l 735 426 "},"p":{"ha":783,"x_min":83,"x_max":740,"o":"m 83 -336 l 228 -336 l 228 132 l 197 103 q 295 15 236 44 q 436 -14 355 -14 q 603 34 536 -14 q 705 164 671 83 q 740 342 740 244 q 704 522 740 441 q 601 651 669 603 q 436 699 533 699 q 288 664 349 699 q 183 570 228 629 l 225 548 l 198 686 l 83 686 l 83 -336 m 411 110 q 311 137 353 110 q 244 215 268 163 q 220 342 220 266 q 244 469 220 417 q 311 548 268 521 q 411 575 353 575 q 543 513 496 575 q 591 342 591 450 q 543 173 591 235 q 411 110 496 110 "},"þ":{"ha":808,"x_min":82,"x_max":765,"o":"m 82 -335 l 227 -335 l 227 128 l 197 103 q 299 16 240 46 q 443 -14 357 -14 q 619 35 547 -14 q 728 165 691 84 q 765 342 765 247 q 727 520 765 439 q 618 650 690 601 q 443 699 546 699 q 303 670 363 699 q 194 584 244 642 l 227 562 l 227 1042 l 82 1042 l 82 -335 m 422 103 q 310 134 356 103 q 242 218 265 164 q 218 342 218 272 q 242 466 218 414 q 310 547 265 518 q 422 575 356 575 q 567 511 517 575 q 617 342 617 447 q 567 171 617 239 q 422 103 517 103 "},"q":{"ha":783,"x_min":43,"x_max":699,"o":"m 554 -336 l 699 -336 l 699 686 l 588 686 l 558 548 l 599 570 q 500 665 557 631 q 353 699 442 699 q 184 650 253 699 q 79 519 115 600 q 43 342 43 438 q 78 164 43 244 q 182 34 113 83 q 353 -14 251 -14 q 492 16 433 -14 q 585 104 551 46 l 554 132 l 554 -336 m 375 110 q 240 173 288 110 q 191 342 191 235 q 240 513 191 450 q 375 575 288 575 q 511 515 460 575 q 562 342 562 455 q 539 215 562 266 q 473 137 515 163 q 375 110 431 110 "},"r":{"ha":447,"x_min":83,"x_max":444,"o":"m 83 0 l 233 0 l 233 478 q 291 529 250 506 q 383 551 333 551 q 408 550 396 551 q 432 546 420 549 l 444 697 q 413 700 430 700 q 310 670 358 700 q 221 590 263 640 l 210 686 l 83 686 l 83 0 "},"ŕ":{"ha":447,"x_min":83,"x_max":444,"o":"m 83 0 l 233 0 l 233 478 q 291 529 250 506 q 383 551 333 551 q 408 550 396 551 q 432 546 420 549 l 444 697 q 413 700 430 700 q 310 670 358 700 q 221 590 263 640 l 210 686 l 83 686 l 83 0 m 165 797 l 430 899 l 430 1046 l 165 892 l 165 797 "},"ř":{"ha":447,"x_min":83,"x_max":476,"o":"m 83 0 l 233 0 l 233 478 q 291 529 250 506 q 383 551 333 551 q 408 550 396 551 q 432 546 420 549 l 444 697 q 413 700 430 700 q 310 670 358 700 q 221 590 263 640 l 210 686 l 83 686 l 83 0 m 297 776 l 476 930 l 476 1025 l 297 912 l 117 1025 l 117 930 l 297 776 "},"ŗ":{"ha":447,"x_min":80,"x_max":444,"o":"m 83 0 l 233 0 l 233 478 q 291 529 250 506 q 383 551 333 551 q 408 550 396 551 q 432 546 420 549 l 444 697 q 413 700 430 700 q 310 670 358 700 q 221 590 263 640 l 210 686 l 83 686 l 83 0 m 160 -428 l 239 -262 l 239 -126 l 80 -126 l 80 -278 l 135 -278 l 84 -428 l 160 -428 "},"ȑ":{"ha":447,"x_min":6,"x_max":450,"o":"m 83 0 l 233 0 l 233 478 q 291 529 250 506 q 383 551 333 551 q 408 550 396 551 q 432 546 420 549 l 444 697 q 413 700 430 700 q 310 670 358 700 q 221 590 263 640 l 210 686 l 83 686 l 83 0 m 450 808 l 359 1047 l 213 1047 l 351 808 l 450 808 m 251 808 l 152 1047 l 6 1047 l 152 808 l 251 808 "},"ṛ":{"ha":447,"x_min":83,"x_max":444,"o":"m 83 0 l 233 0 l 233 478 q 291 529 250 506 q 383 551 333 551 q 408 550 396 551 q 432 546 420 549 l 444 697 q 413 700 430 700 q 310 670 358 700 q 221 590 263 640 l 210 686 l 83 686 l 83 0 "},"ȓ":{"ha":447,"x_min":83,"x_max":504,"o":"m 83 0 l 233 0 l 233 478 q 291 529 250 506 q 383 551 333 551 q 408 550 396 551 q 432 546 420 549 l 444 697 q 413 700 430 700 q 310 670 358 700 q 221 590 263 640 l 210 686 l 83 686 l 83 0 m 297 990 q 182 965 228 990 q 113 897 136 939 q 89 806 89 856 l 203 806 q 230 871 203 849 q 297 893 256 893 q 364 871 337 893 q 390 806 390 849 l 504 806 q 481 897 504 856 q 411 965 457 939 q 297 990 365 990 "},"ṟ":{"ha":447,"x_min":-67,"x_max":444,"o":"m 83 0 l 233 0 l 233 478 q 291 529 250 506 q 383 551 333 551 q 408 550 396 551 q 432 546 420 549 l 444 697 q 413 700 430 700 q 310 670 358 700 q 221 590 263 640 l 210 686 l 83 686 l 83 0 "},"s":{"ha":581,"x_min":44,"x_max":543,"o":"m 278 -14 q 433 15 375 -14 q 517 90 491 44 q 543 191 543 137 q 526 272 543 238 q 482 329 510 306 q 419 368 453 352 q 350 397 385 385 q 235 443 272 423 q 199 508 199 463 q 230 570 199 549 q 314 590 261 590 q 414 571 371 590 q 493 524 456 552 l 508 652 q 425 686 472 672 q 311 700 378 700 q 167 673 224 700 q 83 599 110 645 q 55 497 55 552 q 84 394 55 433 q 161 333 114 356 q 263 292 209 310 q 327 268 297 281 q 376 235 358 255 q 395 183 395 215 q 364 125 395 144 q 272 105 332 105 q 149 127 203 105 q 59 174 94 150 l 44 42 q 139 4 81 22 q 278 -14 197 -14 "},"ś":{"ha":581,"x_min":44,"x_max":543,"o":"m 278 -14 q 433 15 375 -14 q 517 90 491 44 q 543 191 543 137 q 526 272 543 238 q 482 329 510 306 q 419 368 453 352 q 350 397 385 385 q 235 443 272 423 q 199 508 199 463 q 230 570 199 549 q 314 590 261 590 q 414 571 371 590 q 493 524 456 552 l 508 652 q 425 686 472 672 q 311 700 378 700 q 167 673 224 700 q 83 599 110 645 q 55 497 55 552 q 84 394 55 433 q 161 333 114 356 q 263 292 209 310 q 327 268 297 281 q 376 235 358 255 q 395 183 395 215 q 364 125 395 144 q 272 105 332 105 q 149 127 203 105 q 59 174 94 150 l 44 42 q 139 4 81 22 q 278 -14 197 -14 m 175 797 l 440 899 l 440 1046 l 175 892 l 175 797 "},"ṥ":{"ha":581,"x_min":44,"x_max":543,"o":"m 278 -14 q 433 15 375 -14 q 517 90 491 44 q 543 191 543 137 q 526 272 543 238 q 482 329 510 306 q 419 368 453 352 q 350 397 385 385 q 235 443 272 423 q 199 508 199 463 q 230 570 199 549 q 314 590 261 590 q 414 571 371 590 q 493 524 456 552 l 508 652 q 425 686 472 672 q 311 700 378 700 q 167 673 224 700 q 83 599 110 645 q 55 497 55 552 q 84 394 55 433 q 161 333 114 356 q 263 292 209 310 q 327 268 297 281 q 376 235 358 255 q 395 183 395 215 q 364 125 395 144 q 272 105 332 105 q 149 127 203 105 q 59 174 94 150 l 44 42 q 139 4 81 22 q 278 -14 197 -14 m 175 772 l 440 853 l 440 991 l 175 859 l 175 772 m 238 1052 l 376 1052 l 376 1181 l 238 1181 l 238 1052 "},"š":{"ha":581,"x_min":44,"x_max":543,"o":"m 278 -14 q 433 15 375 -14 q 517 90 491 44 q 543 191 543 137 q 526 272 543 238 q 482 329 510 306 q 419 368 453 352 q 350 397 385 385 q 235 443 272 423 q 199 508 199 463 q 230 570 199 549 q 314 590 261 590 q 414 571 371 590 q 493 524 456 552 l 508 652 q 425 686 472 672 q 311 700 378 700 q 167 673 224 700 q 83 599 110 645 q 55 497 55 552 q 84 394 55 433 q 161 333 114 356 q 263 292 209 310 q 327 268 297 281 q 376 235 358 255 q 395 183 395 215 q 364 125 395 144 q 272 105 332 105 q 149 127 203 105 q 59 174 94 150 l 44 42 q 139 4 81 22 q 278 -14 197 -14 m 307 776 l 486 930 l 486 1025 l 307 912 l 128 1025 l 128 930 l 307 776 "},"ṧ":{"ha":581,"x_min":44,"x_max":543,"o":"m 278 -14 q 433 15 375 -14 q 517 90 491 44 q 543 191 543 137 q 526 272 543 238 q 482 329 510 306 q 419 368 453 352 q 350 397 385 385 q 235 443 272 423 q 199 508 199 463 q 230 570 199 549 q 314 590 261 590 q 414 571 371 590 q 493 524 456 552 l 508 652 q 425 686 472 672 q 311 700 378 700 q 167 673 224 700 q 83 599 110 645 q 55 497 55 552 q 84 394 55 433 q 161 333 114 356 q 263 292 209 310 q 327 268 297 281 q 376 235 358 255 q 395 183 395 215 q 364 125 395 144 q 272 105 332 105 q 149 127 203 105 q 59 174 94 150 l 44 42 q 139 4 81 22 q 278 -14 197 -14 m 238 1070 l 376 1070 l 376 1199 l 238 1199 l 238 1070 "},"ş":{"ha":581,"x_min":44,"x_max":543,"o":"m 278 -14 q 433 15 375 -14 q 517 90 491 44 q 543 191 543 137 q 526 272 543 238 q 482 329 510 306 q 419 368 453 352 q 350 397 385 385 q 235 443 272 423 q 199 508 199 463 q 230 570 199 549 q 314 590 261 590 q 414 571 371 590 q 493 524 456 552 l 508 652 q 425 686 472 672 q 311 700 378 700 q 167 673 224 700 q 83 599 110 645 q 55 497 55 552 q 84 394 55 433 q 161 333 114 356 q 263 292 209 310 q 327 268 297 281 q 376 235 358 255 q 395 183 395 215 q 364 125 395 144 q 272 105 332 105 q 149 127 203 105 q 59 174 94 150 l 44 42 q 139 4 81 22 q 278 -14 197 -14 m 295 -110 l 329 0 l 256 0 l 219 -153 q 253 -145 238 -147 q 284 -142 269 -142 q 337 -156 319 -142 q 354 -195 354 -170 q 336 -232 354 -219 q 288 -245 318 -245 q 242 -239 264 -245 q 199 -222 221 -232 l 176 -295 q 223 -314 196 -306 q 287 -322 251 -322 q 394 -288 351 -322 q 438 -191 438 -255 q 405 -106 438 -137 q 313 -75 372 -75 q 278 -79 294 -75 q 245 -89 262 -83 l 295 -110 "},"ŝ":{"ha":581,"x_min":44,"x_max":543,"o":"m 278 -14 q 433 15 375 -14 q 517 90 491 44 q 543 191 543 137 q 526 272 543 238 q 482 329 510 306 q 419 368 453 352 q 350 397 385 385 q 235 443 272 423 q 199 508 199 463 q 230 570 199 549 q 314 590 261 590 q 414 571 371 590 q 493 524 456 552 l 508 652 q 425 686 472 672 q 311 700 378 700 q 167 673 224 700 q 83 599 110 645 q 55 497 55 552 q 84 394 55 433 q 161 333 114 356 q 263 292 209 310 q 327 268 297 281 q 376 235 358 255 q 395 183 395 215 q 364 125 395 144 q 272 105 332 105 q 149 127 203 105 q 59 174 94 150 l 44 42 q 139 4 81 22 q 278 -14 197 -14 m 128 778 l 307 890 l 486 778 l 486 873 l 307 1026 l 128 873 l 128 778 "},"ș":{"ha":581,"x_min":44,"x_max":543,"o":"m 278 -14 q 433 15 375 -14 q 517 90 491 44 q 543 191 543 137 q 526 272 543 238 q 482 329 510 306 q 419 368 453 352 q 350 397 385 385 q 235 443 272 423 q 199 508 199 463 q 230 570 199 549 q 314 590 261 590 q 414 571 371 590 q 493 524 456 552 l 508 652 q 425 686 472 672 q 311 700 378 700 q 167 673 224 700 q 83 599 110 645 q 55 497 55 552 q 84 394 55 433 q 161 333 114 356 q 263 292 209 310 q 327 268 297 281 q 376 235 358 255 q 395 183 395 215 q 364 125 395 144 q 272 105 332 105 q 149 127 203 105 q 59 174 94 150 l 44 42 q 139 4 81 22 q 278 -14 197 -14 m 292 -428 l 370 -262 l 370 -126 l 211 -126 l 211 -278 l 266 -278 l 215 -428 l 292 -428 "},"ṡ":{"ha":581,"x_min":44,"x_max":543,"o":"m 278 -14 q 433 15 375 -14 q 517 90 491 44 q 543 191 543 137 q 526 272 543 238 q 482 329 510 306 q 419 368 453 352 q 350 397 385 385 q 235 443 272 423 q 199 508 199 463 q 230 570 199 549 q 314 590 261 590 q 414 571 371 590 q 493 524 456 552 l 508 652 q 425 686 472 672 q 311 700 378 700 q 167 673 224 700 q 83 599 110 645 q 55 497 55 552 q 84 394 55 433 q 161 333 114 356 q 263 292 209 310 q 327 268 297 281 q 376 235 358 255 q 395 183 395 215 q 364 125 395 144 q 272 105 332 105 q 149 127 203 105 q 59 174 94 150 l 44 42 q 139 4 81 22 q 278 -14 197 -14 m 238 827 l 376 827 l 376 956 l 238 956 l 238 827 "}}}
